%TF.GenerationSoftware,KiCad,Pcbnew,8.0.3*%
%TF.CreationDate,2024-06-23T19:26:25-05:00*%
%TF.ProjectId,Vehicle Power Switch,56656869-636c-4652-9050-6f7765722053,rev?*%
%TF.SameCoordinates,Original*%
%TF.FileFunction,Copper,L2,Bot*%
%TF.FilePolarity,Positive*%
%FSLAX46Y46*%
G04 Gerber Fmt 4.6, Leading zero omitted, Abs format (unit mm)*
G04 Created by KiCad (PCBNEW 8.0.3) date 2024-06-23 19:26:25*
%MOMM*%
%LPD*%
G01*
G04 APERTURE LIST*
G04 Aperture macros list*
%AMRoundRect*
0 Rectangle with rounded corners*
0 $1 Rounding radius*
0 $2 $3 $4 $5 $6 $7 $8 $9 X,Y pos of 4 corners*
0 Add a 4 corners polygon primitive as box body*
4,1,4,$2,$3,$4,$5,$6,$7,$8,$9,$2,$3,0*
0 Add four circle primitives for the rounded corners*
1,1,$1+$1,$2,$3*
1,1,$1+$1,$4,$5*
1,1,$1+$1,$6,$7*
1,1,$1+$1,$8,$9*
0 Add four rect primitives between the rounded corners*
20,1,$1+$1,$2,$3,$4,$5,0*
20,1,$1+$1,$4,$5,$6,$7,0*
20,1,$1+$1,$6,$7,$8,$9,0*
20,1,$1+$1,$8,$9,$2,$3,0*%
G04 Aperture macros list end*
%TA.AperFunction,ComponentPad*%
%ADD10C,5.500000*%
%TD*%
%TA.AperFunction,ComponentPad*%
%ADD11C,3.098800*%
%TD*%
%TA.AperFunction,ComponentPad*%
%ADD12RoundRect,0.500000X2.500000X2.500000X-2.500000X2.500000X-2.500000X-2.500000X2.500000X-2.500000X0*%
%TD*%
%TA.AperFunction,ComponentPad*%
%ADD13C,1.440000*%
%TD*%
%TA.AperFunction,ComponentPad*%
%ADD14RoundRect,0.250000X0.600000X-0.600000X0.600000X0.600000X-0.600000X0.600000X-0.600000X-0.600000X0*%
%TD*%
%TA.AperFunction,ComponentPad*%
%ADD15C,1.700000*%
%TD*%
%TA.AperFunction,ComponentPad*%
%ADD16C,2.000000*%
%TD*%
%TA.AperFunction,ComponentPad*%
%ADD17C,2.667000*%
%TD*%
%TA.AperFunction,ComponentPad*%
%ADD18C,2.857500*%
%TD*%
%TA.AperFunction,ComponentPad*%
%ADD19R,1.700000X1.700000*%
%TD*%
%TA.AperFunction,ComponentPad*%
%ADD20O,1.700000X1.700000*%
%TD*%
%TA.AperFunction,ViaPad*%
%ADD21C,0.600000*%
%TD*%
%TA.AperFunction,Conductor*%
%ADD22C,0.200000*%
%TD*%
%TA.AperFunction,Conductor*%
%ADD23C,0.350000*%
%TD*%
%TA.AperFunction,Conductor*%
%ADD24C,3.500000*%
%TD*%
G04 APERTURE END LIST*
D10*
%TO.P,H4,1*%
%TO.N,N/C*%
X62000000Y-128500000D03*
%TD*%
%TO.P,H3,1*%
%TO.N,N/C*%
X62000000Y-57000000D03*
%TD*%
%TO.P,H2,1*%
%TO.N,N/C*%
X126500000Y-128500000D03*
%TD*%
%TO.P,H1,1*%
%TO.N,N/C*%
X126500000Y-57000000D03*
%TD*%
D11*
%TO.P,F3,1,1*%
%TO.N,/1*%
X85776000Y-99000000D03*
%TO.P,F3,2,2*%
X90856000Y-99000000D03*
%TO.P,F3,3,3*%
%TO.N,/2*%
X94920000Y-99000000D03*
%TO.P,F3,4,4*%
X100000000Y-99000000D03*
%TD*%
D12*
%TO.P,J1,1,POS*%
%TO.N,/In*%
X73800000Y-69500000D03*
%TO.P,J1,2,NEG*%
%TO.N,GND*%
X66200000Y-69500000D03*
%TD*%
%TO.P,J5,1,POS*%
%TO.N,/1*%
X73765000Y-117235000D03*
%TO.P,J5,2,NEG*%
%TO.N,GND*%
X66165000Y-117235000D03*
%TD*%
D11*
%TO.P,F2,1,1*%
%TO.N,/1*%
X85776000Y-90000000D03*
%TO.P,F2,2,2*%
X90856000Y-90000000D03*
%TO.P,F2,3,3*%
%TO.N,/2*%
X94920000Y-90000000D03*
%TO.P,F2,4,4*%
X100000000Y-90000000D03*
%TD*%
D13*
%TO.P,R7,1,1*%
%TO.N,Net-(U3-PA3)*%
X111985000Y-71460000D03*
%TO.P,R7,2,2*%
%TO.N,Net-(U3-PA2)*%
X109445000Y-74000000D03*
%TO.P,R7,3,3*%
%TO.N,GND*%
X111985000Y-76540000D03*
%TD*%
D14*
%TO.P,J8,1,DATA*%
%TO.N,Net-(J8-DATA)*%
X109960000Y-128500000D03*
D15*
%TO.P,J8,2,VCC*%
%TO.N,Net-(D3-A)*%
X109960000Y-125960000D03*
%TO.P,J8,3,NC*%
%TO.N,unconnected-(J8-NC-Pad3)*%
X112500000Y-128500000D03*
%TO.P,J8,4,NC*%
%TO.N,unconnected-(J8-NC-Pad4)*%
X112500000Y-125960000D03*
%TO.P,J8,5,NC*%
%TO.N,unconnected-(J8-NC-Pad5)*%
X115040000Y-128500000D03*
%TO.P,J8,6,GND*%
%TO.N,GND*%
X115040000Y-125960000D03*
%TD*%
D16*
%TO.P,J6,1,1*%
%TO.N,Net-(U3-PA5)*%
X120097199Y-88500000D03*
%TO.P,J6,2,2*%
X122617199Y-89349892D03*
%TO.P,J6,3,3*%
%TO.N,Net-(U3-PA4)*%
X118377200Y-95649998D03*
%TO.P,J6,4,4*%
X120897200Y-96399999D03*
%TO.P,J6,5,5*%
%TO.N,GND*%
X118377200Y-90950000D03*
%TD*%
D17*
%TO.P,U4,1,4*%
%TO.N,/2*%
X99967600Y-69706000D03*
%TO.P,U4,2,5*%
%TO.N,+BATT*%
X90518800Y-69299600D03*
D18*
%TO.P,U4,3,3*%
%TO.N,/In*%
X85032400Y-69502800D03*
D17*
%TO.P,U4,5,1*%
%TO.N,Net-(D2-A)*%
X90518800Y-75700400D03*
%TO.P,U4,6,2*%
%TO.N,/2*%
X99967600Y-75294000D03*
%TD*%
D12*
%TO.P,J4,1,POS*%
%TO.N,/1*%
X73765000Y-108135000D03*
%TO.P,J4,2,NEG*%
%TO.N,GND*%
X66165000Y-108135000D03*
%TD*%
D19*
%TO.P,J7,1,Pin_1*%
%TO.N,Net-(J7-Pin_1)*%
X113525000Y-114620000D03*
D20*
%TO.P,J7,2,Pin_2*%
%TO.N,Net-(J7-Pin_2)*%
X113525000Y-112080000D03*
%TO.P,J7,3,Pin_3*%
%TO.N,GND*%
X113525000Y-109540000D03*
%TD*%
D11*
%TO.P,F5,1,1*%
%TO.N,/1*%
X85856000Y-117000000D03*
%TO.P,F5,2,2*%
X90936000Y-117000000D03*
%TO.P,F5,3,3*%
%TO.N,/2*%
X95000000Y-117000000D03*
%TO.P,F5,4,4*%
X100080000Y-117000000D03*
%TD*%
D12*
%TO.P,J2,1,POS*%
%TO.N,/1*%
X73765000Y-89935000D03*
%TO.P,J2,2,NEG*%
%TO.N,GND*%
X66165000Y-89935000D03*
%TD*%
%TO.P,J3,1,POS*%
%TO.N,/1*%
X73765000Y-99035000D03*
%TO.P,J3,2,NEG*%
%TO.N,GND*%
X66165000Y-99035000D03*
%TD*%
D11*
%TO.P,F4,1,1*%
%TO.N,/1*%
X85856000Y-108000000D03*
%TO.P,F4,2,2*%
X90936000Y-108000000D03*
%TO.P,F4,3,3*%
%TO.N,/2*%
X95000000Y-108000000D03*
%TO.P,F4,4,4*%
X100080000Y-108000000D03*
%TD*%
D21*
%TO.N,+BATT*%
X107525000Y-107525000D03*
X123000000Y-66500000D03*
%TO.N,GND*%
X59000000Y-53500000D03*
X93000000Y-113000000D03*
X125500000Y-72750000D03*
X111750000Y-121500000D03*
X121000000Y-116500000D03*
X122250000Y-85500000D03*
X80500000Y-112500000D03*
X130250000Y-73250000D03*
X76500000Y-53500000D03*
X95250000Y-69750000D03*
X122000000Y-132250000D03*
X80500000Y-74750000D03*
X126750000Y-78500000D03*
X86750000Y-53500000D03*
X129750000Y-132250000D03*
X83750000Y-132250000D03*
X116250000Y-85500000D03*
X94500000Y-60500000D03*
X121000000Y-121500000D03*
X80500000Y-94250000D03*
X103750000Y-79750000D03*
X93000000Y-85500000D03*
X129750000Y-53500000D03*
X103000000Y-132250000D03*
X126250000Y-116500000D03*
X67750000Y-53500000D03*
X111000000Y-93250000D03*
X126750000Y-84000000D03*
X109750000Y-65250000D03*
X59000000Y-122500000D03*
X71250000Y-132250000D03*
X80500000Y-103250000D03*
X94500000Y-65250000D03*
X93250000Y-132250000D03*
X114750000Y-98500000D03*
X103750000Y-69750000D03*
X59000000Y-132250000D03*
X107750000Y-93250000D03*
X93000000Y-104000000D03*
X102500000Y-60500000D03*
X122250000Y-53500000D03*
X93000000Y-95000000D03*
X107500000Y-79750000D03*
X118750000Y-103000000D03*
X109750000Y-60500000D03*
X118750000Y-60500000D03*
X103000000Y-122500000D03*
X102500000Y-65250000D03*
X108000000Y-121500000D03*
X118750000Y-65250000D03*
X59000000Y-79250000D03*
X110500000Y-107000000D03*
X80500000Y-85500000D03*
X103750000Y-95000000D03*
X95250000Y-79750000D03*
X110750000Y-85500000D03*
X83750000Y-122500000D03*
X116250000Y-81250000D03*
X103750000Y-113000000D03*
%TO.N,+3V3*%
X126750000Y-122500000D03*
X128500000Y-117750000D03*
X120500000Y-55000000D03*
X122000000Y-104000000D03*
X128500000Y-107500000D03*
X128500000Y-86000000D03*
%TO.N,Net-(U3-PA2)*%
X122750000Y-108750000D03*
%TD*%
D22*
%TO.N,+BATT*%
X93318400Y-66500000D02*
X90518800Y-69299600D01*
X123000000Y-66500000D02*
X105500000Y-66500000D01*
X105500000Y-66500000D02*
X93318400Y-66500000D01*
X107525000Y-107525000D02*
X105500000Y-105500000D01*
X105500000Y-105500000D02*
X105500000Y-67500000D01*
X105500000Y-67500000D02*
X105500000Y-66500000D01*
D23*
%TO.N,+3V3*%
X128500000Y-117750000D02*
X128500000Y-107500000D01*
X128500000Y-104000000D02*
X128500000Y-86000000D01*
X128500000Y-107500000D02*
X128500000Y-104000000D01*
X128500000Y-120750000D02*
X126750000Y-122500000D01*
X120500000Y-60000000D02*
X120500000Y-55000000D01*
X128500000Y-117750000D02*
X128500000Y-120750000D01*
X122000000Y-104000000D02*
X128500000Y-104000000D01*
X128500000Y-86000000D02*
X128500000Y-68000000D01*
X128500000Y-68000000D02*
X120500000Y-60000000D01*
D22*
%TO.N,Net-(U3-PA2)*%
X109250000Y-74195000D02*
X109445000Y-74000000D01*
X109250000Y-95250000D02*
X109250000Y-74195000D01*
X122750000Y-108750000D02*
X109250000Y-95250000D01*
D24*
%TO.N,/2*%
X99967600Y-75294000D02*
X99967600Y-89967600D01*
X100080000Y-108000000D02*
X100080000Y-117000000D01*
X99967600Y-69706000D02*
X99967600Y-75294000D01*
X100000000Y-90000000D02*
X100000000Y-99000000D01*
X100000000Y-99000000D02*
X100000000Y-107203600D01*
X100000000Y-90000000D02*
X94920000Y-90000000D01*
X100080000Y-108000000D02*
X95000000Y-108000000D01*
X100000000Y-99000000D02*
X94920000Y-99000000D01*
X100080000Y-117000000D02*
X95000000Y-117000000D01*
%TO.N,/1*%
X85741000Y-99035000D02*
X85776000Y-99000000D01*
X85711000Y-89935000D02*
X85776000Y-90000000D01*
X73765000Y-99035000D02*
X85741000Y-99035000D01*
X90936000Y-108000000D02*
X85856000Y-108000000D01*
X73765000Y-117235000D02*
X85621000Y-117235000D01*
X85721000Y-108135000D02*
X85856000Y-108000000D01*
X73765000Y-89935000D02*
X85711000Y-89935000D01*
X90856000Y-90000000D02*
X85776000Y-90000000D01*
X90856000Y-99000000D02*
X85776000Y-99000000D01*
X85621000Y-117235000D02*
X85856000Y-117000000D01*
X90936000Y-117000000D02*
X85856000Y-117000000D01*
X73765000Y-108135000D02*
X85721000Y-108135000D01*
%TO.N,/In*%
X73800000Y-69500000D02*
X85029600Y-69500000D01*
D22*
%TO.N,Net-(D2-A)*%
X90518800Y-76018800D02*
X90518800Y-75700400D01*
%TD*%
%TA.AperFunction,Conductor*%
%TO.N,GND*%
G36*
X114574075Y-126152993D02*
G01*
X114639901Y-126267007D01*
X114732993Y-126360099D01*
X114847007Y-126425925D01*
X114910590Y-126442962D01*
X114278625Y-127074925D01*
X114354594Y-127128119D01*
X114398219Y-127182696D01*
X114405413Y-127252194D01*
X114373890Y-127314549D01*
X114354595Y-127331269D01*
X114168594Y-127461508D01*
X114001505Y-127628597D01*
X113871575Y-127814158D01*
X113816998Y-127857783D01*
X113747500Y-127864977D01*
X113685145Y-127833454D01*
X113668425Y-127814158D01*
X113538494Y-127628597D01*
X113371402Y-127461506D01*
X113371396Y-127461501D01*
X113185842Y-127331575D01*
X113142217Y-127276998D01*
X113135023Y-127207500D01*
X113166546Y-127145145D01*
X113185842Y-127128425D01*
X113313165Y-127039272D01*
X113371401Y-126998495D01*
X113538495Y-126831401D01*
X113668732Y-126645403D01*
X113723307Y-126601780D01*
X113792805Y-126594586D01*
X113855160Y-126626109D01*
X113871880Y-126645405D01*
X113925073Y-126721373D01*
X114557037Y-126089409D01*
X114574075Y-126152993D01*
G37*
%TD.AperFunction*%
%TA.AperFunction,Conductor*%
G36*
X131443039Y-51019685D02*
G01*
X131488794Y-51072489D01*
X131500000Y-51124000D01*
X131500000Y-133876000D01*
X131480315Y-133943039D01*
X131427511Y-133988794D01*
X131376000Y-134000000D01*
X57124000Y-134000000D01*
X57056961Y-133980315D01*
X57011206Y-133927511D01*
X57000000Y-133876000D01*
X57000000Y-128499997D01*
X58744726Y-128499997D01*
X58744726Y-128500002D01*
X58763808Y-128851954D01*
X58820833Y-129199793D01*
X58820834Y-129199796D01*
X58915126Y-129539408D01*
X58915127Y-129539410D01*
X59045588Y-129866844D01*
X59045597Y-129866862D01*
X59210695Y-130178269D01*
X59408498Y-130470006D01*
X59408505Y-130470016D01*
X59636685Y-130738649D01*
X59636686Y-130738650D01*
X59892580Y-130981046D01*
X60173182Y-131194354D01*
X60475202Y-131376074D01*
X60475206Y-131376075D01*
X60475210Y-131376078D01*
X60795088Y-131524070D01*
X60795092Y-131524070D01*
X60795099Y-131524074D01*
X61129122Y-131636619D01*
X61473355Y-131712391D01*
X61823763Y-131750500D01*
X61823769Y-131750500D01*
X62176231Y-131750500D01*
X62176237Y-131750500D01*
X62526645Y-131712391D01*
X62870878Y-131636619D01*
X63204901Y-131524074D01*
X63204908Y-131524070D01*
X63204911Y-131524070D01*
X63524789Y-131376078D01*
X63524798Y-131376074D01*
X63826818Y-131194354D01*
X64107420Y-130981046D01*
X64363314Y-130738650D01*
X64591501Y-130470008D01*
X64789305Y-130178269D01*
X64954407Y-129866854D01*
X65084871Y-129539414D01*
X65085126Y-129538498D01*
X65132529Y-129367766D01*
X65179168Y-129199788D01*
X65236191Y-128851957D01*
X65255274Y-128500000D01*
X65236191Y-128148043D01*
X65179168Y-127800212D01*
X65118211Y-127580665D01*
X65084873Y-127460591D01*
X65084872Y-127460589D01*
X64954411Y-127133155D01*
X64954402Y-127133137D01*
X64904638Y-127039272D01*
X64789305Y-126821731D01*
X64591501Y-126529992D01*
X64591497Y-126529987D01*
X64591494Y-126529983D01*
X64363314Y-126261350D01*
X64293700Y-126195408D01*
X64107420Y-126018954D01*
X64107413Y-126018948D01*
X64107410Y-126018946D01*
X64029866Y-125959999D01*
X108604341Y-125959999D01*
X108604341Y-125960000D01*
X108624936Y-126195403D01*
X108624938Y-126195413D01*
X108686094Y-126423655D01*
X108686096Y-126423659D01*
X108686097Y-126423663D01*
X108735675Y-126529983D01*
X108785965Y-126637830D01*
X108785967Y-126637834D01*
X108844462Y-126721373D01*
X108921505Y-126831401D01*
X109088599Y-126998495D01*
X109088604Y-126998499D01*
X109089968Y-126999643D01*
X109090407Y-127000303D01*
X109092427Y-127002323D01*
X109092021Y-127002728D01*
X109128669Y-127057815D01*
X109129776Y-127127676D01*
X109092937Y-127187046D01*
X109049267Y-127212336D01*
X109040669Y-127215184D01*
X109040663Y-127215187D01*
X108891342Y-127307289D01*
X108767289Y-127431342D01*
X108675187Y-127580663D01*
X108675185Y-127580668D01*
X108658701Y-127630414D01*
X108620001Y-127747203D01*
X108620001Y-127747204D01*
X108620000Y-127747204D01*
X108609500Y-127849983D01*
X108609500Y-129150001D01*
X108609501Y-129150018D01*
X108620000Y-129252796D01*
X108620001Y-129252799D01*
X108659303Y-129371402D01*
X108675186Y-129419334D01*
X108767288Y-129568656D01*
X108891344Y-129692712D01*
X109040666Y-129784814D01*
X109207203Y-129839999D01*
X109309991Y-129850500D01*
X110610008Y-129850499D01*
X110712797Y-129839999D01*
X110879334Y-129784814D01*
X111028656Y-129692712D01*
X111152712Y-129568656D01*
X111244814Y-129419334D01*
X111247662Y-129410738D01*
X111287429Y-129353294D01*
X111351944Y-129326468D01*
X111420720Y-129338779D01*
X111457483Y-129367766D01*
X111457677Y-129367573D01*
X111459313Y-129369209D01*
X111460354Y-129370030D01*
X111461501Y-129371397D01*
X111461505Y-129371401D01*
X111628599Y-129538495D01*
X111671675Y-129568657D01*
X111822165Y-129674032D01*
X111822167Y-129674033D01*
X111822170Y-129674035D01*
X112036337Y-129773903D01*
X112264592Y-129835063D01*
X112441034Y-129850500D01*
X112499999Y-129855659D01*
X112500000Y-129855659D01*
X112500001Y-129855659D01*
X112558966Y-129850500D01*
X112735408Y-129835063D01*
X112963663Y-129773903D01*
X113177830Y-129674035D01*
X113371401Y-129538495D01*
X113538495Y-129371401D01*
X113668425Y-129185842D01*
X113723002Y-129142217D01*
X113792500Y-129135023D01*
X113854855Y-129166546D01*
X113871575Y-129185842D01*
X114001500Y-129371395D01*
X114001505Y-129371401D01*
X114168599Y-129538495D01*
X114211675Y-129568657D01*
X114362165Y-129674032D01*
X114362167Y-129674033D01*
X114362170Y-129674035D01*
X114576337Y-129773903D01*
X114804592Y-129835063D01*
X114981034Y-129850500D01*
X115039999Y-129855659D01*
X115040000Y-129855659D01*
X115040001Y-129855659D01*
X115098966Y-129850500D01*
X115275408Y-129835063D01*
X115503663Y-129773903D01*
X115717830Y-129674035D01*
X115911401Y-129538495D01*
X116078495Y-129371401D01*
X116214035Y-129177830D01*
X116313903Y-128963663D01*
X116375063Y-128735408D01*
X116395659Y-128500000D01*
X116395659Y-128499997D01*
X123244726Y-128499997D01*
X123244726Y-128500002D01*
X123263808Y-128851954D01*
X123320833Y-129199793D01*
X123320834Y-129199796D01*
X123415126Y-129539408D01*
X123415127Y-129539410D01*
X123545588Y-129866844D01*
X123545597Y-129866862D01*
X123710695Y-130178269D01*
X123908498Y-130470006D01*
X123908505Y-130470016D01*
X124136685Y-130738649D01*
X124136686Y-130738650D01*
X124392580Y-130981046D01*
X124673182Y-131194354D01*
X124975202Y-131376074D01*
X124975206Y-131376075D01*
X124975210Y-131376078D01*
X125295088Y-131524070D01*
X125295092Y-131524070D01*
X125295099Y-131524074D01*
X125629122Y-131636619D01*
X125973355Y-131712391D01*
X126323763Y-131750500D01*
X126323769Y-131750500D01*
X126676231Y-131750500D01*
X126676237Y-131750500D01*
X127026645Y-131712391D01*
X127370878Y-131636619D01*
X127704901Y-131524074D01*
X127704908Y-131524070D01*
X127704911Y-131524070D01*
X128024789Y-131376078D01*
X128024798Y-131376074D01*
X128326818Y-131194354D01*
X128607420Y-130981046D01*
X128863314Y-130738650D01*
X129091501Y-130470008D01*
X129289305Y-130178269D01*
X129454407Y-129866854D01*
X129584871Y-129539414D01*
X129585126Y-129538498D01*
X129632529Y-129367766D01*
X129679168Y-129199788D01*
X129736191Y-128851957D01*
X129755274Y-128500000D01*
X129736191Y-128148043D01*
X129679168Y-127800212D01*
X129618211Y-127580665D01*
X129584873Y-127460591D01*
X129584872Y-127460589D01*
X129454411Y-127133155D01*
X129454402Y-127133137D01*
X129404638Y-127039272D01*
X129289305Y-126821731D01*
X129091501Y-126529992D01*
X129091497Y-126529987D01*
X129091494Y-126529983D01*
X128863314Y-126261350D01*
X128793700Y-126195408D01*
X128607420Y-126018954D01*
X128607413Y-126018948D01*
X128607410Y-126018946D01*
X128326815Y-125805644D01*
X128024802Y-125623928D01*
X128024789Y-125623921D01*
X127704911Y-125475929D01*
X127704906Y-125475928D01*
X127704903Y-125475927D01*
X127704901Y-125475926D01*
X127598432Y-125440052D01*
X127370880Y-125363381D01*
X127026643Y-125287608D01*
X126676238Y-125249500D01*
X126676237Y-125249500D01*
X126323763Y-125249500D01*
X126323761Y-125249500D01*
X125973356Y-125287608D01*
X125629119Y-125363381D01*
X125295093Y-125475928D01*
X125295088Y-125475929D01*
X124975210Y-125623921D01*
X124975197Y-125623928D01*
X124673184Y-125805644D01*
X124392589Y-126018946D01*
X124392580Y-126018954D01*
X124136685Y-126261350D01*
X123908505Y-126529983D01*
X123908498Y-126529993D01*
X123710695Y-126821730D01*
X123545597Y-127133137D01*
X123545588Y-127133155D01*
X123415127Y-127460589D01*
X123415126Y-127460591D01*
X123320834Y-127800203D01*
X123320833Y-127800206D01*
X123263808Y-128148045D01*
X123244726Y-128499997D01*
X116395659Y-128499997D01*
X116375063Y-128264592D01*
X116313903Y-128036337D01*
X116214035Y-127822171D01*
X116208425Y-127814158D01*
X116078494Y-127628597D01*
X115911402Y-127461506D01*
X115911401Y-127461505D01*
X115725405Y-127331269D01*
X115681781Y-127276692D01*
X115674588Y-127207193D01*
X115706110Y-127144839D01*
X115725405Y-127128119D01*
X115801373Y-127074925D01*
X115169409Y-126442962D01*
X115232993Y-126425925D01*
X115347007Y-126360099D01*
X115440099Y-126267007D01*
X115505925Y-126152993D01*
X115522962Y-126089410D01*
X116154925Y-126721373D01*
X116154926Y-126721373D01*
X116213598Y-126637582D01*
X116213600Y-126637578D01*
X116313429Y-126423492D01*
X116313433Y-126423483D01*
X116374567Y-126195326D01*
X116374569Y-126195315D01*
X116395157Y-125960001D01*
X116395157Y-125959998D01*
X116374569Y-125724684D01*
X116374567Y-125724673D01*
X116313433Y-125496516D01*
X116313429Y-125496507D01*
X116213600Y-125282423D01*
X116213599Y-125282421D01*
X116154925Y-125198626D01*
X116154925Y-125198625D01*
X115522962Y-125830589D01*
X115505925Y-125767007D01*
X115440099Y-125652993D01*
X115347007Y-125559901D01*
X115232993Y-125494075D01*
X115169410Y-125477037D01*
X115801373Y-124845073D01*
X115801373Y-124845072D01*
X115717583Y-124786402D01*
X115717579Y-124786400D01*
X115503492Y-124686570D01*
X115503483Y-124686566D01*
X115275326Y-124625432D01*
X115275315Y-124625430D01*
X115040002Y-124604843D01*
X115039998Y-124604843D01*
X114804684Y-124625430D01*
X114804673Y-124625432D01*
X114576516Y-124686566D01*
X114576507Y-124686570D01*
X114362419Y-124786401D01*
X114278625Y-124845072D01*
X114910590Y-125477037D01*
X114847007Y-125494075D01*
X114732993Y-125559901D01*
X114639901Y-125652993D01*
X114574075Y-125767007D01*
X114557037Y-125830590D01*
X113925073Y-125198626D01*
X113871881Y-125274594D01*
X113817304Y-125318219D01*
X113747806Y-125325413D01*
X113685451Y-125293891D01*
X113668730Y-125274594D01*
X113538494Y-125088597D01*
X113371402Y-124921506D01*
X113371395Y-124921501D01*
X113177834Y-124785967D01*
X113177830Y-124785965D01*
X113177828Y-124785964D01*
X112963663Y-124686097D01*
X112963659Y-124686096D01*
X112963655Y-124686094D01*
X112735413Y-124624938D01*
X112735403Y-124624936D01*
X112500001Y-124604341D01*
X112499999Y-124604341D01*
X112264596Y-124624936D01*
X112264586Y-124624938D01*
X112036344Y-124686094D01*
X112036335Y-124686098D01*
X111822171Y-124785964D01*
X111822169Y-124785965D01*
X111628597Y-124921505D01*
X111461505Y-125088597D01*
X111331575Y-125274158D01*
X111276998Y-125317783D01*
X111207500Y-125324977D01*
X111145145Y-125293454D01*
X111128425Y-125274158D01*
X110998494Y-125088597D01*
X110831402Y-124921506D01*
X110831395Y-124921501D01*
X110637834Y-124785967D01*
X110637830Y-124785965D01*
X110637828Y-124785964D01*
X110423663Y-124686097D01*
X110423659Y-124686096D01*
X110423655Y-124686094D01*
X110195413Y-124624938D01*
X110195403Y-124624936D01*
X109960001Y-124604341D01*
X109959999Y-124604341D01*
X109724596Y-124624936D01*
X109724586Y-124624938D01*
X109496344Y-124686094D01*
X109496335Y-124686098D01*
X109282171Y-124785964D01*
X109282169Y-124785965D01*
X109088597Y-124921505D01*
X108921505Y-125088597D01*
X108785965Y-125282169D01*
X108785964Y-125282171D01*
X108686098Y-125496335D01*
X108686094Y-125496344D01*
X108624938Y-125724586D01*
X108624936Y-125724596D01*
X108604341Y-125959999D01*
X64029866Y-125959999D01*
X63826815Y-125805644D01*
X63524802Y-125623928D01*
X63524789Y-125623921D01*
X63204911Y-125475929D01*
X63204906Y-125475928D01*
X63204903Y-125475927D01*
X63204901Y-125475926D01*
X63098432Y-125440052D01*
X62870880Y-125363381D01*
X62526643Y-125287608D01*
X62176238Y-125249500D01*
X62176237Y-125249500D01*
X61823763Y-125249500D01*
X61823761Y-125249500D01*
X61473356Y-125287608D01*
X61129119Y-125363381D01*
X60795093Y-125475928D01*
X60795088Y-125475929D01*
X60475210Y-125623921D01*
X60475197Y-125623928D01*
X60173184Y-125805644D01*
X59892589Y-126018946D01*
X59892580Y-126018954D01*
X59636685Y-126261350D01*
X59408505Y-126529983D01*
X59408498Y-126529993D01*
X59210695Y-126821730D01*
X59045597Y-127133137D01*
X59045588Y-127133155D01*
X58915127Y-127460589D01*
X58915126Y-127460591D01*
X58820834Y-127800203D01*
X58820833Y-127800206D01*
X58763808Y-128148045D01*
X58744726Y-128499997D01*
X57000000Y-128499997D01*
X57000000Y-119793000D01*
X62665000Y-119793000D01*
X62675608Y-119912325D01*
X62675609Y-119912328D01*
X62731557Y-120107861D01*
X62825721Y-120288129D01*
X62954246Y-120445753D01*
X63111870Y-120574278D01*
X63292138Y-120668442D01*
X63487671Y-120724390D01*
X63487674Y-120724391D01*
X63606999Y-120734999D01*
X63607002Y-120735000D01*
X65165000Y-120735000D01*
X67165000Y-120735000D01*
X68722998Y-120735000D01*
X68723000Y-120734999D01*
X68842325Y-120724391D01*
X68842328Y-120724390D01*
X69037861Y-120668442D01*
X69218129Y-120574278D01*
X69375753Y-120445753D01*
X69504278Y-120288129D01*
X69598442Y-120107861D01*
X69654390Y-119912328D01*
X69654391Y-119912325D01*
X69664999Y-119793000D01*
X69665000Y-119792998D01*
X69665000Y-118235000D01*
X67165000Y-118235000D01*
X67165000Y-120735000D01*
X65165000Y-120735000D01*
X65165000Y-118235000D01*
X62665000Y-118235000D01*
X62665000Y-119793000D01*
X57000000Y-119793000D01*
X57000000Y-117132688D01*
X64865000Y-117132688D01*
X64865000Y-117337312D01*
X64897010Y-117539417D01*
X64960243Y-117734027D01*
X65053140Y-117916349D01*
X65173415Y-118081893D01*
X65318107Y-118226585D01*
X65483651Y-118346860D01*
X65665973Y-118439757D01*
X65860583Y-118502990D01*
X66062688Y-118535000D01*
X66267312Y-118535000D01*
X66469417Y-118502990D01*
X66664027Y-118439757D01*
X66846349Y-118346860D01*
X67011893Y-118226585D01*
X67156585Y-118081893D01*
X67276860Y-117916349D01*
X67369757Y-117734027D01*
X67432990Y-117539417D01*
X67465000Y-117337312D01*
X67465000Y-117132688D01*
X67432990Y-116930583D01*
X67369757Y-116735973D01*
X67276860Y-116553651D01*
X67156585Y-116388107D01*
X67011893Y-116243415D01*
X67000311Y-116235000D01*
X67165000Y-116235000D01*
X69665000Y-116235000D01*
X69665000Y-114677002D01*
X69664999Y-114676999D01*
X69654391Y-114557674D01*
X69654390Y-114557671D01*
X69598442Y-114362138D01*
X69504278Y-114181870D01*
X69375753Y-114024246D01*
X69218129Y-113895721D01*
X69037861Y-113801557D01*
X68842328Y-113745609D01*
X68842325Y-113745608D01*
X68723000Y-113735000D01*
X67165000Y-113735000D01*
X67165000Y-116235000D01*
X67000311Y-116235000D01*
X66846349Y-116123140D01*
X66664027Y-116030243D01*
X66469417Y-115967010D01*
X66267312Y-115935000D01*
X66062688Y-115935000D01*
X65860583Y-115967010D01*
X65665973Y-116030243D01*
X65483651Y-116123140D01*
X65318107Y-116243415D01*
X65173415Y-116388107D01*
X65053140Y-116553651D01*
X64960243Y-116735973D01*
X64897010Y-116930583D01*
X64865000Y-117132688D01*
X57000000Y-117132688D01*
X57000000Y-114676999D01*
X62665000Y-114676999D01*
X62665000Y-116235000D01*
X65165000Y-116235000D01*
X65165000Y-113735000D01*
X63606999Y-113735000D01*
X63487674Y-113745608D01*
X63487671Y-113745609D01*
X63292138Y-113801557D01*
X63111870Y-113895721D01*
X62954246Y-114024246D01*
X62825721Y-114181870D01*
X62731557Y-114362138D01*
X62675609Y-114557671D01*
X62675608Y-114557674D01*
X62665000Y-114676999D01*
X57000000Y-114676999D01*
X57000000Y-110693000D01*
X62665000Y-110693000D01*
X62675608Y-110812325D01*
X62675609Y-110812328D01*
X62731557Y-111007861D01*
X62825721Y-111188129D01*
X62954246Y-111345753D01*
X63111870Y-111474278D01*
X63292138Y-111568442D01*
X63487671Y-111624390D01*
X63487674Y-111624391D01*
X63606999Y-111634999D01*
X63607002Y-111635000D01*
X65165000Y-111635000D01*
X67165000Y-111635000D01*
X68722998Y-111635000D01*
X68723000Y-111634999D01*
X68842325Y-111624391D01*
X68842328Y-111624390D01*
X69037861Y-111568442D01*
X69218129Y-111474278D01*
X69375753Y-111345753D01*
X69504278Y-111188129D01*
X69598442Y-111007861D01*
X69654390Y-110812328D01*
X69654391Y-110812325D01*
X69664999Y-110693000D01*
X69665000Y-110692998D01*
X69665000Y-109135000D01*
X67165000Y-109135000D01*
X67165000Y-111635000D01*
X65165000Y-111635000D01*
X65165000Y-109135000D01*
X62665000Y-109135000D01*
X62665000Y-110693000D01*
X57000000Y-110693000D01*
X57000000Y-108032688D01*
X64865000Y-108032688D01*
X64865000Y-108237312D01*
X64897010Y-108439417D01*
X64960243Y-108634027D01*
X65053140Y-108816349D01*
X65173415Y-108981893D01*
X65318107Y-109126585D01*
X65483651Y-109246860D01*
X65665973Y-109339757D01*
X65860583Y-109402990D01*
X66062688Y-109435000D01*
X66267312Y-109435000D01*
X66469417Y-109402990D01*
X66664027Y-109339757D01*
X66846349Y-109246860D01*
X67011893Y-109126585D01*
X67156585Y-108981893D01*
X67276860Y-108816349D01*
X67369757Y-108634027D01*
X67432990Y-108439417D01*
X67465000Y-108237312D01*
X67465000Y-108032688D01*
X67432990Y-107830583D01*
X67369757Y-107635973D01*
X67276860Y-107453651D01*
X67156585Y-107288107D01*
X67011893Y-107143415D01*
X67000311Y-107135000D01*
X67165000Y-107135000D01*
X69665000Y-107135000D01*
X69665000Y-105577002D01*
X69664999Y-105576999D01*
X69654391Y-105457674D01*
X69654390Y-105457671D01*
X69598442Y-105262138D01*
X69504278Y-105081870D01*
X69375753Y-104924246D01*
X69218129Y-104795721D01*
X69037861Y-104701557D01*
X68842328Y-104645609D01*
X68842325Y-104645608D01*
X68723000Y-104635000D01*
X67165000Y-104635000D01*
X67165000Y-107135000D01*
X67000311Y-107135000D01*
X66846349Y-107023140D01*
X66664027Y-106930243D01*
X66469417Y-106867010D01*
X66267312Y-106835000D01*
X66062688Y-106835000D01*
X65860583Y-106867010D01*
X65665973Y-106930243D01*
X65483651Y-107023140D01*
X65318107Y-107143415D01*
X65173415Y-107288107D01*
X65053140Y-107453651D01*
X64960243Y-107635973D01*
X64897010Y-107830583D01*
X64865000Y-108032688D01*
X57000000Y-108032688D01*
X57000000Y-105576999D01*
X62665000Y-105576999D01*
X62665000Y-107135000D01*
X65165000Y-107135000D01*
X65165000Y-104635000D01*
X63606999Y-104635000D01*
X63487674Y-104645608D01*
X63487671Y-104645609D01*
X63292138Y-104701557D01*
X63111870Y-104795721D01*
X62954246Y-104924246D01*
X62825721Y-105081870D01*
X62731557Y-105262138D01*
X62675609Y-105457671D01*
X62675608Y-105457674D01*
X62665000Y-105576999D01*
X57000000Y-105576999D01*
X57000000Y-101593000D01*
X62665000Y-101593000D01*
X62675608Y-101712325D01*
X62675609Y-101712328D01*
X62731557Y-101907861D01*
X62825721Y-102088129D01*
X62954246Y-102245753D01*
X63111870Y-102374278D01*
X63292138Y-102468442D01*
X63487671Y-102524390D01*
X63487674Y-102524391D01*
X63606999Y-102534999D01*
X63607002Y-102535000D01*
X65165000Y-102535000D01*
X67165000Y-102535000D01*
X68722998Y-102535000D01*
X68723000Y-102534999D01*
X68842325Y-102524391D01*
X68842328Y-102524390D01*
X69037861Y-102468442D01*
X69218129Y-102374278D01*
X69375753Y-102245753D01*
X69504278Y-102088129D01*
X69598442Y-101907861D01*
X69654390Y-101712328D01*
X69654391Y-101712325D01*
X69664999Y-101593000D01*
X69665000Y-101592998D01*
X69665000Y-100035000D01*
X67165000Y-100035000D01*
X67165000Y-102535000D01*
X65165000Y-102535000D01*
X65165000Y-100035000D01*
X62665000Y-100035000D01*
X62665000Y-101593000D01*
X57000000Y-101593000D01*
X57000000Y-98932688D01*
X64865000Y-98932688D01*
X64865000Y-99137312D01*
X64897010Y-99339417D01*
X64960243Y-99534027D01*
X65053140Y-99716349D01*
X65173415Y-99881893D01*
X65318107Y-100026585D01*
X65483651Y-100146860D01*
X65665973Y-100239757D01*
X65860583Y-100302990D01*
X66062688Y-100335000D01*
X66267312Y-100335000D01*
X66469417Y-100302990D01*
X66664027Y-100239757D01*
X66846349Y-100146860D01*
X67011893Y-100026585D01*
X67156585Y-99881893D01*
X67276860Y-99716349D01*
X67369757Y-99534027D01*
X67432990Y-99339417D01*
X67465000Y-99137312D01*
X67465000Y-98932688D01*
X67432990Y-98730583D01*
X67369757Y-98535973D01*
X67276860Y-98353651D01*
X67156585Y-98188107D01*
X67011893Y-98043415D01*
X67000311Y-98035000D01*
X67165000Y-98035000D01*
X69665000Y-98035000D01*
X69665000Y-96477002D01*
X69664999Y-96476999D01*
X69654391Y-96357674D01*
X69654390Y-96357671D01*
X69598442Y-96162138D01*
X69504278Y-95981870D01*
X69375753Y-95824246D01*
X69218129Y-95695721D01*
X69037861Y-95601557D01*
X68842328Y-95545609D01*
X68842325Y-95545608D01*
X68723000Y-95535000D01*
X67165000Y-95535000D01*
X67165000Y-98035000D01*
X67000311Y-98035000D01*
X66846349Y-97923140D01*
X66664027Y-97830243D01*
X66469417Y-97767010D01*
X66267312Y-97735000D01*
X66062688Y-97735000D01*
X65860583Y-97767010D01*
X65665973Y-97830243D01*
X65483651Y-97923140D01*
X65318107Y-98043415D01*
X65173415Y-98188107D01*
X65053140Y-98353651D01*
X64960243Y-98535973D01*
X64897010Y-98730583D01*
X64865000Y-98932688D01*
X57000000Y-98932688D01*
X57000000Y-96476999D01*
X62665000Y-96476999D01*
X62665000Y-98035000D01*
X65165000Y-98035000D01*
X65165000Y-95535000D01*
X63606999Y-95535000D01*
X63487674Y-95545608D01*
X63487671Y-95545609D01*
X63292138Y-95601557D01*
X63111870Y-95695721D01*
X62954246Y-95824246D01*
X62825721Y-95981870D01*
X62731557Y-96162138D01*
X62675609Y-96357671D01*
X62675608Y-96357674D01*
X62665000Y-96476999D01*
X57000000Y-96476999D01*
X57000000Y-92493000D01*
X62665000Y-92493000D01*
X62675608Y-92612325D01*
X62675609Y-92612328D01*
X62731557Y-92807861D01*
X62825721Y-92988129D01*
X62954246Y-93145753D01*
X63111870Y-93274278D01*
X63292138Y-93368442D01*
X63487671Y-93424390D01*
X63487674Y-93424391D01*
X63606999Y-93434999D01*
X63607002Y-93435000D01*
X65165000Y-93435000D01*
X67165000Y-93435000D01*
X68722998Y-93435000D01*
X68723000Y-93434999D01*
X68842325Y-93424391D01*
X68842328Y-93424390D01*
X69037861Y-93368442D01*
X69218129Y-93274278D01*
X69375753Y-93145753D01*
X69504278Y-92988129D01*
X69598442Y-92807861D01*
X69654390Y-92612328D01*
X69654391Y-92612325D01*
X69664999Y-92493000D01*
X69665000Y-92492998D01*
X69665000Y-90935000D01*
X67165000Y-90935000D01*
X67165000Y-93435000D01*
X65165000Y-93435000D01*
X65165000Y-90935000D01*
X62665000Y-90935000D01*
X62665000Y-92493000D01*
X57000000Y-92493000D01*
X57000000Y-89832688D01*
X64865000Y-89832688D01*
X64865000Y-90037312D01*
X64897010Y-90239417D01*
X64960243Y-90434027D01*
X65053140Y-90616349D01*
X65173415Y-90781893D01*
X65318107Y-90926585D01*
X65483651Y-91046860D01*
X65665973Y-91139757D01*
X65860583Y-91202990D01*
X66062688Y-91235000D01*
X66267312Y-91235000D01*
X66469417Y-91202990D01*
X66664027Y-91139757D01*
X66846349Y-91046860D01*
X67011893Y-90926585D01*
X67156585Y-90781893D01*
X67276860Y-90616349D01*
X67369757Y-90434027D01*
X67432990Y-90239417D01*
X67465000Y-90037312D01*
X67465000Y-89832688D01*
X67432990Y-89630583D01*
X67369757Y-89435973D01*
X67276860Y-89253651D01*
X67156585Y-89088107D01*
X67011893Y-88943415D01*
X67000311Y-88935000D01*
X67165000Y-88935000D01*
X69665000Y-88935000D01*
X69665000Y-87377002D01*
X69664999Y-87376999D01*
X69663568Y-87360904D01*
X70064500Y-87360904D01*
X70064500Y-92509095D01*
X70070918Y-92601561D01*
X70070920Y-92601577D01*
X70121854Y-92818135D01*
X70121860Y-92818151D01*
X70211721Y-93021668D01*
X70337457Y-93205220D01*
X70337462Y-93205226D01*
X70494773Y-93362537D01*
X70494779Y-93362542D01*
X70678329Y-93488277D01*
X70881857Y-93578143D01*
X70881861Y-93578144D01*
X70881864Y-93578145D01*
X71098422Y-93629079D01*
X71098427Y-93629079D01*
X71098433Y-93629081D01*
X71149808Y-93632647D01*
X71190904Y-93635500D01*
X71190908Y-93635500D01*
X76339096Y-93635500D01*
X76376082Y-93632932D01*
X76431567Y-93629081D01*
X76431573Y-93629079D01*
X76431577Y-93629079D01*
X76648135Y-93578145D01*
X76648135Y-93578144D01*
X76648143Y-93578143D01*
X76851671Y-93488277D01*
X77035221Y-93362542D01*
X77192542Y-93205221D01*
X77318277Y-93021671D01*
X77408143Y-92818143D01*
X77459081Y-92601567D01*
X77465500Y-92509092D01*
X77465500Y-92309500D01*
X77485185Y-92242461D01*
X77537989Y-92196706D01*
X77589500Y-92185500D01*
X85220805Y-92185500D01*
X85252898Y-92189725D01*
X85269741Y-92194238D01*
X85336007Y-92211994D01*
X85594467Y-92246020D01*
X85628494Y-92250500D01*
X91003499Y-92250500D01*
X91003506Y-92250500D01*
X91295993Y-92211993D01*
X91580952Y-92135639D01*
X91853507Y-92022743D01*
X92108994Y-91875238D01*
X92343042Y-91695646D01*
X92551646Y-91487042D01*
X92731238Y-91252994D01*
X92780613Y-91167474D01*
X92831180Y-91119259D01*
X92899787Y-91106035D01*
X92964651Y-91132003D01*
X92995387Y-91167474D01*
X93044761Y-91252993D01*
X93224352Y-91487040D01*
X93224358Y-91487047D01*
X93432952Y-91695641D01*
X93432959Y-91695647D01*
X93667006Y-91875238D01*
X93922489Y-92022741D01*
X93922490Y-92022741D01*
X93922493Y-92022743D01*
X94195048Y-92135639D01*
X94480007Y-92211993D01*
X94772494Y-92250500D01*
X97625500Y-92250500D01*
X97692539Y-92270185D01*
X97738294Y-92322989D01*
X97749500Y-92374500D01*
X97749500Y-96625500D01*
X97729815Y-96692539D01*
X97677011Y-96738294D01*
X97625500Y-96749500D01*
X94772486Y-96749500D01*
X94506645Y-96784500D01*
X94480007Y-96788007D01*
X94313284Y-96832680D01*
X94195048Y-96864361D01*
X94195038Y-96864364D01*
X93922499Y-96977254D01*
X93922489Y-96977258D01*
X93667006Y-97124761D01*
X93432959Y-97304352D01*
X93432952Y-97304358D01*
X93224358Y-97512952D01*
X93224352Y-97512959D01*
X93044761Y-97747007D01*
X92995387Y-97832525D01*
X92944820Y-97880741D01*
X92876213Y-97893963D01*
X92811348Y-97867995D01*
X92780613Y-97832525D01*
X92742787Y-97767010D01*
X92731238Y-97747006D01*
X92551646Y-97512958D01*
X92551641Y-97512952D01*
X92343047Y-97304358D01*
X92343040Y-97304352D01*
X92108993Y-97124761D01*
X91853510Y-96977258D01*
X91853500Y-96977254D01*
X91580961Y-96864364D01*
X91580954Y-96864362D01*
X91580952Y-96864361D01*
X91295993Y-96788007D01*
X91247113Y-96781571D01*
X91003513Y-96749500D01*
X91003506Y-96749500D01*
X85923505Y-96749500D01*
X85628494Y-96749500D01*
X85628493Y-96749500D01*
X85370697Y-96783439D01*
X85354512Y-96784500D01*
X77589500Y-96784500D01*
X77522461Y-96764815D01*
X77476706Y-96712011D01*
X77465500Y-96660500D01*
X77465500Y-96460904D01*
X77459081Y-96368438D01*
X77459081Y-96368433D01*
X77459079Y-96368427D01*
X77459079Y-96368422D01*
X77408145Y-96151864D01*
X77408144Y-96151861D01*
X77408143Y-96151857D01*
X77318277Y-95948329D01*
X77192542Y-95764779D01*
X77192537Y-95764773D01*
X77035226Y-95607462D01*
X77035220Y-95607457D01*
X76878976Y-95500427D01*
X76851671Y-95481723D01*
X76851670Y-95481722D01*
X76851668Y-95481721D01*
X76648151Y-95391860D01*
X76648135Y-95391854D01*
X76431577Y-95340920D01*
X76431561Y-95340918D01*
X76339096Y-95334500D01*
X76339092Y-95334500D01*
X71190908Y-95334500D01*
X71190904Y-95334500D01*
X71098438Y-95340918D01*
X71098422Y-95340920D01*
X70881864Y-95391854D01*
X70881848Y-95391860D01*
X70678331Y-95481721D01*
X70494779Y-95607457D01*
X70494773Y-95607462D01*
X70337462Y-95764773D01*
X70337457Y-95764779D01*
X70211721Y-95948331D01*
X70121860Y-96151848D01*
X70121854Y-96151864D01*
X70070920Y-96368422D01*
X70070918Y-96368438D01*
X70064500Y-96460904D01*
X70064500Y-101609095D01*
X70070918Y-101701561D01*
X70070920Y-101701577D01*
X70121854Y-101918135D01*
X70121860Y-101918151D01*
X70211721Y-102121668D01*
X70337457Y-102305220D01*
X70337462Y-102305226D01*
X70494773Y-102462537D01*
X70494779Y-102462542D01*
X70678329Y-102588277D01*
X70881857Y-102678143D01*
X70881861Y-102678144D01*
X70881864Y-102678145D01*
X71098422Y-102729079D01*
X71098427Y-102729079D01*
X71098433Y-102729081D01*
X71149808Y-102732647D01*
X71190904Y-102735500D01*
X71190908Y-102735500D01*
X76339096Y-102735500D01*
X76376082Y-102732932D01*
X76431567Y-102729081D01*
X76431573Y-102729079D01*
X76431577Y-102729079D01*
X76648135Y-102678145D01*
X76648135Y-102678144D01*
X76648143Y-102678143D01*
X76851671Y-102588277D01*
X77035221Y-102462542D01*
X77192542Y-102305221D01*
X77318277Y-102121671D01*
X77408143Y-101918143D01*
X77459081Y-101701567D01*
X77465500Y-101609092D01*
X77465500Y-101409500D01*
X77485185Y-101342461D01*
X77537989Y-101296706D01*
X77589500Y-101285500D01*
X85888500Y-101285500D01*
X85888505Y-101285500D01*
X85888506Y-101285500D01*
X85922532Y-101281020D01*
X86102585Y-101257316D01*
X86146304Y-101251561D01*
X86162488Y-101250500D01*
X91003499Y-101250500D01*
X91003506Y-101250500D01*
X91295993Y-101211993D01*
X91580952Y-101135639D01*
X91853507Y-101022743D01*
X92108994Y-100875238D01*
X92343042Y-100695646D01*
X92551646Y-100487042D01*
X92731238Y-100252994D01*
X92780613Y-100167474D01*
X92831180Y-100119259D01*
X92899787Y-100106035D01*
X92964651Y-100132003D01*
X92995387Y-100167474D01*
X93044761Y-100252993D01*
X93224352Y-100487040D01*
X93224358Y-100487047D01*
X93432952Y-100695641D01*
X93432959Y-100695647D01*
X93667006Y-100875238D01*
X93922489Y-101022741D01*
X93922490Y-101022741D01*
X93922493Y-101022743D01*
X94195048Y-101135639D01*
X94480007Y-101211993D01*
X94772494Y-101250500D01*
X97625500Y-101250500D01*
X97692539Y-101270185D01*
X97738294Y-101322989D01*
X97749500Y-101374500D01*
X97749500Y-105625500D01*
X97729815Y-105692539D01*
X97677011Y-105738294D01*
X97625500Y-105749500D01*
X94852486Y-105749500D01*
X94574085Y-105786153D01*
X94560007Y-105788007D01*
X94335273Y-105848224D01*
X94275048Y-105864361D01*
X94275038Y-105864364D01*
X94002499Y-105977254D01*
X94002489Y-105977258D01*
X93747006Y-106124761D01*
X93512959Y-106304352D01*
X93512952Y-106304358D01*
X93304358Y-106512952D01*
X93304352Y-106512959D01*
X93124761Y-106747007D01*
X93075387Y-106832525D01*
X93024820Y-106880741D01*
X92956213Y-106893963D01*
X92891348Y-106867995D01*
X92860613Y-106832525D01*
X92832783Y-106784323D01*
X92811238Y-106747006D01*
X92631646Y-106512958D01*
X92631641Y-106512952D01*
X92423047Y-106304358D01*
X92423040Y-106304352D01*
X92188993Y-106124761D01*
X91933510Y-105977258D01*
X91933500Y-105977254D01*
X91660961Y-105864364D01*
X91660954Y-105864362D01*
X91660952Y-105864361D01*
X91375993Y-105788007D01*
X91327113Y-105781571D01*
X91083513Y-105749500D01*
X91083506Y-105749500D01*
X85708494Y-105749500D01*
X85708492Y-105749500D01*
X85674467Y-105753978D01*
X85674467Y-105753979D01*
X85640441Y-105758458D01*
X85416008Y-105788005D01*
X85191266Y-105848225D01*
X85191265Y-105848224D01*
X85131052Y-105864359D01*
X85105216Y-105875061D01*
X85057764Y-105884500D01*
X77589500Y-105884500D01*
X77522461Y-105864815D01*
X77476706Y-105812011D01*
X77465500Y-105760500D01*
X77465500Y-105560904D01*
X77459081Y-105468438D01*
X77459081Y-105468433D01*
X77459079Y-105468427D01*
X77459079Y-105468422D01*
X77408145Y-105251864D01*
X77408144Y-105251861D01*
X77408143Y-105251857D01*
X77318277Y-105048329D01*
X77192542Y-104864779D01*
X77192537Y-104864773D01*
X77035226Y-104707462D01*
X77035220Y-104707457D01*
X76851668Y-104581721D01*
X76648151Y-104491860D01*
X76648135Y-104491854D01*
X76431577Y-104440920D01*
X76431561Y-104440918D01*
X76339096Y-104434500D01*
X76339092Y-104434500D01*
X71190908Y-104434500D01*
X71190904Y-104434500D01*
X71098438Y-104440918D01*
X71098422Y-104440920D01*
X70881864Y-104491854D01*
X70881848Y-104491860D01*
X70678331Y-104581721D01*
X70494779Y-104707457D01*
X70494773Y-104707462D01*
X70337462Y-104864773D01*
X70337457Y-104864779D01*
X70211721Y-105048331D01*
X70121860Y-105251848D01*
X70121854Y-105251864D01*
X70070920Y-105468422D01*
X70070918Y-105468438D01*
X70064500Y-105560904D01*
X70064500Y-110709095D01*
X70070918Y-110801561D01*
X70070920Y-110801577D01*
X70121854Y-111018135D01*
X70121860Y-111018151D01*
X70211721Y-111221668D01*
X70337457Y-111405220D01*
X70337462Y-111405226D01*
X70494773Y-111562537D01*
X70494779Y-111562542D01*
X70678329Y-111688277D01*
X70881857Y-111778143D01*
X70881861Y-111778144D01*
X70881864Y-111778145D01*
X71098422Y-111829079D01*
X71098427Y-111829079D01*
X71098433Y-111829081D01*
X71149808Y-111832647D01*
X71190904Y-111835500D01*
X71190908Y-111835500D01*
X76339096Y-111835500D01*
X76376082Y-111832932D01*
X76431567Y-111829081D01*
X76431573Y-111829079D01*
X76431577Y-111829079D01*
X76648135Y-111778145D01*
X76648135Y-111778144D01*
X76648143Y-111778143D01*
X76851671Y-111688277D01*
X77035221Y-111562542D01*
X77192542Y-111405221D01*
X77318277Y-111221671D01*
X77408143Y-111018143D01*
X77410561Y-111007861D01*
X77459079Y-110801577D01*
X77459079Y-110801573D01*
X77459081Y-110801567D01*
X77465500Y-110709092D01*
X77465500Y-110509500D01*
X77485185Y-110442461D01*
X77537989Y-110396706D01*
X77589500Y-110385500D01*
X85868500Y-110385500D01*
X85868505Y-110385500D01*
X85868506Y-110385500D01*
X85902532Y-110381020D01*
X86160993Y-110346994D01*
X86385732Y-110286774D01*
X86445952Y-110270639D01*
X86471785Y-110259938D01*
X86519237Y-110250500D01*
X91083499Y-110250500D01*
X91083506Y-110250500D01*
X91375993Y-110211993D01*
X91660952Y-110135639D01*
X91933507Y-110022743D01*
X92188994Y-109875238D01*
X92423042Y-109695646D01*
X92631646Y-109487042D01*
X92811238Y-109252994D01*
X92860613Y-109167474D01*
X92911180Y-109119259D01*
X92979787Y-109106035D01*
X93044651Y-109132003D01*
X93075387Y-109167474D01*
X93124761Y-109252993D01*
X93304352Y-109487040D01*
X93304358Y-109487047D01*
X93512952Y-109695641D01*
X93512959Y-109695647D01*
X93747006Y-109875238D01*
X94002489Y-110022741D01*
X94002490Y-110022741D01*
X94002493Y-110022743D01*
X94275048Y-110135639D01*
X94560007Y-110211993D01*
X94852494Y-110250500D01*
X97705500Y-110250500D01*
X97772539Y-110270185D01*
X97818294Y-110322989D01*
X97829500Y-110374500D01*
X97829500Y-114625500D01*
X97809815Y-114692539D01*
X97757011Y-114738294D01*
X97705500Y-114749500D01*
X94852486Y-114749500D01*
X94574085Y-114786153D01*
X94560007Y-114788007D01*
X94335273Y-114848224D01*
X94275048Y-114864361D01*
X94275038Y-114864364D01*
X94002499Y-114977254D01*
X94002489Y-114977258D01*
X93747006Y-115124761D01*
X93512959Y-115304352D01*
X93512952Y-115304358D01*
X93304358Y-115512952D01*
X93304352Y-115512959D01*
X93124761Y-115747007D01*
X93075387Y-115832525D01*
X93024820Y-115880741D01*
X92956213Y-115893963D01*
X92891348Y-115867995D01*
X92860613Y-115832525D01*
X92832783Y-115784323D01*
X92811238Y-115747006D01*
X92635420Y-115517876D01*
X92631647Y-115512959D01*
X92631641Y-115512952D01*
X92423047Y-115304358D01*
X92423040Y-115304352D01*
X92188993Y-115124761D01*
X91933510Y-114977258D01*
X91933500Y-114977254D01*
X91660961Y-114864364D01*
X91660954Y-114864362D01*
X91660952Y-114864361D01*
X91375993Y-114788007D01*
X91327113Y-114781571D01*
X91083513Y-114749500D01*
X91083506Y-114749500D01*
X85708494Y-114749500D01*
X85708492Y-114749500D01*
X85674467Y-114753978D01*
X85674467Y-114753979D01*
X85640441Y-114758458D01*
X85416008Y-114788005D01*
X85191266Y-114848225D01*
X85191265Y-114848224D01*
X85131053Y-114864359D01*
X85131051Y-114864359D01*
X84863794Y-114975061D01*
X84816341Y-114984500D01*
X77589500Y-114984500D01*
X77522461Y-114964815D01*
X77476706Y-114912011D01*
X77465500Y-114860500D01*
X77465500Y-114660904D01*
X77459081Y-114568438D01*
X77459081Y-114568433D01*
X77459079Y-114568427D01*
X77459079Y-114568422D01*
X77408145Y-114351864D01*
X77408144Y-114351861D01*
X77408143Y-114351857D01*
X77318277Y-114148329D01*
X77192542Y-113964779D01*
X77192537Y-113964773D01*
X77035226Y-113807462D01*
X77035220Y-113807457D01*
X76851668Y-113681721D01*
X76648151Y-113591860D01*
X76648135Y-113591854D01*
X76431577Y-113540920D01*
X76431561Y-113540918D01*
X76339096Y-113534500D01*
X76339092Y-113534500D01*
X71190908Y-113534500D01*
X71190904Y-113534500D01*
X71098438Y-113540918D01*
X71098422Y-113540920D01*
X70881864Y-113591854D01*
X70881848Y-113591860D01*
X70678331Y-113681721D01*
X70494779Y-113807457D01*
X70494773Y-113807462D01*
X70337462Y-113964773D01*
X70337457Y-113964779D01*
X70211721Y-114148331D01*
X70121860Y-114351848D01*
X70121854Y-114351864D01*
X70070920Y-114568422D01*
X70070918Y-114568438D01*
X70064500Y-114660904D01*
X70064500Y-119809095D01*
X70070918Y-119901561D01*
X70070920Y-119901577D01*
X70121854Y-120118135D01*
X70121860Y-120118151D01*
X70211721Y-120321668D01*
X70337457Y-120505220D01*
X70337462Y-120505226D01*
X70494773Y-120662537D01*
X70494779Y-120662542D01*
X70678329Y-120788277D01*
X70678330Y-120788277D01*
X70678331Y-120788278D01*
X70844673Y-120861724D01*
X70881857Y-120878143D01*
X70881861Y-120878144D01*
X70881864Y-120878145D01*
X71098422Y-120929079D01*
X71098427Y-120929079D01*
X71098433Y-120929081D01*
X71149808Y-120932647D01*
X71190904Y-120935500D01*
X71190908Y-120935500D01*
X76339096Y-120935500D01*
X76376082Y-120932932D01*
X76431567Y-120929081D01*
X76431573Y-120929079D01*
X76431577Y-120929079D01*
X76648135Y-120878145D01*
X76648135Y-120878144D01*
X76648143Y-120878143D01*
X76851671Y-120788277D01*
X77035221Y-120662542D01*
X77192542Y-120505221D01*
X77318277Y-120321671D01*
X77408143Y-120118143D01*
X77459081Y-119901567D01*
X77465500Y-119809092D01*
X77465500Y-119609500D01*
X77485185Y-119542461D01*
X77537989Y-119496706D01*
X77589500Y-119485500D01*
X85768500Y-119485500D01*
X85768505Y-119485500D01*
X85768506Y-119485500D01*
X85802532Y-119481020D01*
X86060993Y-119446994D01*
X86285732Y-119386774D01*
X86345952Y-119370639D01*
X86525025Y-119296464D01*
X86613206Y-119259939D01*
X86660659Y-119250500D01*
X91083499Y-119250500D01*
X91083506Y-119250500D01*
X91375993Y-119211993D01*
X91660952Y-119135639D01*
X91933507Y-119022743D01*
X92188994Y-118875238D01*
X92423042Y-118695646D01*
X92631646Y-118487042D01*
X92811238Y-118252994D01*
X92860613Y-118167474D01*
X92911180Y-118119259D01*
X92979787Y-118106035D01*
X93044651Y-118132003D01*
X93075387Y-118167474D01*
X93124761Y-118252993D01*
X93304352Y-118487040D01*
X93304358Y-118487047D01*
X93512952Y-118695641D01*
X93512959Y-118695647D01*
X93747006Y-118875238D01*
X94002489Y-119022741D01*
X94002490Y-119022741D01*
X94002493Y-119022743D01*
X94275048Y-119135639D01*
X94560007Y-119211993D01*
X94852494Y-119250500D01*
X94852501Y-119250500D01*
X100227499Y-119250500D01*
X100227506Y-119250500D01*
X100519993Y-119211993D01*
X100804952Y-119135639D01*
X101077507Y-119022743D01*
X101332994Y-118875238D01*
X101567042Y-118695646D01*
X101775646Y-118487042D01*
X101955238Y-118252994D01*
X102102743Y-117997507D01*
X102215639Y-117724952D01*
X102291993Y-117439993D01*
X102330500Y-117147506D01*
X102330500Y-112079999D01*
X112169341Y-112079999D01*
X112169341Y-112080000D01*
X112189936Y-112315403D01*
X112189938Y-112315413D01*
X112251094Y-112543655D01*
X112251096Y-112543659D01*
X112251097Y-112543663D01*
X112350965Y-112757830D01*
X112350967Y-112757834D01*
X112459281Y-112912521D01*
X112486501Y-112951396D01*
X112486506Y-112951402D01*
X112608430Y-113073326D01*
X112641915Y-113134649D01*
X112636931Y-113204341D01*
X112595059Y-113260274D01*
X112564083Y-113277189D01*
X112432669Y-113326203D01*
X112432664Y-113326206D01*
X112317455Y-113412452D01*
X112317452Y-113412455D01*
X112231206Y-113527664D01*
X112231202Y-113527671D01*
X112180908Y-113662517D01*
X112174501Y-113722116D01*
X112174501Y-113722123D01*
X112174500Y-113722135D01*
X112174500Y-115517870D01*
X112174501Y-115517876D01*
X112180908Y-115577483D01*
X112231202Y-115712328D01*
X112231206Y-115712335D01*
X112317452Y-115827544D01*
X112317455Y-115827547D01*
X112432664Y-115913793D01*
X112432671Y-115913797D01*
X112567517Y-115964091D01*
X112567516Y-115964091D01*
X112574444Y-115964835D01*
X112627127Y-115970500D01*
X114422872Y-115970499D01*
X114482483Y-115964091D01*
X114617331Y-115913796D01*
X114732546Y-115827546D01*
X114818796Y-115712331D01*
X114869091Y-115577483D01*
X114875500Y-115517873D01*
X114875499Y-113722128D01*
X114869091Y-113662517D01*
X114842735Y-113591854D01*
X114818797Y-113527671D01*
X114818793Y-113527664D01*
X114732547Y-113412455D01*
X114732544Y-113412452D01*
X114617335Y-113326206D01*
X114617328Y-113326202D01*
X114485917Y-113277189D01*
X114429983Y-113235318D01*
X114405566Y-113169853D01*
X114420418Y-113101580D01*
X114441563Y-113073332D01*
X114563495Y-112951401D01*
X114699035Y-112757830D01*
X114798903Y-112543663D01*
X114860063Y-112315408D01*
X114880659Y-112080000D01*
X114860063Y-111844592D01*
X114798903Y-111616337D01*
X114699035Y-111402171D01*
X114563495Y-111208599D01*
X114563494Y-111208597D01*
X114396402Y-111041506D01*
X114396401Y-111041505D01*
X114210405Y-110911269D01*
X114166781Y-110856692D01*
X114159588Y-110787193D01*
X114191110Y-110724839D01*
X114210405Y-110708119D01*
X114396082Y-110578105D01*
X114563105Y-110411082D01*
X114698600Y-110217578D01*
X114798429Y-110003492D01*
X114798432Y-110003486D01*
X114855636Y-109790000D01*
X113958012Y-109790000D01*
X113990925Y-109732993D01*
X114025000Y-109605826D01*
X114025000Y-109474174D01*
X113990925Y-109347007D01*
X113958012Y-109290000D01*
X114855636Y-109290000D01*
X114855635Y-109289999D01*
X114798432Y-109076513D01*
X114798429Y-109076507D01*
X114698600Y-108862422D01*
X114698599Y-108862420D01*
X114563113Y-108668926D01*
X114563108Y-108668920D01*
X114396082Y-108501894D01*
X114202578Y-108366399D01*
X113988492Y-108266570D01*
X113988486Y-108266567D01*
X113775000Y-108209364D01*
X113775000Y-109106988D01*
X113717993Y-109074075D01*
X113590826Y-109040000D01*
X113459174Y-109040000D01*
X113332007Y-109074075D01*
X113275000Y-109106988D01*
X113275000Y-108209364D01*
X113274999Y-108209364D01*
X113061513Y-108266567D01*
X113061507Y-108266570D01*
X112847422Y-108366399D01*
X112847420Y-108366400D01*
X112653926Y-108501886D01*
X112653920Y-108501891D01*
X112486891Y-108668920D01*
X112486886Y-108668926D01*
X112351400Y-108862420D01*
X112351399Y-108862422D01*
X112251570Y-109076507D01*
X112251567Y-109076513D01*
X112194364Y-109289999D01*
X112194364Y-109290000D01*
X113091988Y-109290000D01*
X113059075Y-109347007D01*
X113025000Y-109474174D01*
X113025000Y-109605826D01*
X113059075Y-109732993D01*
X113091988Y-109790000D01*
X112194364Y-109790000D01*
X112251567Y-110003486D01*
X112251570Y-110003492D01*
X112351399Y-110217578D01*
X112486894Y-110411082D01*
X112653917Y-110578105D01*
X112839595Y-110708119D01*
X112883219Y-110762696D01*
X112890412Y-110832195D01*
X112858890Y-110894549D01*
X112839595Y-110911269D01*
X112653594Y-111041508D01*
X112486505Y-111208597D01*
X112350965Y-111402169D01*
X112350964Y-111402171D01*
X112251098Y-111616335D01*
X112251094Y-111616344D01*
X112189938Y-111844586D01*
X112189936Y-111844596D01*
X112169341Y-112079999D01*
X102330500Y-112079999D01*
X102330500Y-107852494D01*
X102291993Y-107560007D01*
X102252112Y-107411170D01*
X102248949Y-107362885D01*
X102250499Y-107351115D01*
X102250500Y-107351101D01*
X102250500Y-89852500D01*
X102250500Y-89852494D01*
X102219161Y-89614451D01*
X102218100Y-89598266D01*
X102218100Y-69558500D01*
X102218099Y-69558486D01*
X102196929Y-69397688D01*
X102179593Y-69266007D01*
X102103239Y-68981048D01*
X101990343Y-68708493D01*
X101842838Y-68453006D01*
X101663246Y-68218958D01*
X101663241Y-68218952D01*
X101454647Y-68010358D01*
X101454640Y-68010352D01*
X101220593Y-67830761D01*
X100965110Y-67683258D01*
X100965100Y-67683254D01*
X100692561Y-67570364D01*
X100692554Y-67570362D01*
X100692552Y-67570361D01*
X100407593Y-67494007D01*
X100358713Y-67487571D01*
X100115113Y-67455500D01*
X100115106Y-67455500D01*
X99820094Y-67455500D01*
X99820086Y-67455500D01*
X99541685Y-67492153D01*
X99527607Y-67494007D01*
X99373144Y-67535395D01*
X99242648Y-67570361D01*
X99242638Y-67570364D01*
X98970099Y-67683254D01*
X98970089Y-67683258D01*
X98714606Y-67830761D01*
X98480559Y-68010352D01*
X98480552Y-68010358D01*
X98271958Y-68218952D01*
X98271952Y-68218959D01*
X98092361Y-68453006D01*
X97944858Y-68708489D01*
X97944854Y-68708499D01*
X97831964Y-68981038D01*
X97831961Y-68981048D01*
X97755608Y-69266004D01*
X97755606Y-69266015D01*
X97717100Y-69558486D01*
X97717100Y-87625500D01*
X97697415Y-87692539D01*
X97644611Y-87738294D01*
X97593100Y-87749500D01*
X94772486Y-87749500D01*
X94515053Y-87783393D01*
X94480007Y-87788007D01*
X94195048Y-87864361D01*
X94195038Y-87864364D01*
X93922499Y-87977254D01*
X93922489Y-87977258D01*
X93667006Y-88124761D01*
X93432959Y-88304352D01*
X93432952Y-88304358D01*
X93224358Y-88512952D01*
X93224352Y-88512959D01*
X93044761Y-88747007D01*
X92995387Y-88832525D01*
X92944820Y-88880741D01*
X92876213Y-88893963D01*
X92811348Y-88867995D01*
X92780613Y-88832525D01*
X92731710Y-88747824D01*
X92731238Y-88747006D01*
X92551646Y-88512958D01*
X92551641Y-88512952D01*
X92343047Y-88304358D01*
X92343040Y-88304352D01*
X92108993Y-88124761D01*
X91853510Y-87977258D01*
X91853500Y-87977254D01*
X91580961Y-87864364D01*
X91580954Y-87864362D01*
X91580952Y-87864361D01*
X91295993Y-87788007D01*
X91247113Y-87781571D01*
X91003513Y-87749500D01*
X91003506Y-87749500D01*
X86266195Y-87749500D01*
X86234102Y-87745275D01*
X86150991Y-87723005D01*
X85919573Y-87692539D01*
X85892532Y-87688979D01*
X85892531Y-87688978D01*
X85858507Y-87684500D01*
X85858506Y-87684500D01*
X77589500Y-87684500D01*
X77522461Y-87664815D01*
X77476706Y-87612011D01*
X77465500Y-87560500D01*
X77465500Y-87360904D01*
X77459081Y-87268438D01*
X77459081Y-87268433D01*
X77459079Y-87268427D01*
X77459079Y-87268422D01*
X77408145Y-87051864D01*
X77408144Y-87051861D01*
X77408143Y-87051857D01*
X77318277Y-86848329D01*
X77192542Y-86664779D01*
X77192537Y-86664773D01*
X77035226Y-86507462D01*
X77035220Y-86507457D01*
X76851668Y-86381721D01*
X76648151Y-86291860D01*
X76648135Y-86291854D01*
X76431577Y-86240920D01*
X76431561Y-86240918D01*
X76339096Y-86234500D01*
X76339092Y-86234500D01*
X71190908Y-86234500D01*
X71190904Y-86234500D01*
X71098438Y-86240918D01*
X71098422Y-86240920D01*
X70881864Y-86291854D01*
X70881848Y-86291860D01*
X70678331Y-86381721D01*
X70494779Y-86507457D01*
X70494773Y-86507462D01*
X70337462Y-86664773D01*
X70337457Y-86664779D01*
X70211721Y-86848331D01*
X70121860Y-87051848D01*
X70121854Y-87051864D01*
X70070920Y-87268422D01*
X70070918Y-87268438D01*
X70064500Y-87360904D01*
X69663568Y-87360904D01*
X69654391Y-87257674D01*
X69654390Y-87257671D01*
X69598442Y-87062138D01*
X69504278Y-86881870D01*
X69375753Y-86724246D01*
X69218129Y-86595721D01*
X69037861Y-86501557D01*
X68842328Y-86445609D01*
X68842325Y-86445608D01*
X68723000Y-86435000D01*
X67165000Y-86435000D01*
X67165000Y-88935000D01*
X67000311Y-88935000D01*
X66846349Y-88823140D01*
X66664027Y-88730243D01*
X66469417Y-88667010D01*
X66267312Y-88635000D01*
X66062688Y-88635000D01*
X65860583Y-88667010D01*
X65665973Y-88730243D01*
X65483651Y-88823140D01*
X65318107Y-88943415D01*
X65173415Y-89088107D01*
X65053140Y-89253651D01*
X64960243Y-89435973D01*
X64897010Y-89630583D01*
X64865000Y-89832688D01*
X57000000Y-89832688D01*
X57000000Y-87376999D01*
X62665000Y-87376999D01*
X62665000Y-88935000D01*
X65165000Y-88935000D01*
X65165000Y-86435000D01*
X63606999Y-86435000D01*
X63487674Y-86445608D01*
X63487671Y-86445609D01*
X63292138Y-86501557D01*
X63111870Y-86595721D01*
X62954246Y-86724246D01*
X62825721Y-86881870D01*
X62731557Y-87062138D01*
X62675609Y-87257671D01*
X62675608Y-87257674D01*
X62665000Y-87376999D01*
X57000000Y-87376999D01*
X57000000Y-75700398D01*
X88680115Y-75700398D01*
X88680115Y-75700401D01*
X88698830Y-75962077D01*
X88737536Y-76140000D01*
X88754595Y-76218417D01*
X88755156Y-76219920D01*
X88846273Y-76464218D01*
X88846275Y-76464222D01*
X88971996Y-76694462D01*
X88972001Y-76694470D01*
X89129208Y-76904475D01*
X89129224Y-76904493D01*
X89314706Y-77089975D01*
X89314724Y-77089991D01*
X89524729Y-77247198D01*
X89524737Y-77247203D01*
X89754977Y-77372924D01*
X89754981Y-77372926D01*
X89754983Y-77372927D01*
X90000783Y-77464605D01*
X90128955Y-77492487D01*
X90257122Y-77520369D01*
X90257124Y-77520369D01*
X90257128Y-77520370D01*
X90489665Y-77537001D01*
X90518799Y-77539085D01*
X90518800Y-77539085D01*
X90518801Y-77539085D01*
X90545015Y-77537210D01*
X90780472Y-77520370D01*
X91036817Y-77464605D01*
X91282617Y-77372927D01*
X91512868Y-77247200D01*
X91722883Y-77089985D01*
X91908385Y-76904483D01*
X92065600Y-76694468D01*
X92191327Y-76464217D01*
X92283005Y-76218417D01*
X92338770Y-75962072D01*
X92357485Y-75700400D01*
X92338770Y-75438728D01*
X92327994Y-75389194D01*
X92283006Y-75182389D01*
X92283005Y-75182383D01*
X92191327Y-74936583D01*
X92168199Y-74894228D01*
X92065603Y-74706337D01*
X92065598Y-74706329D01*
X91908391Y-74496324D01*
X91908375Y-74496306D01*
X91722893Y-74310824D01*
X91722875Y-74310808D01*
X91512870Y-74153601D01*
X91512862Y-74153596D01*
X91282622Y-74027875D01*
X91282618Y-74027873D01*
X91189429Y-73993116D01*
X91036817Y-73936195D01*
X91036813Y-73936194D01*
X91036810Y-73936193D01*
X90780477Y-73880430D01*
X90518801Y-73861715D01*
X90518799Y-73861715D01*
X90257122Y-73880430D01*
X90000789Y-73936193D01*
X90000784Y-73936194D01*
X90000783Y-73936195D01*
X89941357Y-73958359D01*
X89754981Y-74027873D01*
X89754977Y-74027875D01*
X89524737Y-74153596D01*
X89524729Y-74153601D01*
X89314724Y-74310808D01*
X89314706Y-74310824D01*
X89129224Y-74496306D01*
X89129208Y-74496324D01*
X88972001Y-74706329D01*
X88971996Y-74706337D01*
X88846275Y-74936577D01*
X88846273Y-74936581D01*
X88799860Y-75061021D01*
X88759385Y-75169542D01*
X88754593Y-75182389D01*
X88698830Y-75438722D01*
X88680115Y-75700398D01*
X57000000Y-75700398D01*
X57000000Y-72058000D01*
X62700000Y-72058000D01*
X62710608Y-72177325D01*
X62710609Y-72177328D01*
X62766557Y-72372861D01*
X62860721Y-72553129D01*
X62989246Y-72710753D01*
X63146870Y-72839278D01*
X63327138Y-72933442D01*
X63522671Y-72989390D01*
X63522674Y-72989391D01*
X63641999Y-72999999D01*
X63642002Y-73000000D01*
X65200000Y-73000000D01*
X67200000Y-73000000D01*
X68757998Y-73000000D01*
X68758000Y-72999999D01*
X68877325Y-72989391D01*
X68877328Y-72989390D01*
X69072861Y-72933442D01*
X69253129Y-72839278D01*
X69410753Y-72710753D01*
X69539278Y-72553129D01*
X69633442Y-72372861D01*
X69689390Y-72177328D01*
X69689391Y-72177325D01*
X69699999Y-72058000D01*
X69700000Y-72057998D01*
X69700000Y-70500000D01*
X67200000Y-70500000D01*
X67200000Y-73000000D01*
X65200000Y-73000000D01*
X65200000Y-70500000D01*
X62700000Y-70500000D01*
X62700000Y-72058000D01*
X57000000Y-72058000D01*
X57000000Y-69397688D01*
X64900000Y-69397688D01*
X64900000Y-69602312D01*
X64932010Y-69804417D01*
X64995243Y-69999027D01*
X65088140Y-70181349D01*
X65208415Y-70346893D01*
X65353107Y-70491585D01*
X65518651Y-70611860D01*
X65700973Y-70704757D01*
X65895583Y-70767990D01*
X66097688Y-70800000D01*
X66302312Y-70800000D01*
X66504417Y-70767990D01*
X66699027Y-70704757D01*
X66881349Y-70611860D01*
X67046893Y-70491585D01*
X67191585Y-70346893D01*
X67311860Y-70181349D01*
X67404757Y-69999027D01*
X67467990Y-69804417D01*
X67500000Y-69602312D01*
X67500000Y-69397688D01*
X67467990Y-69195583D01*
X67404757Y-69000973D01*
X67311860Y-68818651D01*
X67191585Y-68653107D01*
X67046893Y-68508415D01*
X67035311Y-68500000D01*
X67200000Y-68500000D01*
X69700000Y-68500000D01*
X69700000Y-66942002D01*
X69699999Y-66941999D01*
X69698568Y-66925904D01*
X70099500Y-66925904D01*
X70099500Y-72074095D01*
X70105918Y-72166561D01*
X70105920Y-72166577D01*
X70156854Y-72383135D01*
X70156860Y-72383151D01*
X70246721Y-72586668D01*
X70372457Y-72770220D01*
X70372462Y-72770226D01*
X70529773Y-72927537D01*
X70529779Y-72927542D01*
X70713329Y-73053277D01*
X70713330Y-73053277D01*
X70713331Y-73053278D01*
X70731889Y-73061472D01*
X70916857Y-73143143D01*
X70916861Y-73143144D01*
X70916864Y-73143145D01*
X71133422Y-73194079D01*
X71133427Y-73194079D01*
X71133433Y-73194081D01*
X71184808Y-73197647D01*
X71225904Y-73200500D01*
X71225908Y-73200500D01*
X76374096Y-73200500D01*
X76411082Y-73197932D01*
X76466567Y-73194081D01*
X76466573Y-73194079D01*
X76466577Y-73194079D01*
X76683135Y-73143145D01*
X76683135Y-73143144D01*
X76683143Y-73143143D01*
X76886671Y-73053277D01*
X77070221Y-72927542D01*
X77227542Y-72770221D01*
X77353277Y-72586671D01*
X77443143Y-72383143D01*
X77475041Y-72247521D01*
X77494079Y-72166577D01*
X77494079Y-72166573D01*
X77494081Y-72166567D01*
X77500500Y-72074092D01*
X77500500Y-71874500D01*
X77520185Y-71807461D01*
X77572989Y-71761706D01*
X77624500Y-71750500D01*
X85177099Y-71750500D01*
X85177106Y-71750500D01*
X85469593Y-71711993D01*
X85754552Y-71635639D01*
X86027107Y-71522743D01*
X86282594Y-71375238D01*
X86516642Y-71195646D01*
X86725246Y-70987042D01*
X86904838Y-70752994D01*
X87052343Y-70497507D01*
X87165239Y-70224952D01*
X87241593Y-69939993D01*
X87280100Y-69647506D01*
X87280100Y-69352494D01*
X87273136Y-69299598D01*
X88680115Y-69299598D01*
X88680115Y-69299601D01*
X88698830Y-69561277D01*
X88751723Y-69804417D01*
X88754595Y-69817617D01*
X88800235Y-69939984D01*
X88846273Y-70063418D01*
X88846275Y-70063422D01*
X88971996Y-70293662D01*
X88972001Y-70293670D01*
X89129208Y-70503675D01*
X89129224Y-70503693D01*
X89314706Y-70689175D01*
X89314724Y-70689191D01*
X89524729Y-70846398D01*
X89524737Y-70846403D01*
X89754977Y-70972124D01*
X89754981Y-70972126D01*
X89754983Y-70972127D01*
X90000783Y-71063805D01*
X90128955Y-71091687D01*
X90257122Y-71119569D01*
X90257124Y-71119569D01*
X90257128Y-71119570D01*
X90489665Y-71136201D01*
X90518799Y-71138285D01*
X90518800Y-71138285D01*
X90518801Y-71138285D01*
X90545015Y-71136410D01*
X90780472Y-71119570D01*
X91036817Y-71063805D01*
X91282617Y-70972127D01*
X91512868Y-70846400D01*
X91722883Y-70689185D01*
X91908385Y-70503683D01*
X92065600Y-70293668D01*
X92191327Y-70063417D01*
X92283005Y-69817617D01*
X92338770Y-69561272D01*
X92357485Y-69299600D01*
X92338770Y-69037928D01*
X92326396Y-68981048D01*
X92283006Y-68781589D01*
X92283005Y-68781583D01*
X92203018Y-68567128D01*
X92198034Y-68497436D01*
X92231517Y-68436116D01*
X93530816Y-67136819D01*
X93592139Y-67103334D01*
X93618497Y-67100500D01*
X104775500Y-67100500D01*
X104842539Y-67120185D01*
X104888294Y-67172989D01*
X104899500Y-67224500D01*
X104899500Y-105413330D01*
X104899499Y-105413348D01*
X104899499Y-105579054D01*
X104899498Y-105579054D01*
X104911944Y-105625500D01*
X104940423Y-105731785D01*
X104950651Y-105749500D01*
X105019477Y-105868712D01*
X105019481Y-105868717D01*
X105138349Y-105987585D01*
X105138355Y-105987590D01*
X106694298Y-107543533D01*
X106727783Y-107604856D01*
X106729837Y-107617330D01*
X106739630Y-107704249D01*
X106799210Y-107874521D01*
X106832669Y-107927770D01*
X106895184Y-108027262D01*
X107022738Y-108154816D01*
X107109551Y-108209364D01*
X107170620Y-108247737D01*
X107175478Y-108250789D01*
X107220578Y-108266570D01*
X107345745Y-108310368D01*
X107345750Y-108310369D01*
X107524996Y-108330565D01*
X107525000Y-108330565D01*
X107525004Y-108330565D01*
X107704249Y-108310369D01*
X107704252Y-108310368D01*
X107704255Y-108310368D01*
X107874522Y-108250789D01*
X108027262Y-108154816D01*
X108154816Y-108027262D01*
X108250789Y-107874522D01*
X108310368Y-107704255D01*
X108313185Y-107679254D01*
X108330565Y-107525003D01*
X108330565Y-107524996D01*
X108310369Y-107345750D01*
X108310368Y-107345745D01*
X108301617Y-107320737D01*
X108250789Y-107175478D01*
X108235080Y-107150478D01*
X108211582Y-107113080D01*
X108154816Y-107022738D01*
X108027262Y-106895184D01*
X107983991Y-106867995D01*
X107874521Y-106799210D01*
X107704249Y-106739630D01*
X107617330Y-106729837D01*
X107552916Y-106702770D01*
X107543533Y-106694298D01*
X106136819Y-105287584D01*
X106103334Y-105226261D01*
X106100500Y-105199903D01*
X106100500Y-73999998D01*
X108219838Y-73999998D01*
X108219838Y-74000001D01*
X108238450Y-74212741D01*
X108238452Y-74212752D01*
X108293721Y-74419022D01*
X108293723Y-74419026D01*
X108293724Y-74419030D01*
X108329759Y-74496306D01*
X108383977Y-74612578D01*
X108506469Y-74787517D01*
X108506470Y-74787518D01*
X108506471Y-74787519D01*
X108613182Y-74894230D01*
X108646666Y-74955551D01*
X108649500Y-74981910D01*
X108649500Y-95163330D01*
X108649499Y-95163348D01*
X108649499Y-95329054D01*
X108649498Y-95329054D01*
X108690423Y-95481785D01*
X108719358Y-95531900D01*
X108719359Y-95531904D01*
X108719360Y-95531904D01*
X108759573Y-95601557D01*
X108769479Y-95618714D01*
X108769481Y-95618717D01*
X108888349Y-95737585D01*
X108888355Y-95737590D01*
X121919298Y-108768533D01*
X121952783Y-108829856D01*
X121954837Y-108842330D01*
X121964630Y-108929249D01*
X122024210Y-109099521D01*
X122041216Y-109126585D01*
X122120184Y-109252262D01*
X122247738Y-109379816D01*
X122335563Y-109435000D01*
X122397907Y-109474174D01*
X122400478Y-109475789D01*
X122432652Y-109487047D01*
X122570745Y-109535368D01*
X122570750Y-109535369D01*
X122749996Y-109555565D01*
X122750000Y-109555565D01*
X122750004Y-109555565D01*
X122929249Y-109535369D01*
X122929252Y-109535368D01*
X122929255Y-109535368D01*
X123099522Y-109475789D01*
X123252262Y-109379816D01*
X123379816Y-109252262D01*
X123475789Y-109099522D01*
X123535368Y-108929255D01*
X123535369Y-108929249D01*
X123555565Y-108750003D01*
X123555565Y-108749996D01*
X123535369Y-108570750D01*
X123535368Y-108570745D01*
X123475788Y-108400476D01*
X123379815Y-108247737D01*
X123252262Y-108120184D01*
X123099521Y-108024210D01*
X122929249Y-107964630D01*
X122842330Y-107954837D01*
X122777916Y-107927770D01*
X122768533Y-107919298D01*
X110499227Y-95649992D01*
X116871557Y-95649992D01*
X116871557Y-95650003D01*
X116892090Y-95897810D01*
X116892092Y-95897822D01*
X116953136Y-96138879D01*
X117053026Y-96366604D01*
X117189033Y-96574780D01*
X117189036Y-96574783D01*
X117357456Y-96757736D01*
X117553691Y-96910472D01*
X117772390Y-97028826D01*
X118007586Y-97109569D01*
X118252865Y-97150498D01*
X118501535Y-97150498D01*
X118746814Y-97109569D01*
X118982010Y-97028826D01*
X119200709Y-96910472D01*
X119285142Y-96844754D01*
X119350130Y-96819114D01*
X119418671Y-96832680D01*
X119468996Y-96881148D01*
X119474856Y-96892800D01*
X119573026Y-97116605D01*
X119709033Y-97324781D01*
X119709036Y-97324784D01*
X119877456Y-97507737D01*
X120073691Y-97660473D01*
X120292390Y-97778827D01*
X120527586Y-97859570D01*
X120772865Y-97900499D01*
X121021535Y-97900499D01*
X121266814Y-97859570D01*
X121502010Y-97778827D01*
X121720709Y-97660473D01*
X121916944Y-97507737D01*
X122085364Y-97324784D01*
X122221373Y-97116606D01*
X122321263Y-96888880D01*
X122382308Y-96647820D01*
X122382309Y-96647811D01*
X122402843Y-96400004D01*
X122402843Y-96399993D01*
X122382309Y-96152186D01*
X122382307Y-96152174D01*
X122321263Y-95911117D01*
X122221373Y-95683392D01*
X122085366Y-95475216D01*
X122018136Y-95402185D01*
X121916944Y-95292261D01*
X121720709Y-95139525D01*
X121720707Y-95139524D01*
X121720706Y-95139523D01*
X121502011Y-95021171D01*
X121502002Y-95021168D01*
X121266816Y-94940428D01*
X121021535Y-94899499D01*
X120772865Y-94899499D01*
X120527583Y-94940428D01*
X120292397Y-95021168D01*
X120292388Y-95021171D01*
X120073691Y-95139524D01*
X120073688Y-95139527D01*
X119989260Y-95205239D01*
X119924266Y-95230881D01*
X119855726Y-95217314D01*
X119805402Y-95168845D01*
X119799543Y-95157195D01*
X119701373Y-94933391D01*
X119565366Y-94725215D01*
X119543757Y-94701742D01*
X119396944Y-94542260D01*
X119200709Y-94389524D01*
X119200707Y-94389523D01*
X119200706Y-94389522D01*
X118982011Y-94271170D01*
X118982002Y-94271167D01*
X118746816Y-94190427D01*
X118501535Y-94149498D01*
X118252865Y-94149498D01*
X118007583Y-94190427D01*
X117772397Y-94271167D01*
X117772388Y-94271170D01*
X117553693Y-94389522D01*
X117357457Y-94542259D01*
X117189033Y-94725215D01*
X117053026Y-94933391D01*
X116953136Y-95161116D01*
X116892092Y-95402173D01*
X116892090Y-95402185D01*
X116871557Y-95649992D01*
X110499227Y-95649992D01*
X109886819Y-95037584D01*
X109853334Y-94976261D01*
X109850500Y-94949903D01*
X109850500Y-90949994D01*
X116872059Y-90949994D01*
X116872059Y-90950005D01*
X116892585Y-91197729D01*
X116892587Y-91197738D01*
X116953612Y-91438717D01*
X117053466Y-91666364D01*
X117153764Y-91819882D01*
X117812587Y-91161059D01*
X117818089Y-91181591D01*
X117897081Y-91318408D01*
X118008792Y-91430119D01*
X118145609Y-91509111D01*
X118166140Y-91514612D01*
X117507142Y-92173609D01*
X117553968Y-92210055D01*
X117553970Y-92210056D01*
X117772585Y-92328364D01*
X117772596Y-92328369D01*
X118007706Y-92409083D01*
X118252907Y-92450000D01*
X118501493Y-92450000D01*
X118746693Y-92409083D01*
X118981803Y-92328369D01*
X118981814Y-92328364D01*
X119200428Y-92210057D01*
X119200431Y-92210055D01*
X119247256Y-92173609D01*
X118588259Y-91514612D01*
X118608791Y-91509111D01*
X118745608Y-91430119D01*
X118857319Y-91318408D01*
X118936311Y-91181591D01*
X118941812Y-91161059D01*
X119600634Y-91819882D01*
X119700931Y-91666369D01*
X119800787Y-91438717D01*
X119861812Y-91197738D01*
X119861814Y-91197729D01*
X119882341Y-90950005D01*
X119882341Y-90949994D01*
X119861814Y-90702270D01*
X119861812Y-90702261D01*
X119800787Y-90461282D01*
X119700932Y-90233631D01*
X119651326Y-90157703D01*
X119631138Y-90090813D01*
X119650319Y-90023628D01*
X119702778Y-89977478D01*
X119771860Y-89967015D01*
X119775483Y-89967563D01*
X119972864Y-90000500D01*
X119972865Y-90000500D01*
X120221534Y-90000500D01*
X120466813Y-89959571D01*
X120702009Y-89878828D01*
X120920708Y-89760474D01*
X120981944Y-89712811D01*
X121046935Y-89687170D01*
X121115475Y-89700736D01*
X121165800Y-89749204D01*
X121178310Y-89780226D01*
X121193136Y-89838773D01*
X121293025Y-90066498D01*
X121429032Y-90274674D01*
X121429035Y-90274677D01*
X121597455Y-90457630D01*
X121793690Y-90610366D01*
X122012389Y-90728720D01*
X122247585Y-90809463D01*
X122492864Y-90850392D01*
X122741534Y-90850392D01*
X122986813Y-90809463D01*
X123222009Y-90728720D01*
X123440708Y-90610366D01*
X123636943Y-90457630D01*
X123805363Y-90274677D01*
X123941372Y-90066499D01*
X124041262Y-89838773D01*
X124102307Y-89597713D01*
X124104468Y-89571632D01*
X124122842Y-89349897D01*
X124122842Y-89349886D01*
X124102308Y-89102079D01*
X124102306Y-89102067D01*
X124041262Y-88861010D01*
X123941372Y-88633285D01*
X123805365Y-88425109D01*
X123783756Y-88401636D01*
X123636943Y-88242154D01*
X123440708Y-88089418D01*
X123440706Y-88089417D01*
X123440705Y-88089416D01*
X123222010Y-87971064D01*
X123222001Y-87971061D01*
X122986815Y-87890321D01*
X122741534Y-87849392D01*
X122492864Y-87849392D01*
X122247582Y-87890321D01*
X122012396Y-87971061D01*
X122012387Y-87971064D01*
X121793690Y-88089417D01*
X121793687Y-88089420D01*
X121732454Y-88137079D01*
X121667460Y-88162721D01*
X121598920Y-88149154D01*
X121548596Y-88100685D01*
X121536088Y-88069668D01*
X121521262Y-88011119D01*
X121421372Y-87783393D01*
X121396468Y-87745275D01*
X121285365Y-87575217D01*
X121263756Y-87551744D01*
X121116943Y-87392262D01*
X120920708Y-87239526D01*
X120920706Y-87239525D01*
X120920705Y-87239524D01*
X120702010Y-87121172D01*
X120702001Y-87121169D01*
X120466815Y-87040429D01*
X120221534Y-86999500D01*
X119972864Y-86999500D01*
X119727582Y-87040429D01*
X119492396Y-87121169D01*
X119492387Y-87121172D01*
X119273692Y-87239524D01*
X119077456Y-87392261D01*
X118909032Y-87575217D01*
X118773025Y-87783393D01*
X118673135Y-88011118D01*
X118612091Y-88252175D01*
X118612089Y-88252187D01*
X118591556Y-88499994D01*
X118591556Y-88500005D01*
X118612089Y-88747812D01*
X118612091Y-88747824D01*
X118673135Y-88988881D01*
X118773025Y-89216606D01*
X118822774Y-89292753D01*
X118842962Y-89359643D01*
X118823781Y-89426828D01*
X118771322Y-89472978D01*
X118702240Y-89483441D01*
X118698556Y-89482883D01*
X118501494Y-89450000D01*
X118252907Y-89450000D01*
X118007706Y-89490916D01*
X117772596Y-89571630D01*
X117772590Y-89571632D01*
X117553961Y-89689949D01*
X117507142Y-89726388D01*
X117507142Y-89726390D01*
X118166140Y-90385387D01*
X118145609Y-90390889D01*
X118008792Y-90469881D01*
X117897081Y-90581592D01*
X117818089Y-90718409D01*
X117812587Y-90738939D01*
X117153764Y-90080116D01*
X117053467Y-90233632D01*
X116953612Y-90461282D01*
X116892587Y-90702261D01*
X116892585Y-90702270D01*
X116872059Y-90949994D01*
X109850500Y-90949994D01*
X109850500Y-76539997D01*
X110760340Y-76539997D01*
X110760340Y-76540002D01*
X110778944Y-76752654D01*
X110778945Y-76752662D01*
X110834194Y-76958853D01*
X110834197Y-76958859D01*
X110924413Y-77152329D01*
X110963415Y-77208030D01*
X111585000Y-76586445D01*
X111585000Y-76592661D01*
X111612259Y-76694394D01*
X111664920Y-76785606D01*
X111739394Y-76860080D01*
X111830606Y-76912741D01*
X111932339Y-76940000D01*
X111938553Y-76940000D01*
X111316968Y-77561584D01*
X111372663Y-77600582D01*
X111372669Y-77600586D01*
X111566140Y-77690802D01*
X111566146Y-77690805D01*
X111772337Y-77746054D01*
X111772345Y-77746055D01*
X111984998Y-77764660D01*
X111985002Y-77764660D01*
X112197654Y-77746055D01*
X112197662Y-77746054D01*
X112403853Y-77690805D01*
X112403864Y-77690801D01*
X112597325Y-77600589D01*
X112653030Y-77561583D01*
X112031448Y-76940000D01*
X112037661Y-76940000D01*
X112139394Y-76912741D01*
X112230606Y-76860080D01*
X112305080Y-76785606D01*
X112357741Y-76694394D01*
X112385000Y-76592661D01*
X112385000Y-76586446D01*
X113006583Y-77208029D01*
X113045589Y-77152325D01*
X113135801Y-76958864D01*
X113135805Y-76958853D01*
X113191054Y-76752662D01*
X113191055Y-76752654D01*
X113209660Y-76540002D01*
X113209660Y-76539997D01*
X113191055Y-76327345D01*
X113191054Y-76327337D01*
X113135805Y-76121146D01*
X113135802Y-76121140D01*
X113045586Y-75927669D01*
X113045582Y-75927663D01*
X113006584Y-75871968D01*
X112385000Y-76493552D01*
X112385000Y-76487339D01*
X112357741Y-76385606D01*
X112305080Y-76294394D01*
X112230606Y-76219920D01*
X112139394Y-76167259D01*
X112037661Y-76140000D01*
X112031447Y-76140000D01*
X112653030Y-75518415D01*
X112597329Y-75479413D01*
X112403859Y-75389197D01*
X112403853Y-75389194D01*
X112197662Y-75333945D01*
X112197654Y-75333944D01*
X111985002Y-75315340D01*
X111984998Y-75315340D01*
X111772345Y-75333944D01*
X111772337Y-75333945D01*
X111566146Y-75389194D01*
X111566140Y-75389197D01*
X111372671Y-75479412D01*
X111372669Y-75479413D01*
X111316969Y-75518415D01*
X111316968Y-75518415D01*
X111938554Y-76140000D01*
X111932339Y-76140000D01*
X111830606Y-76167259D01*
X111739394Y-76219920D01*
X111664920Y-76294394D01*
X111612259Y-76385606D01*
X111585000Y-76487339D01*
X111585000Y-76493553D01*
X110963415Y-75871968D01*
X110963415Y-75871969D01*
X110924413Y-75927669D01*
X110924412Y-75927671D01*
X110834197Y-76121140D01*
X110834194Y-76121146D01*
X110778945Y-76327337D01*
X110778944Y-76327345D01*
X110760340Y-76539997D01*
X109850500Y-76539997D01*
X109850500Y-75236581D01*
X109870185Y-75169542D01*
X109922096Y-75124199D01*
X110057581Y-75061021D01*
X110232519Y-74938529D01*
X110383529Y-74787519D01*
X110506021Y-74612581D01*
X110596276Y-74419030D01*
X110651549Y-74212747D01*
X110670162Y-74000000D01*
X110651549Y-73787253D01*
X110596276Y-73580970D01*
X110506021Y-73387419D01*
X110383529Y-73212481D01*
X110383527Y-73212478D01*
X110232521Y-73061472D01*
X110057578Y-72938977D01*
X110057579Y-72938977D01*
X109928547Y-72878809D01*
X109864030Y-72848724D01*
X109864026Y-72848723D01*
X109864022Y-72848721D01*
X109657752Y-72793452D01*
X109657748Y-72793451D01*
X109657747Y-72793451D01*
X109657746Y-72793450D01*
X109657741Y-72793450D01*
X109445002Y-72774838D01*
X109444998Y-72774838D01*
X109232258Y-72793450D01*
X109232247Y-72793452D01*
X109025977Y-72848721D01*
X109025968Y-72848725D01*
X108832421Y-72938977D01*
X108657478Y-73061472D01*
X108506472Y-73212478D01*
X108383977Y-73387421D01*
X108293725Y-73580968D01*
X108293721Y-73580977D01*
X108238452Y-73787247D01*
X108238450Y-73787258D01*
X108219838Y-73999998D01*
X106100500Y-73999998D01*
X106100500Y-71459998D01*
X110759838Y-71459998D01*
X110759838Y-71460001D01*
X110778450Y-71672741D01*
X110778452Y-71672752D01*
X110833721Y-71879022D01*
X110833723Y-71879026D01*
X110833724Y-71879030D01*
X110876171Y-71970058D01*
X110923977Y-72072578D01*
X111046472Y-72247521D01*
X111197478Y-72398527D01*
X111197481Y-72398529D01*
X111372419Y-72521021D01*
X111372421Y-72521022D01*
X111372420Y-72521022D01*
X111436936Y-72551106D01*
X111565970Y-72611276D01*
X111772253Y-72666549D01*
X111924215Y-72679844D01*
X111984998Y-72685162D01*
X111985000Y-72685162D01*
X111985002Y-72685162D01*
X112038186Y-72680508D01*
X112197747Y-72666549D01*
X112404030Y-72611276D01*
X112597581Y-72521021D01*
X112772519Y-72398529D01*
X112923529Y-72247519D01*
X113046021Y-72072581D01*
X113136276Y-71879030D01*
X113191549Y-71672747D01*
X113210162Y-71460000D01*
X113191549Y-71247253D01*
X113136276Y-71040970D01*
X113046021Y-70847419D01*
X112923529Y-70672481D01*
X112923527Y-70672478D01*
X112772521Y-70521472D01*
X112597578Y-70398977D01*
X112597579Y-70398977D01*
X112468547Y-70338809D01*
X112404030Y-70308724D01*
X112404026Y-70308723D01*
X112404022Y-70308721D01*
X112197752Y-70253452D01*
X112197748Y-70253451D01*
X112197747Y-70253451D01*
X112197746Y-70253450D01*
X112197741Y-70253450D01*
X111985002Y-70234838D01*
X111984998Y-70234838D01*
X111772258Y-70253450D01*
X111772247Y-70253452D01*
X111565977Y-70308721D01*
X111565968Y-70308725D01*
X111372421Y-70398977D01*
X111197478Y-70521472D01*
X111046472Y-70672478D01*
X110923977Y-70847421D01*
X110833725Y-71040968D01*
X110833721Y-71040977D01*
X110778452Y-71247247D01*
X110778450Y-71247258D01*
X110759838Y-71459998D01*
X106100500Y-71459998D01*
X106100500Y-67224500D01*
X106120185Y-67157461D01*
X106172989Y-67111706D01*
X106224500Y-67100500D01*
X122417588Y-67100500D01*
X122484627Y-67120185D01*
X122494903Y-67127555D01*
X122497736Y-67129814D01*
X122497738Y-67129816D01*
X122611270Y-67201152D01*
X122648426Y-67224500D01*
X122650478Y-67225789D01*
X122820745Y-67285368D01*
X122820750Y-67285369D01*
X122999996Y-67305565D01*
X123000000Y-67305565D01*
X123000004Y-67305565D01*
X123179249Y-67285369D01*
X123179252Y-67285368D01*
X123179255Y-67285368D01*
X123349522Y-67225789D01*
X123502262Y-67129816D01*
X123629816Y-67002262D01*
X123725789Y-66849522D01*
X123785368Y-66679255D01*
X123805565Y-66500000D01*
X123785368Y-66320745D01*
X123725789Y-66150478D01*
X123629816Y-65997738D01*
X123502262Y-65870184D01*
X123481052Y-65856857D01*
X123349523Y-65774211D01*
X123179254Y-65714631D01*
X123179249Y-65714630D01*
X123000004Y-65694435D01*
X122999996Y-65694435D01*
X122820750Y-65714630D01*
X122820745Y-65714631D01*
X122650476Y-65774211D01*
X122497736Y-65870185D01*
X122494903Y-65872445D01*
X122492724Y-65873334D01*
X122491842Y-65873889D01*
X122491744Y-65873734D01*
X122430217Y-65898855D01*
X122417588Y-65899500D01*
X105579057Y-65899500D01*
X93397457Y-65899500D01*
X93239342Y-65899500D01*
X93086615Y-65940423D01*
X93086614Y-65940423D01*
X93086612Y-65940424D01*
X93086609Y-65940425D01*
X93051466Y-65960716D01*
X93051464Y-65960717D01*
X92949690Y-66019475D01*
X92949682Y-66019481D01*
X92837878Y-66131286D01*
X91382283Y-67586880D01*
X91320960Y-67620365D01*
X91251269Y-67615381D01*
X91036817Y-67535395D01*
X91036813Y-67535394D01*
X91036810Y-67535393D01*
X90780477Y-67479630D01*
X90518801Y-67460915D01*
X90518799Y-67460915D01*
X90257122Y-67479630D01*
X90000789Y-67535393D01*
X90000784Y-67535394D01*
X90000783Y-67535395D01*
X89941357Y-67557559D01*
X89754981Y-67627073D01*
X89754977Y-67627075D01*
X89524737Y-67752796D01*
X89524729Y-67752801D01*
X89314724Y-67910008D01*
X89314706Y-67910024D01*
X89129224Y-68095506D01*
X89129208Y-68095524D01*
X88972001Y-68305529D01*
X88971996Y-68305537D01*
X88846275Y-68535777D01*
X88846273Y-68535781D01*
X88781857Y-68708489D01*
X88757033Y-68775048D01*
X88754593Y-68781589D01*
X88698830Y-69037922D01*
X88680115Y-69299598D01*
X87273136Y-69299598D01*
X87241593Y-69060007D01*
X87165239Y-68775048D01*
X87052343Y-68502493D01*
X87049423Y-68497436D01*
X86904838Y-68247006D01*
X86725247Y-68012959D01*
X86725241Y-68012952D01*
X86516647Y-67804358D01*
X86516640Y-67804352D01*
X86282593Y-67624761D01*
X86027110Y-67477258D01*
X86027100Y-67477254D01*
X85754561Y-67364364D01*
X85754554Y-67364362D01*
X85754552Y-67364361D01*
X85469593Y-67288007D01*
X85420713Y-67281571D01*
X85177113Y-67249500D01*
X85177106Y-67249500D01*
X77624500Y-67249500D01*
X77557461Y-67229815D01*
X77511706Y-67177011D01*
X77500500Y-67125500D01*
X77500500Y-66925904D01*
X77494081Y-66833438D01*
X77494081Y-66833433D01*
X77494079Y-66833427D01*
X77494079Y-66833422D01*
X77443145Y-66616864D01*
X77443144Y-66616861D01*
X77443143Y-66616857D01*
X77353277Y-66413329D01*
X77227542Y-66229779D01*
X77227537Y-66229773D01*
X77070226Y-66072462D01*
X77070220Y-66072457D01*
X76886668Y-65946721D01*
X76683151Y-65856860D01*
X76683135Y-65856854D01*
X76466577Y-65805920D01*
X76466561Y-65805918D01*
X76374096Y-65799500D01*
X76374092Y-65799500D01*
X71225908Y-65799500D01*
X71225904Y-65799500D01*
X71133438Y-65805918D01*
X71133422Y-65805920D01*
X70916864Y-65856854D01*
X70916848Y-65856860D01*
X70713331Y-65946721D01*
X70529779Y-66072457D01*
X70529773Y-66072462D01*
X70372462Y-66229773D01*
X70372457Y-66229779D01*
X70246721Y-66413331D01*
X70156860Y-66616848D01*
X70156854Y-66616864D01*
X70105920Y-66833422D01*
X70105918Y-66833438D01*
X70099500Y-66925904D01*
X69698568Y-66925904D01*
X69689391Y-66822674D01*
X69689390Y-66822671D01*
X69633442Y-66627138D01*
X69539278Y-66446870D01*
X69410753Y-66289246D01*
X69253129Y-66160721D01*
X69072861Y-66066557D01*
X68877328Y-66010609D01*
X68877325Y-66010608D01*
X68758000Y-66000000D01*
X67200000Y-66000000D01*
X67200000Y-68500000D01*
X67035311Y-68500000D01*
X66881349Y-68388140D01*
X66699027Y-68295243D01*
X66504417Y-68232010D01*
X66302312Y-68200000D01*
X66097688Y-68200000D01*
X65895583Y-68232010D01*
X65700973Y-68295243D01*
X65518651Y-68388140D01*
X65353107Y-68508415D01*
X65208415Y-68653107D01*
X65088140Y-68818651D01*
X64995243Y-69000973D01*
X64932010Y-69195583D01*
X64900000Y-69397688D01*
X57000000Y-69397688D01*
X57000000Y-66941999D01*
X62700000Y-66941999D01*
X62700000Y-68500000D01*
X65200000Y-68500000D01*
X65200000Y-66000000D01*
X63641999Y-66000000D01*
X63522674Y-66010608D01*
X63522671Y-66010609D01*
X63327138Y-66066557D01*
X63146870Y-66160721D01*
X62989246Y-66289246D01*
X62860721Y-66446870D01*
X62766557Y-66627138D01*
X62710609Y-66822671D01*
X62710608Y-66822674D01*
X62700000Y-66941999D01*
X57000000Y-66941999D01*
X57000000Y-56999997D01*
X58744726Y-56999997D01*
X58744726Y-57000002D01*
X58763808Y-57351954D01*
X58820833Y-57699793D01*
X58820834Y-57699796D01*
X58915126Y-58039408D01*
X58915127Y-58039410D01*
X59045588Y-58366844D01*
X59045597Y-58366862D01*
X59210695Y-58678269D01*
X59408498Y-58970006D01*
X59408505Y-58970016D01*
X59636685Y-59238649D01*
X59636686Y-59238650D01*
X59892580Y-59481046D01*
X60173182Y-59694354D01*
X60475202Y-59876074D01*
X60475206Y-59876075D01*
X60475210Y-59876078D01*
X60795088Y-60024070D01*
X60795092Y-60024070D01*
X60795099Y-60024074D01*
X61129122Y-60136619D01*
X61473355Y-60212391D01*
X61823763Y-60250500D01*
X61823769Y-60250500D01*
X62176231Y-60250500D01*
X62176237Y-60250500D01*
X62526645Y-60212391D01*
X62870878Y-60136619D01*
X63204901Y-60024074D01*
X63204908Y-60024070D01*
X63204911Y-60024070D01*
X63524789Y-59876078D01*
X63524798Y-59876074D01*
X63826818Y-59694354D01*
X64107420Y-59481046D01*
X64363314Y-59238650D01*
X64591501Y-58970008D01*
X64789305Y-58678269D01*
X64954407Y-58366854D01*
X65084871Y-58039414D01*
X65179168Y-57699788D01*
X65236191Y-57351957D01*
X65255274Y-57000000D01*
X65236191Y-56648043D01*
X65179168Y-56300212D01*
X65136704Y-56147271D01*
X65084873Y-55960591D01*
X65084872Y-55960589D01*
X64954411Y-55633155D01*
X64954402Y-55633137D01*
X64830433Y-55399307D01*
X64789305Y-55321731D01*
X64591501Y-55029992D01*
X64591497Y-55029987D01*
X64591494Y-55029983D01*
X64566023Y-54999996D01*
X119694435Y-54999996D01*
X119694435Y-55000003D01*
X119714630Y-55179249D01*
X119714631Y-55179254D01*
X119774211Y-55349524D01*
X119805493Y-55399307D01*
X119824500Y-55465280D01*
X119824500Y-60066535D01*
X119850457Y-60197028D01*
X119850459Y-60197036D01*
X119901378Y-60319965D01*
X119901383Y-60319975D01*
X119975304Y-60430605D01*
X119975307Y-60430609D01*
X127788181Y-68243482D01*
X127821666Y-68304805D01*
X127824500Y-68331163D01*
X127824500Y-85534719D01*
X127805494Y-85600690D01*
X127774209Y-85650479D01*
X127714633Y-85820737D01*
X127714630Y-85820750D01*
X127694435Y-85999996D01*
X127694435Y-86000003D01*
X127714630Y-86179249D01*
X127714631Y-86179254D01*
X127774211Y-86349524D01*
X127805493Y-86399307D01*
X127824500Y-86465280D01*
X127824500Y-103200500D01*
X127804815Y-103267539D01*
X127752011Y-103313294D01*
X127700500Y-103324500D01*
X122465280Y-103324500D01*
X122399307Y-103305493D01*
X122349524Y-103274211D01*
X122179254Y-103214631D01*
X122179249Y-103214630D01*
X122000004Y-103194435D01*
X121999996Y-103194435D01*
X121820750Y-103214630D01*
X121820745Y-103214631D01*
X121650476Y-103274211D01*
X121497737Y-103370184D01*
X121370184Y-103497737D01*
X121274211Y-103650476D01*
X121214631Y-103820745D01*
X121214630Y-103820750D01*
X121194435Y-103999996D01*
X121194435Y-104000003D01*
X121214630Y-104179249D01*
X121214631Y-104179254D01*
X121274211Y-104349523D01*
X121331640Y-104440920D01*
X121370184Y-104502262D01*
X121497738Y-104629816D01*
X121650478Y-104725789D01*
X121713922Y-104747989D01*
X121820745Y-104785368D01*
X121820750Y-104785369D01*
X121999996Y-104805565D01*
X122000000Y-104805565D01*
X122000004Y-104805565D01*
X122179249Y-104785369D01*
X122179252Y-104785368D01*
X122179255Y-104785368D01*
X122349522Y-104725789D01*
X122378696Y-104707458D01*
X122399307Y-104694507D01*
X122465280Y-104675500D01*
X127700500Y-104675500D01*
X127767539Y-104695185D01*
X127813294Y-104747989D01*
X127824500Y-104799500D01*
X127824500Y-107034719D01*
X127805494Y-107100690D01*
X127774209Y-107150479D01*
X127714633Y-107320737D01*
X127714630Y-107320750D01*
X127694435Y-107499996D01*
X127694435Y-107500003D01*
X127714630Y-107679249D01*
X127714631Y-107679254D01*
X127774211Y-107849524D01*
X127805493Y-107899307D01*
X127824500Y-107965280D01*
X127824500Y-117284719D01*
X127805494Y-117350690D01*
X127774209Y-117400479D01*
X127714633Y-117570737D01*
X127714630Y-117570750D01*
X127694435Y-117749996D01*
X127694435Y-117750003D01*
X127714630Y-117929249D01*
X127714631Y-117929254D01*
X127774211Y-118099524D01*
X127805493Y-118149307D01*
X127824500Y-118215280D01*
X127824500Y-120418836D01*
X127804815Y-120485875D01*
X127788181Y-120506517D01*
X126605096Y-121689601D01*
X126558370Y-121718961D01*
X126400480Y-121774209D01*
X126247737Y-121870184D01*
X126120184Y-121997737D01*
X126024211Y-122150476D01*
X125964631Y-122320745D01*
X125964630Y-122320750D01*
X125944435Y-122499996D01*
X125944435Y-122500003D01*
X125964630Y-122679249D01*
X125964631Y-122679254D01*
X126024211Y-122849523D01*
X126120184Y-123002262D01*
X126247738Y-123129816D01*
X126400478Y-123225789D01*
X126570745Y-123285368D01*
X126570750Y-123285369D01*
X126749996Y-123305565D01*
X126750000Y-123305565D01*
X126750004Y-123305565D01*
X126929249Y-123285369D01*
X126929252Y-123285368D01*
X126929255Y-123285368D01*
X127099522Y-123225789D01*
X127252262Y-123129816D01*
X127379816Y-123002262D01*
X127475789Y-122849522D01*
X127531039Y-122691623D01*
X127560397Y-122644902D01*
X129024695Y-121180606D01*
X129098620Y-121069969D01*
X129113534Y-121033962D01*
X129149541Y-120947036D01*
X129175500Y-120816531D01*
X129175500Y-120683469D01*
X129175500Y-118215280D01*
X129194507Y-118149307D01*
X129225788Y-118099524D01*
X129225789Y-118099522D01*
X129285368Y-117929255D01*
X129305565Y-117750000D01*
X129303765Y-117734027D01*
X129285369Y-117570750D01*
X129285366Y-117570737D01*
X129225790Y-117400479D01*
X129194506Y-117350690D01*
X129175500Y-117284719D01*
X129175500Y-107965280D01*
X129194507Y-107899307D01*
X129225788Y-107849524D01*
X129285368Y-107679254D01*
X129285369Y-107679249D01*
X129305565Y-107500003D01*
X129305565Y-107499996D01*
X129285369Y-107320750D01*
X129285366Y-107320737D01*
X129225790Y-107150479D01*
X129194506Y-107100690D01*
X129175500Y-107034719D01*
X129175500Y-86465280D01*
X129194507Y-86399307D01*
X129225788Y-86349524D01*
X129225789Y-86349522D01*
X129285368Y-86179255D01*
X129305565Y-86000000D01*
X129285368Y-85820745D01*
X129285367Y-85820743D01*
X129285366Y-85820737D01*
X129225790Y-85650479D01*
X129194506Y-85600690D01*
X129175500Y-85534719D01*
X129175500Y-67933466D01*
X129149541Y-67802969D01*
X129149540Y-67802968D01*
X129149540Y-67802964D01*
X129098620Y-67680031D01*
X129055422Y-67615381D01*
X129024698Y-67569398D01*
X129024697Y-67569397D01*
X129024695Y-67569394D01*
X128930606Y-67475305D01*
X121211819Y-59756518D01*
X121178334Y-59695195D01*
X121175500Y-59668837D01*
X121175500Y-56999997D01*
X123244726Y-56999997D01*
X123244726Y-57000002D01*
X123263808Y-57351954D01*
X123320833Y-57699793D01*
X123320834Y-57699796D01*
X123415126Y-58039408D01*
X123415127Y-58039410D01*
X123545588Y-58366844D01*
X123545597Y-58366862D01*
X123710695Y-58678269D01*
X123908498Y-58970006D01*
X123908505Y-58970016D01*
X124136685Y-59238649D01*
X124136686Y-59238650D01*
X124392580Y-59481046D01*
X124673182Y-59694354D01*
X124975202Y-59876074D01*
X124975206Y-59876075D01*
X124975210Y-59876078D01*
X125295088Y-60024070D01*
X125295092Y-60024070D01*
X125295099Y-60024074D01*
X125629122Y-60136619D01*
X125973355Y-60212391D01*
X126323763Y-60250500D01*
X126323769Y-60250500D01*
X126676231Y-60250500D01*
X126676237Y-60250500D01*
X127026645Y-60212391D01*
X127370878Y-60136619D01*
X127704901Y-60024074D01*
X127704908Y-60024070D01*
X127704911Y-60024070D01*
X128024789Y-59876078D01*
X128024798Y-59876074D01*
X128326818Y-59694354D01*
X128607420Y-59481046D01*
X128863314Y-59238650D01*
X129091501Y-58970008D01*
X129289305Y-58678269D01*
X129454407Y-58366854D01*
X129584871Y-58039414D01*
X129679168Y-57699788D01*
X129736191Y-57351957D01*
X129755274Y-57000000D01*
X129736191Y-56648043D01*
X129679168Y-56300212D01*
X129636704Y-56147271D01*
X129584873Y-55960591D01*
X129584872Y-55960589D01*
X129454411Y-55633155D01*
X129454402Y-55633137D01*
X129330433Y-55399307D01*
X129289305Y-55321731D01*
X129091501Y-55029992D01*
X129091497Y-55029987D01*
X129091494Y-55029983D01*
X128863314Y-54761350D01*
X128746268Y-54650478D01*
X128607420Y-54518954D01*
X128607413Y-54518948D01*
X128607410Y-54518946D01*
X128326815Y-54305644D01*
X128024802Y-54123928D01*
X128024789Y-54123921D01*
X127704911Y-53975929D01*
X127704906Y-53975928D01*
X127704903Y-53975927D01*
X127704901Y-53975926D01*
X127598432Y-53940052D01*
X127370880Y-53863381D01*
X127026643Y-53787608D01*
X126676238Y-53749500D01*
X126676237Y-53749500D01*
X126323763Y-53749500D01*
X126323761Y-53749500D01*
X125973356Y-53787608D01*
X125629119Y-53863381D01*
X125295093Y-53975928D01*
X125295088Y-53975929D01*
X124975210Y-54123921D01*
X124975197Y-54123928D01*
X124673184Y-54305644D01*
X124392589Y-54518946D01*
X124392580Y-54518954D01*
X124136685Y-54761350D01*
X123908505Y-55029983D01*
X123908498Y-55029993D01*
X123710695Y-55321730D01*
X123545597Y-55633137D01*
X123545588Y-55633155D01*
X123415127Y-55960589D01*
X123415126Y-55960591D01*
X123320834Y-56300203D01*
X123320833Y-56300206D01*
X123263808Y-56648045D01*
X123244726Y-56999997D01*
X121175500Y-56999997D01*
X121175500Y-55465280D01*
X121194507Y-55399307D01*
X121225788Y-55349524D01*
X121285368Y-55179254D01*
X121285369Y-55179249D01*
X121305565Y-55000003D01*
X121305565Y-54999996D01*
X121285369Y-54820750D01*
X121285368Y-54820745D01*
X121225788Y-54650476D01*
X121129815Y-54497737D01*
X121002262Y-54370184D01*
X120849523Y-54274211D01*
X120679254Y-54214631D01*
X120679249Y-54214630D01*
X120500004Y-54194435D01*
X120499996Y-54194435D01*
X120320750Y-54214630D01*
X120320745Y-54214631D01*
X120150476Y-54274211D01*
X119997737Y-54370184D01*
X119870184Y-54497737D01*
X119774211Y-54650476D01*
X119714631Y-54820745D01*
X119714630Y-54820750D01*
X119694435Y-54999996D01*
X64566023Y-54999996D01*
X64363314Y-54761350D01*
X64246268Y-54650478D01*
X64107420Y-54518954D01*
X64107413Y-54518948D01*
X64107410Y-54518946D01*
X63826815Y-54305644D01*
X63524802Y-54123928D01*
X63524789Y-54123921D01*
X63204911Y-53975929D01*
X63204906Y-53975928D01*
X63204903Y-53975927D01*
X63204901Y-53975926D01*
X63098432Y-53940052D01*
X62870880Y-53863381D01*
X62526643Y-53787608D01*
X62176238Y-53749500D01*
X62176237Y-53749500D01*
X61823763Y-53749500D01*
X61823761Y-53749500D01*
X61473356Y-53787608D01*
X61129119Y-53863381D01*
X60795093Y-53975928D01*
X60795088Y-53975929D01*
X60475210Y-54123921D01*
X60475197Y-54123928D01*
X60173184Y-54305644D01*
X59892589Y-54518946D01*
X59892580Y-54518954D01*
X59636685Y-54761350D01*
X59408505Y-55029983D01*
X59408498Y-55029993D01*
X59210695Y-55321730D01*
X59045597Y-55633137D01*
X59045588Y-55633155D01*
X58915127Y-55960589D01*
X58915126Y-55960591D01*
X58820834Y-56300203D01*
X58820833Y-56300206D01*
X58763808Y-56648045D01*
X58744726Y-56999997D01*
X57000000Y-56999997D01*
X57000000Y-51124000D01*
X57019685Y-51056961D01*
X57072489Y-51011206D01*
X57124000Y-51000000D01*
X131376000Y-51000000D01*
X131443039Y-51019685D01*
G37*
%TD.AperFunction*%
%TD*%
M02*
