%TF.GenerationSoftware,KiCad,Pcbnew,8.0.3*%
%TF.CreationDate,2024-06-23T19:26:25-05:00*%
%TF.ProjectId,Vehicle Power Switch,56656869-636c-4652-9050-6f7765722053,rev?*%
%TF.SameCoordinates,Original*%
%TF.FileFunction,Legend,Top*%
%TF.FilePolarity,Positive*%
%FSLAX46Y46*%
G04 Gerber Fmt 4.6, Leading zero omitted, Abs format (unit mm)*
G04 Created by KiCad (PCBNEW 8.0.3) date 2024-06-23 19:26:25*
%MOMM*%
%LPD*%
G01*
G04 APERTURE LIST*
%ADD10C,0.250000*%
%ADD11C,0.150000*%
%ADD12C,0.100000*%
%ADD13C,0.120000*%
%ADD14C,0.152400*%
G04 APERTURE END LIST*
D10*
X68288282Y-125592050D02*
X68721615Y-126892050D01*
X68721615Y-126892050D02*
X69154949Y-125592050D01*
X70083520Y-126830146D02*
X69959711Y-126892050D01*
X69959711Y-126892050D02*
X69712092Y-126892050D01*
X69712092Y-126892050D02*
X69588282Y-126830146D01*
X69588282Y-126830146D02*
X69526378Y-126706336D01*
X69526378Y-126706336D02*
X69526378Y-126211098D01*
X69526378Y-126211098D02*
X69588282Y-126087288D01*
X69588282Y-126087288D02*
X69712092Y-126025384D01*
X69712092Y-126025384D02*
X69959711Y-126025384D01*
X69959711Y-126025384D02*
X70083520Y-126087288D01*
X70083520Y-126087288D02*
X70145425Y-126211098D01*
X70145425Y-126211098D02*
X70145425Y-126334907D01*
X70145425Y-126334907D02*
X69526378Y-126458717D01*
X70702568Y-126892050D02*
X70702568Y-125592050D01*
X71259711Y-126892050D02*
X71259711Y-126211098D01*
X71259711Y-126211098D02*
X71197806Y-126087288D01*
X71197806Y-126087288D02*
X71073997Y-126025384D01*
X71073997Y-126025384D02*
X70888283Y-126025384D01*
X70888283Y-126025384D02*
X70764473Y-126087288D01*
X70764473Y-126087288D02*
X70702568Y-126149193D01*
X71878758Y-126892050D02*
X71878758Y-126025384D01*
X71878758Y-125592050D02*
X71816854Y-125653955D01*
X71816854Y-125653955D02*
X71878758Y-125715860D01*
X71878758Y-125715860D02*
X71940663Y-125653955D01*
X71940663Y-125653955D02*
X71878758Y-125592050D01*
X71878758Y-125592050D02*
X71878758Y-125715860D01*
X73054949Y-126830146D02*
X72931140Y-126892050D01*
X72931140Y-126892050D02*
X72683521Y-126892050D01*
X72683521Y-126892050D02*
X72559711Y-126830146D01*
X72559711Y-126830146D02*
X72497806Y-126768241D01*
X72497806Y-126768241D02*
X72435902Y-126644431D01*
X72435902Y-126644431D02*
X72435902Y-126273003D01*
X72435902Y-126273003D02*
X72497806Y-126149193D01*
X72497806Y-126149193D02*
X72559711Y-126087288D01*
X72559711Y-126087288D02*
X72683521Y-126025384D01*
X72683521Y-126025384D02*
X72931140Y-126025384D01*
X72931140Y-126025384D02*
X73054949Y-126087288D01*
X73797807Y-126892050D02*
X73673997Y-126830146D01*
X73673997Y-126830146D02*
X73612092Y-126706336D01*
X73612092Y-126706336D02*
X73612092Y-125592050D01*
X74788282Y-126830146D02*
X74664473Y-126892050D01*
X74664473Y-126892050D02*
X74416854Y-126892050D01*
X74416854Y-126892050D02*
X74293044Y-126830146D01*
X74293044Y-126830146D02*
X74231140Y-126706336D01*
X74231140Y-126706336D02*
X74231140Y-126211098D01*
X74231140Y-126211098D02*
X74293044Y-126087288D01*
X74293044Y-126087288D02*
X74416854Y-126025384D01*
X74416854Y-126025384D02*
X74664473Y-126025384D01*
X74664473Y-126025384D02*
X74788282Y-126087288D01*
X74788282Y-126087288D02*
X74850187Y-126211098D01*
X74850187Y-126211098D02*
X74850187Y-126334907D01*
X74850187Y-126334907D02*
X74231140Y-126458717D01*
X76397806Y-126892050D02*
X76397806Y-125592050D01*
X76397806Y-125592050D02*
X76893044Y-125592050D01*
X76893044Y-125592050D02*
X77016854Y-125653955D01*
X77016854Y-125653955D02*
X77078759Y-125715860D01*
X77078759Y-125715860D02*
X77140663Y-125839669D01*
X77140663Y-125839669D02*
X77140663Y-126025384D01*
X77140663Y-126025384D02*
X77078759Y-126149193D01*
X77078759Y-126149193D02*
X77016854Y-126211098D01*
X77016854Y-126211098D02*
X76893044Y-126273003D01*
X76893044Y-126273003D02*
X76397806Y-126273003D01*
X77883521Y-126892050D02*
X77759711Y-126830146D01*
X77759711Y-126830146D02*
X77697806Y-126768241D01*
X77697806Y-126768241D02*
X77635902Y-126644431D01*
X77635902Y-126644431D02*
X77635902Y-126273003D01*
X77635902Y-126273003D02*
X77697806Y-126149193D01*
X77697806Y-126149193D02*
X77759711Y-126087288D01*
X77759711Y-126087288D02*
X77883521Y-126025384D01*
X77883521Y-126025384D02*
X78069235Y-126025384D01*
X78069235Y-126025384D02*
X78193044Y-126087288D01*
X78193044Y-126087288D02*
X78254949Y-126149193D01*
X78254949Y-126149193D02*
X78316854Y-126273003D01*
X78316854Y-126273003D02*
X78316854Y-126644431D01*
X78316854Y-126644431D02*
X78254949Y-126768241D01*
X78254949Y-126768241D02*
X78193044Y-126830146D01*
X78193044Y-126830146D02*
X78069235Y-126892050D01*
X78069235Y-126892050D02*
X77883521Y-126892050D01*
X78750187Y-126025384D02*
X78997806Y-126892050D01*
X78997806Y-126892050D02*
X79245425Y-126273003D01*
X79245425Y-126273003D02*
X79493044Y-126892050D01*
X79493044Y-126892050D02*
X79740663Y-126025384D01*
X80731139Y-126830146D02*
X80607330Y-126892050D01*
X80607330Y-126892050D02*
X80359711Y-126892050D01*
X80359711Y-126892050D02*
X80235901Y-126830146D01*
X80235901Y-126830146D02*
X80173997Y-126706336D01*
X80173997Y-126706336D02*
X80173997Y-126211098D01*
X80173997Y-126211098D02*
X80235901Y-126087288D01*
X80235901Y-126087288D02*
X80359711Y-126025384D01*
X80359711Y-126025384D02*
X80607330Y-126025384D01*
X80607330Y-126025384D02*
X80731139Y-126087288D01*
X80731139Y-126087288D02*
X80793044Y-126211098D01*
X80793044Y-126211098D02*
X80793044Y-126334907D01*
X80793044Y-126334907D02*
X80173997Y-126458717D01*
X81350187Y-126892050D02*
X81350187Y-126025384D01*
X81350187Y-126273003D02*
X81412092Y-126149193D01*
X81412092Y-126149193D02*
X81473997Y-126087288D01*
X81473997Y-126087288D02*
X81597806Y-126025384D01*
X81597806Y-126025384D02*
X81721616Y-126025384D01*
X83083521Y-126830146D02*
X83269235Y-126892050D01*
X83269235Y-126892050D02*
X83578759Y-126892050D01*
X83578759Y-126892050D02*
X83702568Y-126830146D01*
X83702568Y-126830146D02*
X83764473Y-126768241D01*
X83764473Y-126768241D02*
X83826378Y-126644431D01*
X83826378Y-126644431D02*
X83826378Y-126520622D01*
X83826378Y-126520622D02*
X83764473Y-126396812D01*
X83764473Y-126396812D02*
X83702568Y-126334907D01*
X83702568Y-126334907D02*
X83578759Y-126273003D01*
X83578759Y-126273003D02*
X83331140Y-126211098D01*
X83331140Y-126211098D02*
X83207330Y-126149193D01*
X83207330Y-126149193D02*
X83145425Y-126087288D01*
X83145425Y-126087288D02*
X83083521Y-125963479D01*
X83083521Y-125963479D02*
X83083521Y-125839669D01*
X83083521Y-125839669D02*
X83145425Y-125715860D01*
X83145425Y-125715860D02*
X83207330Y-125653955D01*
X83207330Y-125653955D02*
X83331140Y-125592050D01*
X83331140Y-125592050D02*
X83640663Y-125592050D01*
X83640663Y-125592050D02*
X83826378Y-125653955D01*
X84259711Y-126025384D02*
X84507330Y-126892050D01*
X84507330Y-126892050D02*
X84754949Y-126273003D01*
X84754949Y-126273003D02*
X85002568Y-126892050D01*
X85002568Y-126892050D02*
X85250187Y-126025384D01*
X85745425Y-126892050D02*
X85745425Y-126025384D01*
X85745425Y-125592050D02*
X85683521Y-125653955D01*
X85683521Y-125653955D02*
X85745425Y-125715860D01*
X85745425Y-125715860D02*
X85807330Y-125653955D01*
X85807330Y-125653955D02*
X85745425Y-125592050D01*
X85745425Y-125592050D02*
X85745425Y-125715860D01*
X86178759Y-126025384D02*
X86673997Y-126025384D01*
X86364473Y-125592050D02*
X86364473Y-126706336D01*
X86364473Y-126706336D02*
X86426378Y-126830146D01*
X86426378Y-126830146D02*
X86550188Y-126892050D01*
X86550188Y-126892050D02*
X86673997Y-126892050D01*
X87664473Y-126830146D02*
X87540664Y-126892050D01*
X87540664Y-126892050D02*
X87293045Y-126892050D01*
X87293045Y-126892050D02*
X87169235Y-126830146D01*
X87169235Y-126830146D02*
X87107330Y-126768241D01*
X87107330Y-126768241D02*
X87045426Y-126644431D01*
X87045426Y-126644431D02*
X87045426Y-126273003D01*
X87045426Y-126273003D02*
X87107330Y-126149193D01*
X87107330Y-126149193D02*
X87169235Y-126087288D01*
X87169235Y-126087288D02*
X87293045Y-126025384D01*
X87293045Y-126025384D02*
X87540664Y-126025384D01*
X87540664Y-126025384D02*
X87664473Y-126087288D01*
X88221616Y-126892050D02*
X88221616Y-125592050D01*
X88778759Y-126892050D02*
X88778759Y-126211098D01*
X88778759Y-126211098D02*
X88716854Y-126087288D01*
X88716854Y-126087288D02*
X88593045Y-126025384D01*
X88593045Y-126025384D02*
X88407331Y-126025384D01*
X88407331Y-126025384D02*
X88283521Y-126087288D01*
X88283521Y-126087288D02*
X88221616Y-126149193D01*
X90264473Y-126025384D02*
X90573997Y-126892050D01*
X90573997Y-126892050D02*
X90883520Y-126025384D01*
X91316854Y-125715860D02*
X91378758Y-125653955D01*
X91378758Y-125653955D02*
X91502568Y-125592050D01*
X91502568Y-125592050D02*
X91812092Y-125592050D01*
X91812092Y-125592050D02*
X91935901Y-125653955D01*
X91935901Y-125653955D02*
X91997806Y-125715860D01*
X91997806Y-125715860D02*
X92059711Y-125839669D01*
X92059711Y-125839669D02*
X92059711Y-125963479D01*
X92059711Y-125963479D02*
X91997806Y-126149193D01*
X91997806Y-126149193D02*
X91254949Y-126892050D01*
X91254949Y-126892050D02*
X92059711Y-126892050D01*
X92616853Y-126768241D02*
X92678758Y-126830146D01*
X92678758Y-126830146D02*
X92616853Y-126892050D01*
X92616853Y-126892050D02*
X92554949Y-126830146D01*
X92554949Y-126830146D02*
X92616853Y-126768241D01*
X92616853Y-126768241D02*
X92616853Y-126892050D01*
X93483520Y-125592050D02*
X93607330Y-125592050D01*
X93607330Y-125592050D02*
X93731139Y-125653955D01*
X93731139Y-125653955D02*
X93793044Y-125715860D01*
X93793044Y-125715860D02*
X93854949Y-125839669D01*
X93854949Y-125839669D02*
X93916854Y-126087288D01*
X93916854Y-126087288D02*
X93916854Y-126396812D01*
X93916854Y-126396812D02*
X93854949Y-126644431D01*
X93854949Y-126644431D02*
X93793044Y-126768241D01*
X93793044Y-126768241D02*
X93731139Y-126830146D01*
X93731139Y-126830146D02*
X93607330Y-126892050D01*
X93607330Y-126892050D02*
X93483520Y-126892050D01*
X93483520Y-126892050D02*
X93359711Y-126830146D01*
X93359711Y-126830146D02*
X93297806Y-126768241D01*
X93297806Y-126768241D02*
X93235901Y-126644431D01*
X93235901Y-126644431D02*
X93173997Y-126396812D01*
X93173997Y-126396812D02*
X93173997Y-126087288D01*
X93173997Y-126087288D02*
X93235901Y-125839669D01*
X93235901Y-125839669D02*
X93297806Y-125715860D01*
X93297806Y-125715860D02*
X93359711Y-125653955D01*
X93359711Y-125653955D02*
X93483520Y-125592050D01*
X68350187Y-127684977D02*
X69216853Y-127684977D01*
X69216853Y-127684977D02*
X68350187Y-128984977D01*
X68350187Y-128984977D02*
X69216853Y-128984977D01*
X70269234Y-128984977D02*
X70269234Y-128304025D01*
X70269234Y-128304025D02*
X70207329Y-128180215D01*
X70207329Y-128180215D02*
X70083520Y-128118311D01*
X70083520Y-128118311D02*
X69835901Y-128118311D01*
X69835901Y-128118311D02*
X69712091Y-128180215D01*
X70269234Y-128923073D02*
X70145425Y-128984977D01*
X70145425Y-128984977D02*
X69835901Y-128984977D01*
X69835901Y-128984977D02*
X69712091Y-128923073D01*
X69712091Y-128923073D02*
X69650187Y-128799263D01*
X69650187Y-128799263D02*
X69650187Y-128675453D01*
X69650187Y-128675453D02*
X69712091Y-128551644D01*
X69712091Y-128551644D02*
X69835901Y-128489739D01*
X69835901Y-128489739D02*
X70145425Y-128489739D01*
X70145425Y-128489739D02*
X70269234Y-128427834D01*
X71445424Y-128923073D02*
X71321615Y-128984977D01*
X71321615Y-128984977D02*
X71073996Y-128984977D01*
X71073996Y-128984977D02*
X70950186Y-128923073D01*
X70950186Y-128923073D02*
X70888281Y-128861168D01*
X70888281Y-128861168D02*
X70826377Y-128737358D01*
X70826377Y-128737358D02*
X70826377Y-128365930D01*
X70826377Y-128365930D02*
X70888281Y-128242120D01*
X70888281Y-128242120D02*
X70950186Y-128180215D01*
X70950186Y-128180215D02*
X71073996Y-128118311D01*
X71073996Y-128118311D02*
X71321615Y-128118311D01*
X71321615Y-128118311D02*
X71445424Y-128180215D01*
X72002567Y-128984977D02*
X72002567Y-127684977D01*
X72126377Y-128489739D02*
X72497805Y-128984977D01*
X72497805Y-128118311D02*
X72002567Y-128613549D01*
X74788281Y-128861168D02*
X74726377Y-128923073D01*
X74726377Y-128923073D02*
X74540662Y-128984977D01*
X74540662Y-128984977D02*
X74416853Y-128984977D01*
X74416853Y-128984977D02*
X74231139Y-128923073D01*
X74231139Y-128923073D02*
X74107329Y-128799263D01*
X74107329Y-128799263D02*
X74045424Y-128675453D01*
X74045424Y-128675453D02*
X73983520Y-128427834D01*
X73983520Y-128427834D02*
X73983520Y-128242120D01*
X73983520Y-128242120D02*
X74045424Y-127994501D01*
X74045424Y-127994501D02*
X74107329Y-127870692D01*
X74107329Y-127870692D02*
X74231139Y-127746882D01*
X74231139Y-127746882D02*
X74416853Y-127684977D01*
X74416853Y-127684977D02*
X74540662Y-127684977D01*
X74540662Y-127684977D02*
X74726377Y-127746882D01*
X74726377Y-127746882D02*
X74788281Y-127808787D01*
X75531139Y-128984977D02*
X75407329Y-128923073D01*
X75407329Y-128923073D02*
X75345424Y-128799263D01*
X75345424Y-128799263D02*
X75345424Y-127684977D01*
X76212091Y-128984977D02*
X76088281Y-128923073D01*
X76088281Y-128923073D02*
X76026376Y-128861168D01*
X76026376Y-128861168D02*
X75964472Y-128737358D01*
X75964472Y-128737358D02*
X75964472Y-128365930D01*
X75964472Y-128365930D02*
X76026376Y-128242120D01*
X76026376Y-128242120D02*
X76088281Y-128180215D01*
X76088281Y-128180215D02*
X76212091Y-128118311D01*
X76212091Y-128118311D02*
X76397805Y-128118311D01*
X76397805Y-128118311D02*
X76521614Y-128180215D01*
X76521614Y-128180215D02*
X76583519Y-128242120D01*
X76583519Y-128242120D02*
X76645424Y-128365930D01*
X76645424Y-128365930D02*
X76645424Y-128737358D01*
X76645424Y-128737358D02*
X76583519Y-128861168D01*
X76583519Y-128861168D02*
X76521614Y-128923073D01*
X76521614Y-128923073D02*
X76397805Y-128984977D01*
X76397805Y-128984977D02*
X76212091Y-128984977D01*
X77202566Y-128984977D02*
X77202566Y-127684977D01*
X77202566Y-128180215D02*
X77326376Y-128118311D01*
X77326376Y-128118311D02*
X77573995Y-128118311D01*
X77573995Y-128118311D02*
X77697804Y-128180215D01*
X77697804Y-128180215D02*
X77759709Y-128242120D01*
X77759709Y-128242120D02*
X77821614Y-128365930D01*
X77821614Y-128365930D02*
X77821614Y-128737358D01*
X77821614Y-128737358D02*
X77759709Y-128861168D01*
X77759709Y-128861168D02*
X77697804Y-128923073D01*
X77697804Y-128923073D02*
X77573995Y-128984977D01*
X77573995Y-128984977D02*
X77326376Y-128984977D01*
X77326376Y-128984977D02*
X77202566Y-128923073D01*
X78873994Y-128923073D02*
X78750185Y-128984977D01*
X78750185Y-128984977D02*
X78502566Y-128984977D01*
X78502566Y-128984977D02*
X78378756Y-128923073D01*
X78378756Y-128923073D02*
X78316852Y-128799263D01*
X78316852Y-128799263D02*
X78316852Y-128304025D01*
X78316852Y-128304025D02*
X78378756Y-128180215D01*
X78378756Y-128180215D02*
X78502566Y-128118311D01*
X78502566Y-128118311D02*
X78750185Y-128118311D01*
X78750185Y-128118311D02*
X78873994Y-128180215D01*
X78873994Y-128180215D02*
X78935899Y-128304025D01*
X78935899Y-128304025D02*
X78935899Y-128427834D01*
X78935899Y-128427834D02*
X78316852Y-128551644D01*
X79431138Y-128923073D02*
X79554947Y-128984977D01*
X79554947Y-128984977D02*
X79802566Y-128984977D01*
X79802566Y-128984977D02*
X79926376Y-128923073D01*
X79926376Y-128923073D02*
X79988280Y-128799263D01*
X79988280Y-128799263D02*
X79988280Y-128737358D01*
X79988280Y-128737358D02*
X79926376Y-128613549D01*
X79926376Y-128613549D02*
X79802566Y-128551644D01*
X79802566Y-128551644D02*
X79616852Y-128551644D01*
X79616852Y-128551644D02*
X79493042Y-128489739D01*
X79493042Y-128489739D02*
X79431138Y-128365930D01*
X79431138Y-128365930D02*
X79431138Y-128304025D01*
X79431138Y-128304025D02*
X79493042Y-128180215D01*
X79493042Y-128180215D02*
X79616852Y-128118311D01*
X79616852Y-128118311D02*
X79802566Y-128118311D01*
X79802566Y-128118311D02*
X79926376Y-128180215D01*
X80607328Y-128923073D02*
X80607328Y-128984977D01*
X80607328Y-128984977D02*
X80545423Y-129108787D01*
X80545423Y-129108787D02*
X80483519Y-129170692D01*
X82031138Y-127684977D02*
X82340662Y-128984977D01*
X82340662Y-128984977D02*
X82588281Y-128056406D01*
X82588281Y-128056406D02*
X82835900Y-128984977D01*
X82835900Y-128984977D02*
X83145424Y-127684977D01*
X83888280Y-127684977D02*
X84012090Y-127684977D01*
X84012090Y-127684977D02*
X84135899Y-127746882D01*
X84135899Y-127746882D02*
X84197804Y-127808787D01*
X84197804Y-127808787D02*
X84259709Y-127932596D01*
X84259709Y-127932596D02*
X84321614Y-128180215D01*
X84321614Y-128180215D02*
X84321614Y-128489739D01*
X84321614Y-128489739D02*
X84259709Y-128737358D01*
X84259709Y-128737358D02*
X84197804Y-128861168D01*
X84197804Y-128861168D02*
X84135899Y-128923073D01*
X84135899Y-128923073D02*
X84012090Y-128984977D01*
X84012090Y-128984977D02*
X83888280Y-128984977D01*
X83888280Y-128984977D02*
X83764471Y-128923073D01*
X83764471Y-128923073D02*
X83702566Y-128861168D01*
X83702566Y-128861168D02*
X83640661Y-128737358D01*
X83640661Y-128737358D02*
X83578757Y-128489739D01*
X83578757Y-128489739D02*
X83578757Y-128180215D01*
X83578757Y-128180215D02*
X83640661Y-127932596D01*
X83640661Y-127932596D02*
X83702566Y-127808787D01*
X83702566Y-127808787D02*
X83764471Y-127746882D01*
X83764471Y-127746882D02*
X83888280Y-127684977D01*
X84754947Y-127684977D02*
X85621613Y-127684977D01*
X85621613Y-127684977D02*
X84754947Y-128984977D01*
X84754947Y-128984977D02*
X85621613Y-128984977D01*
X86859708Y-128861168D02*
X86797804Y-128923073D01*
X86797804Y-128923073D02*
X86612089Y-128984977D01*
X86612089Y-128984977D02*
X86488280Y-128984977D01*
X86488280Y-128984977D02*
X86302566Y-128923073D01*
X86302566Y-128923073D02*
X86178756Y-128799263D01*
X86178756Y-128799263D02*
X86116851Y-128675453D01*
X86116851Y-128675453D02*
X86054947Y-128427834D01*
X86054947Y-128427834D02*
X86054947Y-128242120D01*
X86054947Y-128242120D02*
X86116851Y-127994501D01*
X86116851Y-127994501D02*
X86178756Y-127870692D01*
X86178756Y-127870692D02*
X86302566Y-127746882D01*
X86302566Y-127746882D02*
X86488280Y-127684977D01*
X86488280Y-127684977D02*
X86612089Y-127684977D01*
X86612089Y-127684977D02*
X86797804Y-127746882D01*
X86797804Y-127746882D02*
X86859708Y-127808787D01*
X69216853Y-130954095D02*
X69154949Y-131016000D01*
X69154949Y-131016000D02*
X68969234Y-131077904D01*
X68969234Y-131077904D02*
X68845425Y-131077904D01*
X68845425Y-131077904D02*
X68659711Y-131016000D01*
X68659711Y-131016000D02*
X68535901Y-130892190D01*
X68535901Y-130892190D02*
X68473996Y-130768380D01*
X68473996Y-130768380D02*
X68412092Y-130520761D01*
X68412092Y-130520761D02*
X68412092Y-130335047D01*
X68412092Y-130335047D02*
X68473996Y-130087428D01*
X68473996Y-130087428D02*
X68535901Y-129963619D01*
X68535901Y-129963619D02*
X68659711Y-129839809D01*
X68659711Y-129839809D02*
X68845425Y-129777904D01*
X68845425Y-129777904D02*
X68969234Y-129777904D01*
X68969234Y-129777904D02*
X69154949Y-129839809D01*
X69154949Y-129839809D02*
X69216853Y-129901714D01*
X70331139Y-130211238D02*
X70331139Y-131077904D01*
X69773996Y-130211238D02*
X69773996Y-130892190D01*
X69773996Y-130892190D02*
X69835901Y-131016000D01*
X69835901Y-131016000D02*
X69959711Y-131077904D01*
X69959711Y-131077904D02*
X70145425Y-131077904D01*
X70145425Y-131077904D02*
X70269234Y-131016000D01*
X70269234Y-131016000D02*
X70331139Y-130954095D01*
X70888282Y-131016000D02*
X71012091Y-131077904D01*
X71012091Y-131077904D02*
X71259710Y-131077904D01*
X71259710Y-131077904D02*
X71383520Y-131016000D01*
X71383520Y-131016000D02*
X71445424Y-130892190D01*
X71445424Y-130892190D02*
X71445424Y-130830285D01*
X71445424Y-130830285D02*
X71383520Y-130706476D01*
X71383520Y-130706476D02*
X71259710Y-130644571D01*
X71259710Y-130644571D02*
X71073996Y-130644571D01*
X71073996Y-130644571D02*
X70950186Y-130582666D01*
X70950186Y-130582666D02*
X70888282Y-130458857D01*
X70888282Y-130458857D02*
X70888282Y-130396952D01*
X70888282Y-130396952D02*
X70950186Y-130273142D01*
X70950186Y-130273142D02*
X71073996Y-130211238D01*
X71073996Y-130211238D02*
X71259710Y-130211238D01*
X71259710Y-130211238D02*
X71383520Y-130273142D01*
X71816853Y-130211238D02*
X72312091Y-130211238D01*
X72002567Y-129777904D02*
X72002567Y-130892190D01*
X72002567Y-130892190D02*
X72064472Y-131016000D01*
X72064472Y-131016000D02*
X72188282Y-131077904D01*
X72188282Y-131077904D02*
X72312091Y-131077904D01*
X72931139Y-131077904D02*
X72807329Y-131016000D01*
X72807329Y-131016000D02*
X72745424Y-130954095D01*
X72745424Y-130954095D02*
X72683520Y-130830285D01*
X72683520Y-130830285D02*
X72683520Y-130458857D01*
X72683520Y-130458857D02*
X72745424Y-130335047D01*
X72745424Y-130335047D02*
X72807329Y-130273142D01*
X72807329Y-130273142D02*
X72931139Y-130211238D01*
X72931139Y-130211238D02*
X73116853Y-130211238D01*
X73116853Y-130211238D02*
X73240662Y-130273142D01*
X73240662Y-130273142D02*
X73302567Y-130335047D01*
X73302567Y-130335047D02*
X73364472Y-130458857D01*
X73364472Y-130458857D02*
X73364472Y-130830285D01*
X73364472Y-130830285D02*
X73302567Y-130954095D01*
X73302567Y-130954095D02*
X73240662Y-131016000D01*
X73240662Y-131016000D02*
X73116853Y-131077904D01*
X73116853Y-131077904D02*
X72931139Y-131077904D01*
X73921614Y-131077904D02*
X73921614Y-130211238D01*
X73921614Y-130335047D02*
X73983519Y-130273142D01*
X73983519Y-130273142D02*
X74107329Y-130211238D01*
X74107329Y-130211238D02*
X74293043Y-130211238D01*
X74293043Y-130211238D02*
X74416852Y-130273142D01*
X74416852Y-130273142D02*
X74478757Y-130396952D01*
X74478757Y-130396952D02*
X74478757Y-131077904D01*
X74478757Y-130396952D02*
X74540662Y-130273142D01*
X74540662Y-130273142D02*
X74664471Y-130211238D01*
X74664471Y-130211238D02*
X74850186Y-130211238D01*
X74850186Y-130211238D02*
X74973995Y-130273142D01*
X74973995Y-130273142D02*
X75035900Y-130396952D01*
X75035900Y-130396952D02*
X75035900Y-131077904D01*
X76645423Y-131077904D02*
X76645423Y-129777904D01*
X76645423Y-129777904D02*
X76954947Y-129777904D01*
X76954947Y-129777904D02*
X77140661Y-129839809D01*
X77140661Y-129839809D02*
X77264471Y-129963619D01*
X77264471Y-129963619D02*
X77326376Y-130087428D01*
X77326376Y-130087428D02*
X77388280Y-130335047D01*
X77388280Y-130335047D02*
X77388280Y-130520761D01*
X77388280Y-130520761D02*
X77326376Y-130768380D01*
X77326376Y-130768380D02*
X77264471Y-130892190D01*
X77264471Y-130892190D02*
X77140661Y-131016000D01*
X77140661Y-131016000D02*
X76954947Y-131077904D01*
X76954947Y-131077904D02*
X76645423Y-131077904D01*
X77945423Y-131077904D02*
X77945423Y-130211238D01*
X77945423Y-129777904D02*
X77883519Y-129839809D01*
X77883519Y-129839809D02*
X77945423Y-129901714D01*
X77945423Y-129901714D02*
X78007328Y-129839809D01*
X78007328Y-129839809D02*
X77945423Y-129777904D01*
X77945423Y-129777904D02*
X77945423Y-129901714D01*
X79121614Y-130211238D02*
X79121614Y-131263619D01*
X79121614Y-131263619D02*
X79059709Y-131387428D01*
X79059709Y-131387428D02*
X78997805Y-131449333D01*
X78997805Y-131449333D02*
X78873995Y-131511238D01*
X78873995Y-131511238D02*
X78688281Y-131511238D01*
X78688281Y-131511238D02*
X78564471Y-131449333D01*
X79121614Y-131016000D02*
X78997805Y-131077904D01*
X78997805Y-131077904D02*
X78750186Y-131077904D01*
X78750186Y-131077904D02*
X78626376Y-131016000D01*
X78626376Y-131016000D02*
X78564471Y-130954095D01*
X78564471Y-130954095D02*
X78502567Y-130830285D01*
X78502567Y-130830285D02*
X78502567Y-130458857D01*
X78502567Y-130458857D02*
X78564471Y-130335047D01*
X78564471Y-130335047D02*
X78626376Y-130273142D01*
X78626376Y-130273142D02*
X78750186Y-130211238D01*
X78750186Y-130211238D02*
X78997805Y-130211238D01*
X78997805Y-130211238D02*
X79121614Y-130273142D01*
X79740661Y-131077904D02*
X79740661Y-130211238D01*
X79740661Y-129777904D02*
X79678757Y-129839809D01*
X79678757Y-129839809D02*
X79740661Y-129901714D01*
X79740661Y-129901714D02*
X79802566Y-129839809D01*
X79802566Y-129839809D02*
X79740661Y-129777904D01*
X79740661Y-129777904D02*
X79740661Y-129901714D01*
X80173995Y-130211238D02*
X80669233Y-130211238D01*
X80359709Y-129777904D02*
X80359709Y-130892190D01*
X80359709Y-130892190D02*
X80421614Y-131016000D01*
X80421614Y-131016000D02*
X80545424Y-131077904D01*
X80545424Y-131077904D02*
X80669233Y-131077904D01*
X81659709Y-131077904D02*
X81659709Y-130396952D01*
X81659709Y-130396952D02*
X81597804Y-130273142D01*
X81597804Y-130273142D02*
X81473995Y-130211238D01*
X81473995Y-130211238D02*
X81226376Y-130211238D01*
X81226376Y-130211238D02*
X81102566Y-130273142D01*
X81659709Y-131016000D02*
X81535900Y-131077904D01*
X81535900Y-131077904D02*
X81226376Y-131077904D01*
X81226376Y-131077904D02*
X81102566Y-131016000D01*
X81102566Y-131016000D02*
X81040662Y-130892190D01*
X81040662Y-130892190D02*
X81040662Y-130768380D01*
X81040662Y-130768380D02*
X81102566Y-130644571D01*
X81102566Y-130644571D02*
X81226376Y-130582666D01*
X81226376Y-130582666D02*
X81535900Y-130582666D01*
X81535900Y-130582666D02*
X81659709Y-130520761D01*
X82464471Y-131077904D02*
X82340661Y-131016000D01*
X82340661Y-131016000D02*
X82278756Y-130892190D01*
X82278756Y-130892190D02*
X82278756Y-129777904D01*
X83888280Y-131016000D02*
X84073994Y-131077904D01*
X84073994Y-131077904D02*
X84383518Y-131077904D01*
X84383518Y-131077904D02*
X84507327Y-131016000D01*
X84507327Y-131016000D02*
X84569232Y-130954095D01*
X84569232Y-130954095D02*
X84631137Y-130830285D01*
X84631137Y-130830285D02*
X84631137Y-130706476D01*
X84631137Y-130706476D02*
X84569232Y-130582666D01*
X84569232Y-130582666D02*
X84507327Y-130520761D01*
X84507327Y-130520761D02*
X84383518Y-130458857D01*
X84383518Y-130458857D02*
X84135899Y-130396952D01*
X84135899Y-130396952D02*
X84012089Y-130335047D01*
X84012089Y-130335047D02*
X83950184Y-130273142D01*
X83950184Y-130273142D02*
X83888280Y-130149333D01*
X83888280Y-130149333D02*
X83888280Y-130025523D01*
X83888280Y-130025523D02*
X83950184Y-129901714D01*
X83950184Y-129901714D02*
X84012089Y-129839809D01*
X84012089Y-129839809D02*
X84135899Y-129777904D01*
X84135899Y-129777904D02*
X84445422Y-129777904D01*
X84445422Y-129777904D02*
X84631137Y-129839809D01*
X85683517Y-131016000D02*
X85559708Y-131077904D01*
X85559708Y-131077904D02*
X85312089Y-131077904D01*
X85312089Y-131077904D02*
X85188279Y-131016000D01*
X85188279Y-131016000D02*
X85126375Y-130892190D01*
X85126375Y-130892190D02*
X85126375Y-130396952D01*
X85126375Y-130396952D02*
X85188279Y-130273142D01*
X85188279Y-130273142D02*
X85312089Y-130211238D01*
X85312089Y-130211238D02*
X85559708Y-130211238D01*
X85559708Y-130211238D02*
X85683517Y-130273142D01*
X85683517Y-130273142D02*
X85745422Y-130396952D01*
X85745422Y-130396952D02*
X85745422Y-130520761D01*
X85745422Y-130520761D02*
X85126375Y-130644571D01*
X86302565Y-131077904D02*
X86302565Y-130211238D01*
X86302565Y-130458857D02*
X86364470Y-130335047D01*
X86364470Y-130335047D02*
X86426375Y-130273142D01*
X86426375Y-130273142D02*
X86550184Y-130211238D01*
X86550184Y-130211238D02*
X86673994Y-130211238D01*
X86983518Y-130211238D02*
X87293042Y-131077904D01*
X87293042Y-131077904D02*
X87602565Y-130211238D01*
X88097803Y-131077904D02*
X88097803Y-130211238D01*
X88097803Y-129777904D02*
X88035899Y-129839809D01*
X88035899Y-129839809D02*
X88097803Y-129901714D01*
X88097803Y-129901714D02*
X88159708Y-129839809D01*
X88159708Y-129839809D02*
X88097803Y-129777904D01*
X88097803Y-129777904D02*
X88097803Y-129901714D01*
X89273994Y-131016000D02*
X89150185Y-131077904D01*
X89150185Y-131077904D02*
X88902566Y-131077904D01*
X88902566Y-131077904D02*
X88778756Y-131016000D01*
X88778756Y-131016000D02*
X88716851Y-130954095D01*
X88716851Y-130954095D02*
X88654947Y-130830285D01*
X88654947Y-130830285D02*
X88654947Y-130458857D01*
X88654947Y-130458857D02*
X88716851Y-130335047D01*
X88716851Y-130335047D02*
X88778756Y-130273142D01*
X88778756Y-130273142D02*
X88902566Y-130211238D01*
X88902566Y-130211238D02*
X89150185Y-130211238D01*
X89150185Y-130211238D02*
X89273994Y-130273142D01*
X90326375Y-131016000D02*
X90202566Y-131077904D01*
X90202566Y-131077904D02*
X89954947Y-131077904D01*
X89954947Y-131077904D02*
X89831137Y-131016000D01*
X89831137Y-131016000D02*
X89769233Y-130892190D01*
X89769233Y-130892190D02*
X89769233Y-130396952D01*
X89769233Y-130396952D02*
X89831137Y-130273142D01*
X89831137Y-130273142D02*
X89954947Y-130211238D01*
X89954947Y-130211238D02*
X90202566Y-130211238D01*
X90202566Y-130211238D02*
X90326375Y-130273142D01*
X90326375Y-130273142D02*
X90388280Y-130396952D01*
X90388280Y-130396952D02*
X90388280Y-130520761D01*
X90388280Y-130520761D02*
X89769233Y-130644571D01*
X90883519Y-131016000D02*
X91007328Y-131077904D01*
X91007328Y-131077904D02*
X91254947Y-131077904D01*
X91254947Y-131077904D02*
X91378757Y-131016000D01*
X91378757Y-131016000D02*
X91440661Y-130892190D01*
X91440661Y-130892190D02*
X91440661Y-130830285D01*
X91440661Y-130830285D02*
X91378757Y-130706476D01*
X91378757Y-130706476D02*
X91254947Y-130644571D01*
X91254947Y-130644571D02*
X91069233Y-130644571D01*
X91069233Y-130644571D02*
X90945423Y-130582666D01*
X90945423Y-130582666D02*
X90883519Y-130458857D01*
X90883519Y-130458857D02*
X90883519Y-130396952D01*
X90883519Y-130396952D02*
X90945423Y-130273142D01*
X90945423Y-130273142D02*
X91069233Y-130211238D01*
X91069233Y-130211238D02*
X91254947Y-130211238D01*
X91254947Y-130211238D02*
X91378757Y-130273142D01*
X92059709Y-131016000D02*
X92059709Y-131077904D01*
X92059709Y-131077904D02*
X91997804Y-131201714D01*
X91997804Y-131201714D02*
X91935900Y-131263619D01*
X94226376Y-131077904D02*
X93607328Y-131077904D01*
X93607328Y-131077904D02*
X93607328Y-129777904D01*
X95278757Y-131077904D02*
X94659709Y-131077904D01*
X94659709Y-131077904D02*
X94659709Y-129777904D01*
X96454947Y-130954095D02*
X96393043Y-131016000D01*
X96393043Y-131016000D02*
X96207328Y-131077904D01*
X96207328Y-131077904D02*
X96083519Y-131077904D01*
X96083519Y-131077904D02*
X95897805Y-131016000D01*
X95897805Y-131016000D02*
X95773995Y-130892190D01*
X95773995Y-130892190D02*
X95712090Y-130768380D01*
X95712090Y-130768380D02*
X95650186Y-130520761D01*
X95650186Y-130520761D02*
X95650186Y-130335047D01*
X95650186Y-130335047D02*
X95712090Y-130087428D01*
X95712090Y-130087428D02*
X95773995Y-129963619D01*
X95773995Y-129963619D02*
X95897805Y-129839809D01*
X95897805Y-129839809D02*
X96083519Y-129777904D01*
X96083519Y-129777904D02*
X96207328Y-129777904D01*
X96207328Y-129777904D02*
X96393043Y-129839809D01*
X96393043Y-129839809D02*
X96454947Y-129901714D01*
D11*
X103954819Y-58761904D02*
X104764342Y-58761904D01*
X104764342Y-58761904D02*
X104859580Y-58714285D01*
X104859580Y-58714285D02*
X104907200Y-58666666D01*
X104907200Y-58666666D02*
X104954819Y-58571428D01*
X104954819Y-58571428D02*
X104954819Y-58380952D01*
X104954819Y-58380952D02*
X104907200Y-58285714D01*
X104907200Y-58285714D02*
X104859580Y-58238095D01*
X104859580Y-58238095D02*
X104764342Y-58190476D01*
X104764342Y-58190476D02*
X103954819Y-58190476D01*
X104954819Y-57190476D02*
X104954819Y-57761904D01*
X104954819Y-57476190D02*
X103954819Y-57476190D01*
X103954819Y-57476190D02*
X104097676Y-57571428D01*
X104097676Y-57571428D02*
X104192914Y-57666666D01*
X104192914Y-57666666D02*
X104240533Y-57761904D01*
X115550057Y-90595238D02*
X115502438Y-90690476D01*
X115502438Y-90690476D02*
X115407200Y-90785714D01*
X115407200Y-90785714D02*
X115264342Y-90928571D01*
X115264342Y-90928571D02*
X115216723Y-91023809D01*
X115216723Y-91023809D02*
X115216723Y-91119047D01*
X115454819Y-91071428D02*
X115407200Y-91166666D01*
X115407200Y-91166666D02*
X115311961Y-91261904D01*
X115311961Y-91261904D02*
X115121485Y-91309523D01*
X115121485Y-91309523D02*
X114788152Y-91309523D01*
X114788152Y-91309523D02*
X114597676Y-91261904D01*
X114597676Y-91261904D02*
X114502438Y-91166666D01*
X114502438Y-91166666D02*
X114454819Y-91071428D01*
X114454819Y-91071428D02*
X114454819Y-90880952D01*
X114454819Y-90880952D02*
X114502438Y-90785714D01*
X114502438Y-90785714D02*
X114597676Y-90690476D01*
X114597676Y-90690476D02*
X114788152Y-90642857D01*
X114788152Y-90642857D02*
X115121485Y-90642857D01*
X115121485Y-90642857D02*
X115311961Y-90690476D01*
X115311961Y-90690476D02*
X115407200Y-90785714D01*
X115407200Y-90785714D02*
X115454819Y-90880952D01*
X115454819Y-90880952D02*
X115454819Y-91071428D01*
X115454819Y-89690476D02*
X115454819Y-90261904D01*
X115454819Y-89976190D02*
X114454819Y-89976190D01*
X114454819Y-89976190D02*
X114597676Y-90071428D01*
X114597676Y-90071428D02*
X114692914Y-90166666D01*
X114692914Y-90166666D02*
X114740533Y-90261904D01*
X131550057Y-70345238D02*
X131502438Y-70440476D01*
X131502438Y-70440476D02*
X131407200Y-70535714D01*
X131407200Y-70535714D02*
X131264342Y-70678571D01*
X131264342Y-70678571D02*
X131216723Y-70773809D01*
X131216723Y-70773809D02*
X131216723Y-70869047D01*
X131454819Y-70821428D02*
X131407200Y-70916666D01*
X131407200Y-70916666D02*
X131311961Y-71011904D01*
X131311961Y-71011904D02*
X131121485Y-71059523D01*
X131121485Y-71059523D02*
X130788152Y-71059523D01*
X130788152Y-71059523D02*
X130597676Y-71011904D01*
X130597676Y-71011904D02*
X130502438Y-70916666D01*
X130502438Y-70916666D02*
X130454819Y-70821428D01*
X130454819Y-70821428D02*
X130454819Y-70630952D01*
X130454819Y-70630952D02*
X130502438Y-70535714D01*
X130502438Y-70535714D02*
X130597676Y-70440476D01*
X130597676Y-70440476D02*
X130788152Y-70392857D01*
X130788152Y-70392857D02*
X131121485Y-70392857D01*
X131121485Y-70392857D02*
X131311961Y-70440476D01*
X131311961Y-70440476D02*
X131407200Y-70535714D01*
X131407200Y-70535714D02*
X131454819Y-70630952D01*
X131454819Y-70630952D02*
X131454819Y-70821428D01*
X130454819Y-70059523D02*
X130454819Y-69440476D01*
X130454819Y-69440476D02*
X130835771Y-69773809D01*
X130835771Y-69773809D02*
X130835771Y-69630952D01*
X130835771Y-69630952D02*
X130883390Y-69535714D01*
X130883390Y-69535714D02*
X130931009Y-69488095D01*
X130931009Y-69488095D02*
X131026247Y-69440476D01*
X131026247Y-69440476D02*
X131264342Y-69440476D01*
X131264342Y-69440476D02*
X131359580Y-69488095D01*
X131359580Y-69488095D02*
X131407200Y-69535714D01*
X131407200Y-69535714D02*
X131454819Y-69630952D01*
X131454819Y-69630952D02*
X131454819Y-69916666D01*
X131454819Y-69916666D02*
X131407200Y-70011904D01*
X131407200Y-70011904D02*
X131359580Y-70059523D01*
X121050057Y-70095238D02*
X121002438Y-70190476D01*
X121002438Y-70190476D02*
X120907200Y-70285714D01*
X120907200Y-70285714D02*
X120764342Y-70428571D01*
X120764342Y-70428571D02*
X120716723Y-70523809D01*
X120716723Y-70523809D02*
X120716723Y-70619047D01*
X120954819Y-70571428D02*
X120907200Y-70666666D01*
X120907200Y-70666666D02*
X120811961Y-70761904D01*
X120811961Y-70761904D02*
X120621485Y-70809523D01*
X120621485Y-70809523D02*
X120288152Y-70809523D01*
X120288152Y-70809523D02*
X120097676Y-70761904D01*
X120097676Y-70761904D02*
X120002438Y-70666666D01*
X120002438Y-70666666D02*
X119954819Y-70571428D01*
X119954819Y-70571428D02*
X119954819Y-70380952D01*
X119954819Y-70380952D02*
X120002438Y-70285714D01*
X120002438Y-70285714D02*
X120097676Y-70190476D01*
X120097676Y-70190476D02*
X120288152Y-70142857D01*
X120288152Y-70142857D02*
X120621485Y-70142857D01*
X120621485Y-70142857D02*
X120811961Y-70190476D01*
X120811961Y-70190476D02*
X120907200Y-70285714D01*
X120907200Y-70285714D02*
X120954819Y-70380952D01*
X120954819Y-70380952D02*
X120954819Y-70571428D01*
X120050057Y-69761904D02*
X120002438Y-69714285D01*
X120002438Y-69714285D02*
X119954819Y-69619047D01*
X119954819Y-69619047D02*
X119954819Y-69380952D01*
X119954819Y-69380952D02*
X120002438Y-69285714D01*
X120002438Y-69285714D02*
X120050057Y-69238095D01*
X120050057Y-69238095D02*
X120145295Y-69190476D01*
X120145295Y-69190476D02*
X120240533Y-69190476D01*
X120240533Y-69190476D02*
X120383390Y-69238095D01*
X120383390Y-69238095D02*
X120954819Y-69809523D01*
X120954819Y-69809523D02*
X120954819Y-69190476D01*
X93442666Y-102931009D02*
X93109333Y-102931009D01*
X93109333Y-103454819D02*
X93109333Y-102454819D01*
X93109333Y-102454819D02*
X93585523Y-102454819D01*
X93871238Y-102454819D02*
X94490285Y-102454819D01*
X94490285Y-102454819D02*
X94156952Y-102835771D01*
X94156952Y-102835771D02*
X94299809Y-102835771D01*
X94299809Y-102835771D02*
X94395047Y-102883390D01*
X94395047Y-102883390D02*
X94442666Y-102931009D01*
X94442666Y-102931009D02*
X94490285Y-103026247D01*
X94490285Y-103026247D02*
X94490285Y-103264342D01*
X94490285Y-103264342D02*
X94442666Y-103359580D01*
X94442666Y-103359580D02*
X94395047Y-103407200D01*
X94395047Y-103407200D02*
X94299809Y-103454819D01*
X94299809Y-103454819D02*
X94014095Y-103454819D01*
X94014095Y-103454819D02*
X93918857Y-103407200D01*
X93918857Y-103407200D02*
X93871238Y-103359580D01*
X123488095Y-103704819D02*
X123488095Y-104514342D01*
X123488095Y-104514342D02*
X123535714Y-104609580D01*
X123535714Y-104609580D02*
X123583333Y-104657200D01*
X123583333Y-104657200D02*
X123678571Y-104704819D01*
X123678571Y-104704819D02*
X123869047Y-104704819D01*
X123869047Y-104704819D02*
X123964285Y-104657200D01*
X123964285Y-104657200D02*
X124011904Y-104609580D01*
X124011904Y-104609580D02*
X124059523Y-104514342D01*
X124059523Y-104514342D02*
X124059523Y-103704819D01*
X124440476Y-103704819D02*
X125059523Y-103704819D01*
X125059523Y-103704819D02*
X124726190Y-104085771D01*
X124726190Y-104085771D02*
X124869047Y-104085771D01*
X124869047Y-104085771D02*
X124964285Y-104133390D01*
X124964285Y-104133390D02*
X125011904Y-104181009D01*
X125011904Y-104181009D02*
X125059523Y-104276247D01*
X125059523Y-104276247D02*
X125059523Y-104514342D01*
X125059523Y-104514342D02*
X125011904Y-104609580D01*
X125011904Y-104609580D02*
X124964285Y-104657200D01*
X124964285Y-104657200D02*
X124869047Y-104704819D01*
X124869047Y-104704819D02*
X124583333Y-104704819D01*
X124583333Y-104704819D02*
X124488095Y-104657200D01*
X124488095Y-104657200D02*
X124440476Y-104609580D01*
D12*
X60666666Y-66457419D02*
X60666666Y-67171704D01*
X60666666Y-67171704D02*
X60619047Y-67314561D01*
X60619047Y-67314561D02*
X60523809Y-67409800D01*
X60523809Y-67409800D02*
X60380952Y-67457419D01*
X60380952Y-67457419D02*
X60285714Y-67457419D01*
X61666666Y-67457419D02*
X61095238Y-67457419D01*
X61380952Y-67457419D02*
X61380952Y-66457419D01*
X61380952Y-66457419D02*
X61285714Y-66600276D01*
X61285714Y-66600276D02*
X61190476Y-66695514D01*
X61190476Y-66695514D02*
X61095238Y-66743133D01*
X79958020Y-74511866D02*
X78434211Y-74511866D01*
X79196115Y-73749961D02*
X79196115Y-75273771D01*
X60166666Y-114207419D02*
X60166666Y-114921704D01*
X60166666Y-114921704D02*
X60119047Y-115064561D01*
X60119047Y-115064561D02*
X60023809Y-115159800D01*
X60023809Y-115159800D02*
X59880952Y-115207419D01*
X59880952Y-115207419D02*
X59785714Y-115207419D01*
X61119047Y-114207419D02*
X60642857Y-114207419D01*
X60642857Y-114207419D02*
X60595238Y-114683609D01*
X60595238Y-114683609D02*
X60642857Y-114635990D01*
X60642857Y-114635990D02*
X60738095Y-114588371D01*
X60738095Y-114588371D02*
X60976190Y-114588371D01*
X60976190Y-114588371D02*
X61071428Y-114635990D01*
X61071428Y-114635990D02*
X61119047Y-114683609D01*
X61119047Y-114683609D02*
X61166666Y-114778847D01*
X61166666Y-114778847D02*
X61166666Y-115016942D01*
X61166666Y-115016942D02*
X61119047Y-115112180D01*
X61119047Y-115112180D02*
X61071428Y-115159800D01*
X61071428Y-115159800D02*
X60976190Y-115207419D01*
X60976190Y-115207419D02*
X60738095Y-115207419D01*
X60738095Y-115207419D02*
X60642857Y-115159800D01*
X60642857Y-115159800D02*
X60595238Y-115112180D01*
X79923020Y-122246866D02*
X78399211Y-122246866D01*
X79161115Y-121484961D02*
X79161115Y-123008771D01*
D11*
X93442666Y-93931009D02*
X93109333Y-93931009D01*
X93109333Y-94454819D02*
X93109333Y-93454819D01*
X93109333Y-93454819D02*
X93585523Y-93454819D01*
X93918857Y-93550057D02*
X93966476Y-93502438D01*
X93966476Y-93502438D02*
X94061714Y-93454819D01*
X94061714Y-93454819D02*
X94299809Y-93454819D01*
X94299809Y-93454819D02*
X94395047Y-93502438D01*
X94395047Y-93502438D02*
X94442666Y-93550057D01*
X94442666Y-93550057D02*
X94490285Y-93645295D01*
X94490285Y-93645295D02*
X94490285Y-93740533D01*
X94490285Y-93740533D02*
X94442666Y-93883390D01*
X94442666Y-93883390D02*
X93871238Y-94454819D01*
X93871238Y-94454819D02*
X94490285Y-94454819D01*
X109954819Y-102238094D02*
X108954819Y-102238094D01*
X108954819Y-102238094D02*
X108954819Y-101999999D01*
X108954819Y-101999999D02*
X109002438Y-101857142D01*
X109002438Y-101857142D02*
X109097676Y-101761904D01*
X109097676Y-101761904D02*
X109192914Y-101714285D01*
X109192914Y-101714285D02*
X109383390Y-101666666D01*
X109383390Y-101666666D02*
X109526247Y-101666666D01*
X109526247Y-101666666D02*
X109716723Y-101714285D01*
X109716723Y-101714285D02*
X109811961Y-101761904D01*
X109811961Y-101761904D02*
X109907200Y-101857142D01*
X109907200Y-101857142D02*
X109954819Y-101999999D01*
X109954819Y-101999999D02*
X109954819Y-102238094D01*
X109288152Y-100809523D02*
X109954819Y-100809523D01*
X108907200Y-101047618D02*
X109621485Y-101285713D01*
X109621485Y-101285713D02*
X109621485Y-100666666D01*
X113609580Y-101666666D02*
X113657200Y-101714285D01*
X113657200Y-101714285D02*
X113704819Y-101857142D01*
X113704819Y-101857142D02*
X113704819Y-101952380D01*
X113704819Y-101952380D02*
X113657200Y-102095237D01*
X113657200Y-102095237D02*
X113561961Y-102190475D01*
X113561961Y-102190475D02*
X113466723Y-102238094D01*
X113466723Y-102238094D02*
X113276247Y-102285713D01*
X113276247Y-102285713D02*
X113133390Y-102285713D01*
X113133390Y-102285713D02*
X112942914Y-102238094D01*
X112942914Y-102238094D02*
X112847676Y-102190475D01*
X112847676Y-102190475D02*
X112752438Y-102095237D01*
X112752438Y-102095237D02*
X112704819Y-101952380D01*
X112704819Y-101952380D02*
X112704819Y-101857142D01*
X112704819Y-101857142D02*
X112752438Y-101714285D01*
X112752438Y-101714285D02*
X112800057Y-101666666D01*
X113133390Y-101095237D02*
X113085771Y-101190475D01*
X113085771Y-101190475D02*
X113038152Y-101238094D01*
X113038152Y-101238094D02*
X112942914Y-101285713D01*
X112942914Y-101285713D02*
X112895295Y-101285713D01*
X112895295Y-101285713D02*
X112800057Y-101238094D01*
X112800057Y-101238094D02*
X112752438Y-101190475D01*
X112752438Y-101190475D02*
X112704819Y-101095237D01*
X112704819Y-101095237D02*
X112704819Y-100904761D01*
X112704819Y-100904761D02*
X112752438Y-100809523D01*
X112752438Y-100809523D02*
X112800057Y-100761904D01*
X112800057Y-100761904D02*
X112895295Y-100714285D01*
X112895295Y-100714285D02*
X112942914Y-100714285D01*
X112942914Y-100714285D02*
X113038152Y-100761904D01*
X113038152Y-100761904D02*
X113085771Y-100809523D01*
X113085771Y-100809523D02*
X113133390Y-100904761D01*
X113133390Y-100904761D02*
X113133390Y-101095237D01*
X113133390Y-101095237D02*
X113181009Y-101190475D01*
X113181009Y-101190475D02*
X113228628Y-101238094D01*
X113228628Y-101238094D02*
X113323866Y-101285713D01*
X113323866Y-101285713D02*
X113514342Y-101285713D01*
X113514342Y-101285713D02*
X113609580Y-101238094D01*
X113609580Y-101238094D02*
X113657200Y-101190475D01*
X113657200Y-101190475D02*
X113704819Y-101095237D01*
X113704819Y-101095237D02*
X113704819Y-100904761D01*
X113704819Y-100904761D02*
X113657200Y-100809523D01*
X113657200Y-100809523D02*
X113609580Y-100761904D01*
X113609580Y-100761904D02*
X113514342Y-100714285D01*
X113514342Y-100714285D02*
X113323866Y-100714285D01*
X113323866Y-100714285D02*
X113228628Y-100761904D01*
X113228628Y-100761904D02*
X113181009Y-100809523D01*
X113181009Y-100809523D02*
X113133390Y-100904761D01*
X109567319Y-90604166D02*
X109091128Y-90937499D01*
X109567319Y-91175594D02*
X108567319Y-91175594D01*
X108567319Y-91175594D02*
X108567319Y-90794642D01*
X108567319Y-90794642D02*
X108614938Y-90699404D01*
X108614938Y-90699404D02*
X108662557Y-90651785D01*
X108662557Y-90651785D02*
X108757795Y-90604166D01*
X108757795Y-90604166D02*
X108900652Y-90604166D01*
X108900652Y-90604166D02*
X108995890Y-90651785D01*
X108995890Y-90651785D02*
X109043509Y-90699404D01*
X109043509Y-90699404D02*
X109091128Y-90794642D01*
X109091128Y-90794642D02*
X109091128Y-91175594D01*
X109567319Y-89651785D02*
X109567319Y-90223213D01*
X109567319Y-89937499D02*
X108567319Y-89937499D01*
X108567319Y-89937499D02*
X108710176Y-90032737D01*
X108710176Y-90032737D02*
X108805414Y-90127975D01*
X108805414Y-90127975D02*
X108853033Y-90223213D01*
X111833333Y-80469819D02*
X111500000Y-79993628D01*
X111261905Y-80469819D02*
X111261905Y-79469819D01*
X111261905Y-79469819D02*
X111642857Y-79469819D01*
X111642857Y-79469819D02*
X111738095Y-79517438D01*
X111738095Y-79517438D02*
X111785714Y-79565057D01*
X111785714Y-79565057D02*
X111833333Y-79660295D01*
X111833333Y-79660295D02*
X111833333Y-79803152D01*
X111833333Y-79803152D02*
X111785714Y-79898390D01*
X111785714Y-79898390D02*
X111738095Y-79946009D01*
X111738095Y-79946009D02*
X111642857Y-79993628D01*
X111642857Y-79993628D02*
X111261905Y-79993628D01*
X112166667Y-79469819D02*
X112833333Y-79469819D01*
X112833333Y-79469819D02*
X112404762Y-80469819D01*
X86431009Y-57333333D02*
X86431009Y-57666666D01*
X86954819Y-57666666D02*
X85954819Y-57666666D01*
X85954819Y-57666666D02*
X85954819Y-57190476D01*
X86954819Y-56285714D02*
X86954819Y-56857142D01*
X86954819Y-56571428D02*
X85954819Y-56571428D01*
X85954819Y-56571428D02*
X86097676Y-56666666D01*
X86097676Y-56666666D02*
X86192914Y-56761904D01*
X86192914Y-56761904D02*
X86240533Y-56857142D01*
X106666666Y-120954819D02*
X106666666Y-121669104D01*
X106666666Y-121669104D02*
X106619047Y-121811961D01*
X106619047Y-121811961D02*
X106523809Y-121907200D01*
X106523809Y-121907200D02*
X106380952Y-121954819D01*
X106380952Y-121954819D02*
X106285714Y-121954819D01*
X107285714Y-121383390D02*
X107190476Y-121335771D01*
X107190476Y-121335771D02*
X107142857Y-121288152D01*
X107142857Y-121288152D02*
X107095238Y-121192914D01*
X107095238Y-121192914D02*
X107095238Y-121145295D01*
X107095238Y-121145295D02*
X107142857Y-121050057D01*
X107142857Y-121050057D02*
X107190476Y-121002438D01*
X107190476Y-121002438D02*
X107285714Y-120954819D01*
X107285714Y-120954819D02*
X107476190Y-120954819D01*
X107476190Y-120954819D02*
X107571428Y-121002438D01*
X107571428Y-121002438D02*
X107619047Y-121050057D01*
X107619047Y-121050057D02*
X107666666Y-121145295D01*
X107666666Y-121145295D02*
X107666666Y-121192914D01*
X107666666Y-121192914D02*
X107619047Y-121288152D01*
X107619047Y-121288152D02*
X107571428Y-121335771D01*
X107571428Y-121335771D02*
X107476190Y-121383390D01*
X107476190Y-121383390D02*
X107285714Y-121383390D01*
X107285714Y-121383390D02*
X107190476Y-121431009D01*
X107190476Y-121431009D02*
X107142857Y-121478628D01*
X107142857Y-121478628D02*
X107095238Y-121573866D01*
X107095238Y-121573866D02*
X107095238Y-121764342D01*
X107095238Y-121764342D02*
X107142857Y-121859580D01*
X107142857Y-121859580D02*
X107190476Y-121907200D01*
X107190476Y-121907200D02*
X107285714Y-121954819D01*
X107285714Y-121954819D02*
X107476190Y-121954819D01*
X107476190Y-121954819D02*
X107571428Y-121907200D01*
X107571428Y-121907200D02*
X107619047Y-121859580D01*
X107619047Y-121859580D02*
X107666666Y-121764342D01*
X107666666Y-121764342D02*
X107666666Y-121573866D01*
X107666666Y-121573866D02*
X107619047Y-121478628D01*
X107619047Y-121478628D02*
X107571428Y-121431009D01*
X107571428Y-121431009D02*
X107476190Y-121383390D01*
X117416666Y-85954819D02*
X117416666Y-86669104D01*
X117416666Y-86669104D02*
X117369047Y-86811961D01*
X117369047Y-86811961D02*
X117273809Y-86907200D01*
X117273809Y-86907200D02*
X117130952Y-86954819D01*
X117130952Y-86954819D02*
X117035714Y-86954819D01*
X118321428Y-85954819D02*
X118130952Y-85954819D01*
X118130952Y-85954819D02*
X118035714Y-86002438D01*
X118035714Y-86002438D02*
X117988095Y-86050057D01*
X117988095Y-86050057D02*
X117892857Y-86192914D01*
X117892857Y-86192914D02*
X117845238Y-86383390D01*
X117845238Y-86383390D02*
X117845238Y-86764342D01*
X117845238Y-86764342D02*
X117892857Y-86859580D01*
X117892857Y-86859580D02*
X117940476Y-86907200D01*
X117940476Y-86907200D02*
X118035714Y-86954819D01*
X118035714Y-86954819D02*
X118226190Y-86954819D01*
X118226190Y-86954819D02*
X118321428Y-86907200D01*
X118321428Y-86907200D02*
X118369047Y-86859580D01*
X118369047Y-86859580D02*
X118416666Y-86764342D01*
X118416666Y-86764342D02*
X118416666Y-86526247D01*
X118416666Y-86526247D02*
X118369047Y-86431009D01*
X118369047Y-86431009D02*
X118321428Y-86383390D01*
X118321428Y-86383390D02*
X118226190Y-86335771D01*
X118226190Y-86335771D02*
X118035714Y-86335771D01*
X118035714Y-86335771D02*
X117940476Y-86383390D01*
X117940476Y-86383390D02*
X117892857Y-86431009D01*
X117892857Y-86431009D02*
X117845238Y-86526247D01*
X109704819Y-96166666D02*
X109228628Y-96499999D01*
X109704819Y-96738094D02*
X108704819Y-96738094D01*
X108704819Y-96738094D02*
X108704819Y-96357142D01*
X108704819Y-96357142D02*
X108752438Y-96261904D01*
X108752438Y-96261904D02*
X108800057Y-96214285D01*
X108800057Y-96214285D02*
X108895295Y-96166666D01*
X108895295Y-96166666D02*
X109038152Y-96166666D01*
X109038152Y-96166666D02*
X109133390Y-96214285D01*
X109133390Y-96214285D02*
X109181009Y-96261904D01*
X109181009Y-96261904D02*
X109228628Y-96357142D01*
X109228628Y-96357142D02*
X109228628Y-96738094D01*
X108704819Y-95261904D02*
X108704819Y-95738094D01*
X108704819Y-95738094D02*
X109181009Y-95785713D01*
X109181009Y-95785713D02*
X109133390Y-95738094D01*
X109133390Y-95738094D02*
X109085771Y-95642856D01*
X109085771Y-95642856D02*
X109085771Y-95404761D01*
X109085771Y-95404761D02*
X109133390Y-95309523D01*
X109133390Y-95309523D02*
X109181009Y-95261904D01*
X109181009Y-95261904D02*
X109276247Y-95214285D01*
X109276247Y-95214285D02*
X109514342Y-95214285D01*
X109514342Y-95214285D02*
X109609580Y-95261904D01*
X109609580Y-95261904D02*
X109657200Y-95309523D01*
X109657200Y-95309523D02*
X109704819Y-95404761D01*
X109704819Y-95404761D02*
X109704819Y-95642856D01*
X109704819Y-95642856D02*
X109657200Y-95738094D01*
X109657200Y-95738094D02*
X109609580Y-95785713D01*
X82369819Y-74663220D02*
X83179342Y-74663220D01*
X83179342Y-74663220D02*
X83274580Y-74615601D01*
X83274580Y-74615601D02*
X83322200Y-74567982D01*
X83322200Y-74567982D02*
X83369819Y-74472744D01*
X83369819Y-74472744D02*
X83369819Y-74282268D01*
X83369819Y-74282268D02*
X83322200Y-74187030D01*
X83322200Y-74187030D02*
X83274580Y-74139411D01*
X83274580Y-74139411D02*
X83179342Y-74091792D01*
X83179342Y-74091792D02*
X82369819Y-74091792D01*
X82703152Y-73187030D02*
X83369819Y-73187030D01*
X82322200Y-73425125D02*
X83036485Y-73663220D01*
X83036485Y-73663220D02*
X83036485Y-73044173D01*
X130604819Y-110666666D02*
X130128628Y-110999999D01*
X130604819Y-111238094D02*
X129604819Y-111238094D01*
X129604819Y-111238094D02*
X129604819Y-110857142D01*
X129604819Y-110857142D02*
X129652438Y-110761904D01*
X129652438Y-110761904D02*
X129700057Y-110714285D01*
X129700057Y-110714285D02*
X129795295Y-110666666D01*
X129795295Y-110666666D02*
X129938152Y-110666666D01*
X129938152Y-110666666D02*
X130033390Y-110714285D01*
X130033390Y-110714285D02*
X130081009Y-110761904D01*
X130081009Y-110761904D02*
X130128628Y-110857142D01*
X130128628Y-110857142D02*
X130128628Y-111238094D01*
X129700057Y-110285713D02*
X129652438Y-110238094D01*
X129652438Y-110238094D02*
X129604819Y-110142856D01*
X129604819Y-110142856D02*
X129604819Y-109904761D01*
X129604819Y-109904761D02*
X129652438Y-109809523D01*
X129652438Y-109809523D02*
X129700057Y-109761904D01*
X129700057Y-109761904D02*
X129795295Y-109714285D01*
X129795295Y-109714285D02*
X129890533Y-109714285D01*
X129890533Y-109714285D02*
X130033390Y-109761904D01*
X130033390Y-109761904D02*
X130604819Y-110333332D01*
X130604819Y-110333332D02*
X130604819Y-109714285D01*
X127039580Y-81166666D02*
X127087200Y-81214285D01*
X127087200Y-81214285D02*
X127134819Y-81357142D01*
X127134819Y-81357142D02*
X127134819Y-81452380D01*
X127134819Y-81452380D02*
X127087200Y-81595237D01*
X127087200Y-81595237D02*
X126991961Y-81690475D01*
X126991961Y-81690475D02*
X126896723Y-81738094D01*
X126896723Y-81738094D02*
X126706247Y-81785713D01*
X126706247Y-81785713D02*
X126563390Y-81785713D01*
X126563390Y-81785713D02*
X126372914Y-81738094D01*
X126372914Y-81738094D02*
X126277676Y-81690475D01*
X126277676Y-81690475D02*
X126182438Y-81595237D01*
X126182438Y-81595237D02*
X126134819Y-81452380D01*
X126134819Y-81452380D02*
X126134819Y-81357142D01*
X126134819Y-81357142D02*
X126182438Y-81214285D01*
X126182438Y-81214285D02*
X126230057Y-81166666D01*
X127134819Y-80690475D02*
X127134819Y-80499999D01*
X127134819Y-80499999D02*
X127087200Y-80404761D01*
X127087200Y-80404761D02*
X127039580Y-80357142D01*
X127039580Y-80357142D02*
X126896723Y-80261904D01*
X126896723Y-80261904D02*
X126706247Y-80214285D01*
X126706247Y-80214285D02*
X126325295Y-80214285D01*
X126325295Y-80214285D02*
X126230057Y-80261904D01*
X126230057Y-80261904D02*
X126182438Y-80309523D01*
X126182438Y-80309523D02*
X126134819Y-80404761D01*
X126134819Y-80404761D02*
X126134819Y-80595237D01*
X126134819Y-80595237D02*
X126182438Y-80690475D01*
X126182438Y-80690475D02*
X126230057Y-80738094D01*
X126230057Y-80738094D02*
X126325295Y-80785713D01*
X126325295Y-80785713D02*
X126563390Y-80785713D01*
X126563390Y-80785713D02*
X126658628Y-80738094D01*
X126658628Y-80738094D02*
X126706247Y-80690475D01*
X126706247Y-80690475D02*
X126753866Y-80595237D01*
X126753866Y-80595237D02*
X126753866Y-80404761D01*
X126753866Y-80404761D02*
X126706247Y-80309523D01*
X126706247Y-80309523D02*
X126658628Y-80261904D01*
X126658628Y-80261904D02*
X126563390Y-80214285D01*
X130604819Y-81642857D02*
X130128628Y-81976190D01*
X130604819Y-82214285D02*
X129604819Y-82214285D01*
X129604819Y-82214285D02*
X129604819Y-81833333D01*
X129604819Y-81833333D02*
X129652438Y-81738095D01*
X129652438Y-81738095D02*
X129700057Y-81690476D01*
X129700057Y-81690476D02*
X129795295Y-81642857D01*
X129795295Y-81642857D02*
X129938152Y-81642857D01*
X129938152Y-81642857D02*
X130033390Y-81690476D01*
X130033390Y-81690476D02*
X130081009Y-81738095D01*
X130081009Y-81738095D02*
X130128628Y-81833333D01*
X130128628Y-81833333D02*
X130128628Y-82214285D01*
X130604819Y-80690476D02*
X130604819Y-81261904D01*
X130604819Y-80976190D02*
X129604819Y-80976190D01*
X129604819Y-80976190D02*
X129747676Y-81071428D01*
X129747676Y-81071428D02*
X129842914Y-81166666D01*
X129842914Y-81166666D02*
X129890533Y-81261904D01*
X130604819Y-79738095D02*
X130604819Y-80309523D01*
X130604819Y-80023809D02*
X129604819Y-80023809D01*
X129604819Y-80023809D02*
X129747676Y-80119047D01*
X129747676Y-80119047D02*
X129842914Y-80214285D01*
X129842914Y-80214285D02*
X129890533Y-80309523D01*
X131454819Y-92238094D02*
X130454819Y-92238094D01*
X130454819Y-92238094D02*
X130454819Y-91999999D01*
X130454819Y-91999999D02*
X130502438Y-91857142D01*
X130502438Y-91857142D02*
X130597676Y-91761904D01*
X130597676Y-91761904D02*
X130692914Y-91714285D01*
X130692914Y-91714285D02*
X130883390Y-91666666D01*
X130883390Y-91666666D02*
X131026247Y-91666666D01*
X131026247Y-91666666D02*
X131216723Y-91714285D01*
X131216723Y-91714285D02*
X131311961Y-91761904D01*
X131311961Y-91761904D02*
X131407200Y-91857142D01*
X131407200Y-91857142D02*
X131454819Y-91999999D01*
X131454819Y-91999999D02*
X131454819Y-92238094D01*
X130454819Y-90761904D02*
X130454819Y-91238094D01*
X130454819Y-91238094D02*
X130931009Y-91285713D01*
X130931009Y-91285713D02*
X130883390Y-91238094D01*
X130883390Y-91238094D02*
X130835771Y-91142856D01*
X130835771Y-91142856D02*
X130835771Y-90904761D01*
X130835771Y-90904761D02*
X130883390Y-90809523D01*
X130883390Y-90809523D02*
X130931009Y-90761904D01*
X130931009Y-90761904D02*
X131026247Y-90714285D01*
X131026247Y-90714285D02*
X131264342Y-90714285D01*
X131264342Y-90714285D02*
X131359580Y-90761904D01*
X131359580Y-90761904D02*
X131407200Y-90809523D01*
X131407200Y-90809523D02*
X131454819Y-90904761D01*
X131454819Y-90904761D02*
X131454819Y-91142856D01*
X131454819Y-91142856D02*
X131407200Y-91238094D01*
X131407200Y-91238094D02*
X131359580Y-91285713D01*
X110479819Y-112778094D02*
X109479819Y-112778094D01*
X109479819Y-112778094D02*
X109479819Y-112539999D01*
X109479819Y-112539999D02*
X109527438Y-112397142D01*
X109527438Y-112397142D02*
X109622676Y-112301904D01*
X109622676Y-112301904D02*
X109717914Y-112254285D01*
X109717914Y-112254285D02*
X109908390Y-112206666D01*
X109908390Y-112206666D02*
X110051247Y-112206666D01*
X110051247Y-112206666D02*
X110241723Y-112254285D01*
X110241723Y-112254285D02*
X110336961Y-112301904D01*
X110336961Y-112301904D02*
X110432200Y-112397142D01*
X110432200Y-112397142D02*
X110479819Y-112539999D01*
X110479819Y-112539999D02*
X110479819Y-112778094D01*
X109479819Y-111873332D02*
X109479819Y-111254285D01*
X109479819Y-111254285D02*
X109860771Y-111587618D01*
X109860771Y-111587618D02*
X109860771Y-111444761D01*
X109860771Y-111444761D02*
X109908390Y-111349523D01*
X109908390Y-111349523D02*
X109956009Y-111301904D01*
X109956009Y-111301904D02*
X110051247Y-111254285D01*
X110051247Y-111254285D02*
X110289342Y-111254285D01*
X110289342Y-111254285D02*
X110384580Y-111301904D01*
X110384580Y-111301904D02*
X110432200Y-111349523D01*
X110432200Y-111349523D02*
X110479819Y-111444761D01*
X110479819Y-111444761D02*
X110479819Y-111730475D01*
X110479819Y-111730475D02*
X110432200Y-111825713D01*
X110432200Y-111825713D02*
X110384580Y-111873332D01*
X87761905Y-79954819D02*
X87761905Y-78954819D01*
X87761905Y-78954819D02*
X88000000Y-78954819D01*
X88000000Y-78954819D02*
X88142857Y-79002438D01*
X88142857Y-79002438D02*
X88238095Y-79097676D01*
X88238095Y-79097676D02*
X88285714Y-79192914D01*
X88285714Y-79192914D02*
X88333333Y-79383390D01*
X88333333Y-79383390D02*
X88333333Y-79526247D01*
X88333333Y-79526247D02*
X88285714Y-79716723D01*
X88285714Y-79716723D02*
X88238095Y-79811961D01*
X88238095Y-79811961D02*
X88142857Y-79907200D01*
X88142857Y-79907200D02*
X88000000Y-79954819D01*
X88000000Y-79954819D02*
X87761905Y-79954819D01*
X88714286Y-79050057D02*
X88761905Y-79002438D01*
X88761905Y-79002438D02*
X88857143Y-78954819D01*
X88857143Y-78954819D02*
X89095238Y-78954819D01*
X89095238Y-78954819D02*
X89190476Y-79002438D01*
X89190476Y-79002438D02*
X89238095Y-79050057D01*
X89238095Y-79050057D02*
X89285714Y-79145295D01*
X89285714Y-79145295D02*
X89285714Y-79240533D01*
X89285714Y-79240533D02*
X89238095Y-79383390D01*
X89238095Y-79383390D02*
X88666667Y-79954819D01*
X88666667Y-79954819D02*
X89285714Y-79954819D01*
D12*
X60166666Y-105207419D02*
X60166666Y-105921704D01*
X60166666Y-105921704D02*
X60119047Y-106064561D01*
X60119047Y-106064561D02*
X60023809Y-106159800D01*
X60023809Y-106159800D02*
X59880952Y-106207419D01*
X59880952Y-106207419D02*
X59785714Y-106207419D01*
X61071428Y-105540752D02*
X61071428Y-106207419D01*
X60833333Y-105159800D02*
X60595238Y-105874085D01*
X60595238Y-105874085D02*
X61214285Y-105874085D01*
X79923020Y-113146866D02*
X78399211Y-113146866D01*
X79161115Y-112384961D02*
X79161115Y-113908771D01*
D11*
X112666666Y-106204819D02*
X112666666Y-106919104D01*
X112666666Y-106919104D02*
X112619047Y-107061961D01*
X112619047Y-107061961D02*
X112523809Y-107157200D01*
X112523809Y-107157200D02*
X112380952Y-107204819D01*
X112380952Y-107204819D02*
X112285714Y-107204819D01*
X113047619Y-106204819D02*
X113714285Y-106204819D01*
X113714285Y-106204819D02*
X113285714Y-107204819D01*
X129333333Y-63454819D02*
X129000000Y-62978628D01*
X128761905Y-63454819D02*
X128761905Y-62454819D01*
X128761905Y-62454819D02*
X129142857Y-62454819D01*
X129142857Y-62454819D02*
X129238095Y-62502438D01*
X129238095Y-62502438D02*
X129285714Y-62550057D01*
X129285714Y-62550057D02*
X129333333Y-62645295D01*
X129333333Y-62645295D02*
X129333333Y-62788152D01*
X129333333Y-62788152D02*
X129285714Y-62883390D01*
X129285714Y-62883390D02*
X129238095Y-62931009D01*
X129238095Y-62931009D02*
X129142857Y-62978628D01*
X129142857Y-62978628D02*
X128761905Y-62978628D01*
X129809524Y-63454819D02*
X130000000Y-63454819D01*
X130000000Y-63454819D02*
X130095238Y-63407200D01*
X130095238Y-63407200D02*
X130142857Y-63359580D01*
X130142857Y-63359580D02*
X130238095Y-63216723D01*
X130238095Y-63216723D02*
X130285714Y-63026247D01*
X130285714Y-63026247D02*
X130285714Y-62645295D01*
X130285714Y-62645295D02*
X130238095Y-62550057D01*
X130238095Y-62550057D02*
X130190476Y-62502438D01*
X130190476Y-62502438D02*
X130095238Y-62454819D01*
X130095238Y-62454819D02*
X129904762Y-62454819D01*
X129904762Y-62454819D02*
X129809524Y-62502438D01*
X129809524Y-62502438D02*
X129761905Y-62550057D01*
X129761905Y-62550057D02*
X129714286Y-62645295D01*
X129714286Y-62645295D02*
X129714286Y-62883390D01*
X129714286Y-62883390D02*
X129761905Y-62978628D01*
X129761905Y-62978628D02*
X129809524Y-63026247D01*
X129809524Y-63026247D02*
X129904762Y-63073866D01*
X129904762Y-63073866D02*
X130095238Y-63073866D01*
X130095238Y-63073866D02*
X130190476Y-63026247D01*
X130190476Y-63026247D02*
X130238095Y-62978628D01*
X130238095Y-62978628D02*
X130285714Y-62883390D01*
X93522666Y-120931009D02*
X93189333Y-120931009D01*
X93189333Y-121454819D02*
X93189333Y-120454819D01*
X93189333Y-120454819D02*
X93665523Y-120454819D01*
X94522666Y-120454819D02*
X94046476Y-120454819D01*
X94046476Y-120454819D02*
X93998857Y-120931009D01*
X93998857Y-120931009D02*
X94046476Y-120883390D01*
X94046476Y-120883390D02*
X94141714Y-120835771D01*
X94141714Y-120835771D02*
X94379809Y-120835771D01*
X94379809Y-120835771D02*
X94475047Y-120883390D01*
X94475047Y-120883390D02*
X94522666Y-120931009D01*
X94522666Y-120931009D02*
X94570285Y-121026247D01*
X94570285Y-121026247D02*
X94570285Y-121264342D01*
X94570285Y-121264342D02*
X94522666Y-121359580D01*
X94522666Y-121359580D02*
X94475047Y-121407200D01*
X94475047Y-121407200D02*
X94379809Y-121454819D01*
X94379809Y-121454819D02*
X94141714Y-121454819D01*
X94141714Y-121454819D02*
X94046476Y-121407200D01*
X94046476Y-121407200D02*
X93998857Y-121359580D01*
X93954819Y-57738094D02*
X92954819Y-57738094D01*
X92954819Y-57738094D02*
X92954819Y-57499999D01*
X92954819Y-57499999D02*
X93002438Y-57357142D01*
X93002438Y-57357142D02*
X93097676Y-57261904D01*
X93097676Y-57261904D02*
X93192914Y-57214285D01*
X93192914Y-57214285D02*
X93383390Y-57166666D01*
X93383390Y-57166666D02*
X93526247Y-57166666D01*
X93526247Y-57166666D02*
X93716723Y-57214285D01*
X93716723Y-57214285D02*
X93811961Y-57261904D01*
X93811961Y-57261904D02*
X93907200Y-57357142D01*
X93907200Y-57357142D02*
X93954819Y-57499999D01*
X93954819Y-57499999D02*
X93954819Y-57738094D01*
X93954819Y-56214285D02*
X93954819Y-56785713D01*
X93954819Y-56499999D02*
X92954819Y-56499999D01*
X92954819Y-56499999D02*
X93097676Y-56595237D01*
X93097676Y-56595237D02*
X93192914Y-56690475D01*
X93192914Y-56690475D02*
X93240533Y-56785713D01*
D12*
X60166666Y-86957419D02*
X60166666Y-87671704D01*
X60166666Y-87671704D02*
X60119047Y-87814561D01*
X60119047Y-87814561D02*
X60023809Y-87909800D01*
X60023809Y-87909800D02*
X59880952Y-87957419D01*
X59880952Y-87957419D02*
X59785714Y-87957419D01*
X60595238Y-87052657D02*
X60642857Y-87005038D01*
X60642857Y-87005038D02*
X60738095Y-86957419D01*
X60738095Y-86957419D02*
X60976190Y-86957419D01*
X60976190Y-86957419D02*
X61071428Y-87005038D01*
X61071428Y-87005038D02*
X61119047Y-87052657D01*
X61119047Y-87052657D02*
X61166666Y-87147895D01*
X61166666Y-87147895D02*
X61166666Y-87243133D01*
X61166666Y-87243133D02*
X61119047Y-87385990D01*
X61119047Y-87385990D02*
X60547619Y-87957419D01*
X60547619Y-87957419D02*
X61166666Y-87957419D01*
X79923020Y-94946866D02*
X78399211Y-94946866D01*
X79161115Y-94184961D02*
X79161115Y-95708771D01*
D11*
X130604819Y-76642857D02*
X130128628Y-76976190D01*
X130604819Y-77214285D02*
X129604819Y-77214285D01*
X129604819Y-77214285D02*
X129604819Y-76833333D01*
X129604819Y-76833333D02*
X129652438Y-76738095D01*
X129652438Y-76738095D02*
X129700057Y-76690476D01*
X129700057Y-76690476D02*
X129795295Y-76642857D01*
X129795295Y-76642857D02*
X129938152Y-76642857D01*
X129938152Y-76642857D02*
X130033390Y-76690476D01*
X130033390Y-76690476D02*
X130081009Y-76738095D01*
X130081009Y-76738095D02*
X130128628Y-76833333D01*
X130128628Y-76833333D02*
X130128628Y-77214285D01*
X130604819Y-75690476D02*
X130604819Y-76261904D01*
X130604819Y-75976190D02*
X129604819Y-75976190D01*
X129604819Y-75976190D02*
X129747676Y-76071428D01*
X129747676Y-76071428D02*
X129842914Y-76166666D01*
X129842914Y-76166666D02*
X129890533Y-76261904D01*
X129604819Y-75071428D02*
X129604819Y-74976190D01*
X129604819Y-74976190D02*
X129652438Y-74880952D01*
X129652438Y-74880952D02*
X129700057Y-74833333D01*
X129700057Y-74833333D02*
X129795295Y-74785714D01*
X129795295Y-74785714D02*
X129985771Y-74738095D01*
X129985771Y-74738095D02*
X130223866Y-74738095D01*
X130223866Y-74738095D02*
X130414342Y-74785714D01*
X130414342Y-74785714D02*
X130509580Y-74833333D01*
X130509580Y-74833333D02*
X130557200Y-74880952D01*
X130557200Y-74880952D02*
X130604819Y-74976190D01*
X130604819Y-74976190D02*
X130604819Y-75071428D01*
X130604819Y-75071428D02*
X130557200Y-75166666D01*
X130557200Y-75166666D02*
X130509580Y-75214285D01*
X130509580Y-75214285D02*
X130414342Y-75261904D01*
X130414342Y-75261904D02*
X130223866Y-75309523D01*
X130223866Y-75309523D02*
X129985771Y-75309523D01*
X129985771Y-75309523D02*
X129795295Y-75261904D01*
X129795295Y-75261904D02*
X129700057Y-75214285D01*
X129700057Y-75214285D02*
X129652438Y-75166666D01*
X129652438Y-75166666D02*
X129604819Y-75071428D01*
X98539580Y-56166666D02*
X98587200Y-56214285D01*
X98587200Y-56214285D02*
X98634819Y-56357142D01*
X98634819Y-56357142D02*
X98634819Y-56452380D01*
X98634819Y-56452380D02*
X98587200Y-56595237D01*
X98587200Y-56595237D02*
X98491961Y-56690475D01*
X98491961Y-56690475D02*
X98396723Y-56738094D01*
X98396723Y-56738094D02*
X98206247Y-56785713D01*
X98206247Y-56785713D02*
X98063390Y-56785713D01*
X98063390Y-56785713D02*
X97872914Y-56738094D01*
X97872914Y-56738094D02*
X97777676Y-56690475D01*
X97777676Y-56690475D02*
X97682438Y-56595237D01*
X97682438Y-56595237D02*
X97634819Y-56452380D01*
X97634819Y-56452380D02*
X97634819Y-56357142D01*
X97634819Y-56357142D02*
X97682438Y-56214285D01*
X97682438Y-56214285D02*
X97730057Y-56166666D01*
X98634819Y-55214285D02*
X98634819Y-55785713D01*
X98634819Y-55499999D02*
X97634819Y-55499999D01*
X97634819Y-55499999D02*
X97777676Y-55595237D01*
X97777676Y-55595237D02*
X97872914Y-55690475D01*
X97872914Y-55690475D02*
X97920533Y-55785713D01*
X123104819Y-76166666D02*
X122628628Y-76499999D01*
X123104819Y-76738094D02*
X122104819Y-76738094D01*
X122104819Y-76738094D02*
X122104819Y-76357142D01*
X122104819Y-76357142D02*
X122152438Y-76261904D01*
X122152438Y-76261904D02*
X122200057Y-76214285D01*
X122200057Y-76214285D02*
X122295295Y-76166666D01*
X122295295Y-76166666D02*
X122438152Y-76166666D01*
X122438152Y-76166666D02*
X122533390Y-76214285D01*
X122533390Y-76214285D02*
X122581009Y-76261904D01*
X122581009Y-76261904D02*
X122628628Y-76357142D01*
X122628628Y-76357142D02*
X122628628Y-76738094D01*
X122533390Y-75595237D02*
X122485771Y-75690475D01*
X122485771Y-75690475D02*
X122438152Y-75738094D01*
X122438152Y-75738094D02*
X122342914Y-75785713D01*
X122342914Y-75785713D02*
X122295295Y-75785713D01*
X122295295Y-75785713D02*
X122200057Y-75738094D01*
X122200057Y-75738094D02*
X122152438Y-75690475D01*
X122152438Y-75690475D02*
X122104819Y-75595237D01*
X122104819Y-75595237D02*
X122104819Y-75404761D01*
X122104819Y-75404761D02*
X122152438Y-75309523D01*
X122152438Y-75309523D02*
X122200057Y-75261904D01*
X122200057Y-75261904D02*
X122295295Y-75214285D01*
X122295295Y-75214285D02*
X122342914Y-75214285D01*
X122342914Y-75214285D02*
X122438152Y-75261904D01*
X122438152Y-75261904D02*
X122485771Y-75309523D01*
X122485771Y-75309523D02*
X122533390Y-75404761D01*
X122533390Y-75404761D02*
X122533390Y-75595237D01*
X122533390Y-75595237D02*
X122581009Y-75690475D01*
X122581009Y-75690475D02*
X122628628Y-75738094D01*
X122628628Y-75738094D02*
X122723866Y-75785713D01*
X122723866Y-75785713D02*
X122914342Y-75785713D01*
X122914342Y-75785713D02*
X123009580Y-75738094D01*
X123009580Y-75738094D02*
X123057200Y-75690475D01*
X123057200Y-75690475D02*
X123104819Y-75595237D01*
X123104819Y-75595237D02*
X123104819Y-75404761D01*
X123104819Y-75404761D02*
X123057200Y-75309523D01*
X123057200Y-75309523D02*
X123009580Y-75261904D01*
X123009580Y-75261904D02*
X122914342Y-75214285D01*
X122914342Y-75214285D02*
X122723866Y-75214285D01*
X122723866Y-75214285D02*
X122628628Y-75261904D01*
X122628628Y-75261904D02*
X122581009Y-75309523D01*
X122581009Y-75309523D02*
X122533390Y-75404761D01*
X127104819Y-76166666D02*
X126628628Y-76499999D01*
X127104819Y-76738094D02*
X126104819Y-76738094D01*
X126104819Y-76738094D02*
X126104819Y-76357142D01*
X126104819Y-76357142D02*
X126152438Y-76261904D01*
X126152438Y-76261904D02*
X126200057Y-76214285D01*
X126200057Y-76214285D02*
X126295295Y-76166666D01*
X126295295Y-76166666D02*
X126438152Y-76166666D01*
X126438152Y-76166666D02*
X126533390Y-76214285D01*
X126533390Y-76214285D02*
X126581009Y-76261904D01*
X126581009Y-76261904D02*
X126628628Y-76357142D01*
X126628628Y-76357142D02*
X126628628Y-76738094D01*
X126104819Y-75309523D02*
X126104819Y-75499999D01*
X126104819Y-75499999D02*
X126152438Y-75595237D01*
X126152438Y-75595237D02*
X126200057Y-75642856D01*
X126200057Y-75642856D02*
X126342914Y-75738094D01*
X126342914Y-75738094D02*
X126533390Y-75785713D01*
X126533390Y-75785713D02*
X126914342Y-75785713D01*
X126914342Y-75785713D02*
X127009580Y-75738094D01*
X127009580Y-75738094D02*
X127057200Y-75690475D01*
X127057200Y-75690475D02*
X127104819Y-75595237D01*
X127104819Y-75595237D02*
X127104819Y-75404761D01*
X127104819Y-75404761D02*
X127057200Y-75309523D01*
X127057200Y-75309523D02*
X127009580Y-75261904D01*
X127009580Y-75261904D02*
X126914342Y-75214285D01*
X126914342Y-75214285D02*
X126676247Y-75214285D01*
X126676247Y-75214285D02*
X126581009Y-75261904D01*
X126581009Y-75261904D02*
X126533390Y-75309523D01*
X126533390Y-75309523D02*
X126485771Y-75404761D01*
X126485771Y-75404761D02*
X126485771Y-75595237D01*
X126485771Y-75595237D02*
X126533390Y-75690475D01*
X126533390Y-75690475D02*
X126581009Y-75738094D01*
X126581009Y-75738094D02*
X126676247Y-75785713D01*
X122333333Y-100679580D02*
X122285714Y-100727200D01*
X122285714Y-100727200D02*
X122142857Y-100774819D01*
X122142857Y-100774819D02*
X122047619Y-100774819D01*
X122047619Y-100774819D02*
X121904762Y-100727200D01*
X121904762Y-100727200D02*
X121809524Y-100631961D01*
X121809524Y-100631961D02*
X121761905Y-100536723D01*
X121761905Y-100536723D02*
X121714286Y-100346247D01*
X121714286Y-100346247D02*
X121714286Y-100203390D01*
X121714286Y-100203390D02*
X121761905Y-100012914D01*
X121761905Y-100012914D02*
X121809524Y-99917676D01*
X121809524Y-99917676D02*
X121904762Y-99822438D01*
X121904762Y-99822438D02*
X122047619Y-99774819D01*
X122047619Y-99774819D02*
X122142857Y-99774819D01*
X122142857Y-99774819D02*
X122285714Y-99822438D01*
X122285714Y-99822438D02*
X122333333Y-99870057D01*
X123190476Y-100108152D02*
X123190476Y-100774819D01*
X122952381Y-99727200D02*
X122714286Y-100441485D01*
X122714286Y-100441485D02*
X123333333Y-100441485D01*
X130704819Y-115166666D02*
X130228628Y-115499999D01*
X130704819Y-115738094D02*
X129704819Y-115738094D01*
X129704819Y-115738094D02*
X129704819Y-115357142D01*
X129704819Y-115357142D02*
X129752438Y-115261904D01*
X129752438Y-115261904D02*
X129800057Y-115214285D01*
X129800057Y-115214285D02*
X129895295Y-115166666D01*
X129895295Y-115166666D02*
X130038152Y-115166666D01*
X130038152Y-115166666D02*
X130133390Y-115214285D01*
X130133390Y-115214285D02*
X130181009Y-115261904D01*
X130181009Y-115261904D02*
X130228628Y-115357142D01*
X130228628Y-115357142D02*
X130228628Y-115738094D01*
X129704819Y-114833332D02*
X129704819Y-114214285D01*
X129704819Y-114214285D02*
X130085771Y-114547618D01*
X130085771Y-114547618D02*
X130085771Y-114404761D01*
X130085771Y-114404761D02*
X130133390Y-114309523D01*
X130133390Y-114309523D02*
X130181009Y-114261904D01*
X130181009Y-114261904D02*
X130276247Y-114214285D01*
X130276247Y-114214285D02*
X130514342Y-114214285D01*
X130514342Y-114214285D02*
X130609580Y-114261904D01*
X130609580Y-114261904D02*
X130657200Y-114309523D01*
X130657200Y-114309523D02*
X130704819Y-114404761D01*
X130704819Y-114404761D02*
X130704819Y-114690475D01*
X130704819Y-114690475D02*
X130657200Y-114785713D01*
X130657200Y-114785713D02*
X130609580Y-114833332D01*
X113539580Y-96166666D02*
X113587200Y-96214285D01*
X113587200Y-96214285D02*
X113634819Y-96357142D01*
X113634819Y-96357142D02*
X113634819Y-96452380D01*
X113634819Y-96452380D02*
X113587200Y-96595237D01*
X113587200Y-96595237D02*
X113491961Y-96690475D01*
X113491961Y-96690475D02*
X113396723Y-96738094D01*
X113396723Y-96738094D02*
X113206247Y-96785713D01*
X113206247Y-96785713D02*
X113063390Y-96785713D01*
X113063390Y-96785713D02*
X112872914Y-96738094D01*
X112872914Y-96738094D02*
X112777676Y-96690475D01*
X112777676Y-96690475D02*
X112682438Y-96595237D01*
X112682438Y-96595237D02*
X112634819Y-96452380D01*
X112634819Y-96452380D02*
X112634819Y-96357142D01*
X112634819Y-96357142D02*
X112682438Y-96214285D01*
X112682438Y-96214285D02*
X112730057Y-96166666D01*
X112634819Y-95309523D02*
X112634819Y-95499999D01*
X112634819Y-95499999D02*
X112682438Y-95595237D01*
X112682438Y-95595237D02*
X112730057Y-95642856D01*
X112730057Y-95642856D02*
X112872914Y-95738094D01*
X112872914Y-95738094D02*
X113063390Y-95785713D01*
X113063390Y-95785713D02*
X113444342Y-95785713D01*
X113444342Y-95785713D02*
X113539580Y-95738094D01*
X113539580Y-95738094D02*
X113587200Y-95690475D01*
X113587200Y-95690475D02*
X113634819Y-95595237D01*
X113634819Y-95595237D02*
X113634819Y-95404761D01*
X113634819Y-95404761D02*
X113587200Y-95309523D01*
X113587200Y-95309523D02*
X113539580Y-95261904D01*
X113539580Y-95261904D02*
X113444342Y-95214285D01*
X113444342Y-95214285D02*
X113206247Y-95214285D01*
X113206247Y-95214285D02*
X113111009Y-95261904D01*
X113111009Y-95261904D02*
X113063390Y-95309523D01*
X113063390Y-95309523D02*
X113015771Y-95404761D01*
X113015771Y-95404761D02*
X113015771Y-95595237D01*
X113015771Y-95595237D02*
X113063390Y-95690475D01*
X113063390Y-95690475D02*
X113111009Y-95738094D01*
X113111009Y-95738094D02*
X113206247Y-95785713D01*
X128204819Y-121511904D02*
X129014342Y-121511904D01*
X129014342Y-121511904D02*
X129109580Y-121464285D01*
X129109580Y-121464285D02*
X129157200Y-121416666D01*
X129157200Y-121416666D02*
X129204819Y-121321428D01*
X129204819Y-121321428D02*
X129204819Y-121130952D01*
X129204819Y-121130952D02*
X129157200Y-121035714D01*
X129157200Y-121035714D02*
X129109580Y-120988095D01*
X129109580Y-120988095D02*
X129014342Y-120940476D01*
X129014342Y-120940476D02*
X128204819Y-120940476D01*
X128300057Y-120511904D02*
X128252438Y-120464285D01*
X128252438Y-120464285D02*
X128204819Y-120369047D01*
X128204819Y-120369047D02*
X128204819Y-120130952D01*
X128204819Y-120130952D02*
X128252438Y-120035714D01*
X128252438Y-120035714D02*
X128300057Y-119988095D01*
X128300057Y-119988095D02*
X128395295Y-119940476D01*
X128395295Y-119940476D02*
X128490533Y-119940476D01*
X128490533Y-119940476D02*
X128633390Y-119988095D01*
X128633390Y-119988095D02*
X129204819Y-120559523D01*
X129204819Y-120559523D02*
X129204819Y-119940476D01*
D12*
X60166666Y-96457419D02*
X60166666Y-97171704D01*
X60166666Y-97171704D02*
X60119047Y-97314561D01*
X60119047Y-97314561D02*
X60023809Y-97409800D01*
X60023809Y-97409800D02*
X59880952Y-97457419D01*
X59880952Y-97457419D02*
X59785714Y-97457419D01*
X60547619Y-96457419D02*
X61166666Y-96457419D01*
X61166666Y-96457419D02*
X60833333Y-96838371D01*
X60833333Y-96838371D02*
X60976190Y-96838371D01*
X60976190Y-96838371D02*
X61071428Y-96885990D01*
X61071428Y-96885990D02*
X61119047Y-96933609D01*
X61119047Y-96933609D02*
X61166666Y-97028847D01*
X61166666Y-97028847D02*
X61166666Y-97266942D01*
X61166666Y-97266942D02*
X61119047Y-97362180D01*
X61119047Y-97362180D02*
X61071428Y-97409800D01*
X61071428Y-97409800D02*
X60976190Y-97457419D01*
X60976190Y-97457419D02*
X60690476Y-97457419D01*
X60690476Y-97457419D02*
X60595238Y-97409800D01*
X60595238Y-97409800D02*
X60547619Y-97362180D01*
X79923020Y-104046866D02*
X78399211Y-104046866D01*
X79161115Y-103284961D02*
X79161115Y-104808771D01*
D11*
X93522666Y-111931009D02*
X93189333Y-111931009D01*
X93189333Y-112454819D02*
X93189333Y-111454819D01*
X93189333Y-111454819D02*
X93665523Y-111454819D01*
X94475047Y-111788152D02*
X94475047Y-112454819D01*
X94236952Y-111407200D02*
X93998857Y-112121485D01*
X93998857Y-112121485D02*
X94617904Y-112121485D01*
X119609580Y-81116666D02*
X119657200Y-81164285D01*
X119657200Y-81164285D02*
X119704819Y-81307142D01*
X119704819Y-81307142D02*
X119704819Y-81402380D01*
X119704819Y-81402380D02*
X119657200Y-81545237D01*
X119657200Y-81545237D02*
X119561961Y-81640475D01*
X119561961Y-81640475D02*
X119466723Y-81688094D01*
X119466723Y-81688094D02*
X119276247Y-81735713D01*
X119276247Y-81735713D02*
X119133390Y-81735713D01*
X119133390Y-81735713D02*
X118942914Y-81688094D01*
X118942914Y-81688094D02*
X118847676Y-81640475D01*
X118847676Y-81640475D02*
X118752438Y-81545237D01*
X118752438Y-81545237D02*
X118704819Y-81402380D01*
X118704819Y-81402380D02*
X118704819Y-81307142D01*
X118704819Y-81307142D02*
X118752438Y-81164285D01*
X118752438Y-81164285D02*
X118800057Y-81116666D01*
X118704819Y-80783332D02*
X118704819Y-80116666D01*
X118704819Y-80116666D02*
X119704819Y-80545237D01*
X118559580Y-57166666D02*
X118607200Y-57214285D01*
X118607200Y-57214285D02*
X118654819Y-57357142D01*
X118654819Y-57357142D02*
X118654819Y-57452380D01*
X118654819Y-57452380D02*
X118607200Y-57595237D01*
X118607200Y-57595237D02*
X118511961Y-57690475D01*
X118511961Y-57690475D02*
X118416723Y-57738094D01*
X118416723Y-57738094D02*
X118226247Y-57785713D01*
X118226247Y-57785713D02*
X118083390Y-57785713D01*
X118083390Y-57785713D02*
X117892914Y-57738094D01*
X117892914Y-57738094D02*
X117797676Y-57690475D01*
X117797676Y-57690475D02*
X117702438Y-57595237D01*
X117702438Y-57595237D02*
X117654819Y-57452380D01*
X117654819Y-57452380D02*
X117654819Y-57357142D01*
X117654819Y-57357142D02*
X117702438Y-57214285D01*
X117702438Y-57214285D02*
X117750057Y-57166666D01*
X117654819Y-56833332D02*
X117654819Y-56214285D01*
X117654819Y-56214285D02*
X118035771Y-56547618D01*
X118035771Y-56547618D02*
X118035771Y-56404761D01*
X118035771Y-56404761D02*
X118083390Y-56309523D01*
X118083390Y-56309523D02*
X118131009Y-56261904D01*
X118131009Y-56261904D02*
X118226247Y-56214285D01*
X118226247Y-56214285D02*
X118464342Y-56214285D01*
X118464342Y-56214285D02*
X118559580Y-56261904D01*
X118559580Y-56261904D02*
X118607200Y-56309523D01*
X118607200Y-56309523D02*
X118654819Y-56404761D01*
X118654819Y-56404761D02*
X118654819Y-56690475D01*
X118654819Y-56690475D02*
X118607200Y-56785713D01*
X118607200Y-56785713D02*
X118559580Y-56833332D01*
X110039580Y-56166666D02*
X110087200Y-56214285D01*
X110087200Y-56214285D02*
X110134819Y-56357142D01*
X110134819Y-56357142D02*
X110134819Y-56452380D01*
X110134819Y-56452380D02*
X110087200Y-56595237D01*
X110087200Y-56595237D02*
X109991961Y-56690475D01*
X109991961Y-56690475D02*
X109896723Y-56738094D01*
X109896723Y-56738094D02*
X109706247Y-56785713D01*
X109706247Y-56785713D02*
X109563390Y-56785713D01*
X109563390Y-56785713D02*
X109372914Y-56738094D01*
X109372914Y-56738094D02*
X109277676Y-56690475D01*
X109277676Y-56690475D02*
X109182438Y-56595237D01*
X109182438Y-56595237D02*
X109134819Y-56452380D01*
X109134819Y-56452380D02*
X109134819Y-56357142D01*
X109134819Y-56357142D02*
X109182438Y-56214285D01*
X109182438Y-56214285D02*
X109230057Y-56166666D01*
X109134819Y-55261904D02*
X109134819Y-55738094D01*
X109134819Y-55738094D02*
X109611009Y-55785713D01*
X109611009Y-55785713D02*
X109563390Y-55738094D01*
X109563390Y-55738094D02*
X109515771Y-55642856D01*
X109515771Y-55642856D02*
X109515771Y-55404761D01*
X109515771Y-55404761D02*
X109563390Y-55309523D01*
X109563390Y-55309523D02*
X109611009Y-55261904D01*
X109611009Y-55261904D02*
X109706247Y-55214285D01*
X109706247Y-55214285D02*
X109944342Y-55214285D01*
X109944342Y-55214285D02*
X110039580Y-55261904D01*
X110039580Y-55261904D02*
X110087200Y-55309523D01*
X110087200Y-55309523D02*
X110134819Y-55404761D01*
X110134819Y-55404761D02*
X110134819Y-55642856D01*
X110134819Y-55642856D02*
X110087200Y-55738094D01*
X110087200Y-55738094D02*
X110039580Y-55785713D01*
D13*
%TO.C,U1*%
X102690000Y-55055000D02*
X103580000Y-55055000D01*
X103580000Y-55055000D02*
X103580000Y-56905000D01*
X100460000Y-55040000D02*
X100460000Y-56890000D01*
X100460000Y-55040000D02*
X101350000Y-55040000D01*
X100450000Y-57280000D02*
X100120000Y-57520000D01*
X100120000Y-57040000D01*
X100450000Y-57280000D01*
G36*
X100450000Y-57280000D02*
G01*
X100120000Y-57520000D01*
X100120000Y-57040000D01*
X100450000Y-57280000D01*
G37*
%TO.C,Q1*%
X110940000Y-90500000D02*
X110940000Y-89850000D01*
X110940000Y-90500000D02*
X110940000Y-91150000D01*
X114060000Y-90500000D02*
X114060000Y-89850000D01*
X114060000Y-90500000D02*
X114060000Y-91150000D01*
X110990000Y-91662500D02*
X110660000Y-91902500D01*
X110660000Y-91422500D01*
X110990000Y-91662500D01*
G36*
X110990000Y-91662500D02*
G01*
X110660000Y-91902500D01*
X110660000Y-91422500D01*
X110990000Y-91662500D01*
G37*
%TO.C,Q3*%
X126940000Y-70000000D02*
X126940000Y-69350000D01*
X126940000Y-70000000D02*
X126940000Y-70650000D01*
X130060000Y-70000000D02*
X130060000Y-69350000D01*
X130060000Y-70000000D02*
X130060000Y-70650000D01*
X126990000Y-71162500D02*
X126660000Y-71402500D01*
X126660000Y-70922500D01*
X126990000Y-71162500D01*
G36*
X126990000Y-71162500D02*
G01*
X126660000Y-71402500D01*
X126660000Y-70922500D01*
X126990000Y-71162500D01*
G37*
%TO.C,Q2*%
X121502500Y-69937500D02*
X121502500Y-69287500D01*
X121502500Y-69937500D02*
X121502500Y-70587500D01*
X124622500Y-69937500D02*
X124622500Y-69287500D01*
X124622500Y-69937500D02*
X124622500Y-70587500D01*
X121552500Y-71100000D02*
X121222500Y-71340000D01*
X121222500Y-70860000D01*
X121552500Y-71100000D01*
G36*
X121552500Y-71100000D02*
G01*
X121222500Y-71340000D01*
X121222500Y-70860000D01*
X121552500Y-71100000D01*
G37*
D14*
%TO.C,F3*%
X83109000Y-97018800D02*
X83109000Y-101717800D01*
X83109000Y-101717800D02*
X102667000Y-101717800D01*
X102667000Y-97018800D02*
X83109000Y-97018800D01*
X102667000Y-101717800D02*
X102667000Y-97018800D01*
D13*
%TO.C,U3*%
X122500000Y-105565000D02*
X120550000Y-105565000D01*
X122500000Y-105565000D02*
X124450000Y-105565000D01*
X122500000Y-114435000D02*
X120550000Y-114435000D01*
X122500000Y-114435000D02*
X124450000Y-114435000D01*
X119800000Y-105630000D02*
X119560000Y-105300000D01*
X120040000Y-105300000D01*
X119800000Y-105630000D01*
G36*
X119800000Y-105630000D02*
G01*
X119560000Y-105300000D01*
X120040000Y-105300000D01*
X119800000Y-105630000D01*
G37*
D12*
%TO.C,J1*%
X62000000Y-65500000D02*
X62000000Y-66000000D01*
X62000000Y-70000000D02*
X62000000Y-73500000D01*
X62000000Y-70000000D02*
X62500000Y-70000000D01*
X62000000Y-73500000D02*
X78000000Y-73500000D01*
X62500000Y-65500000D02*
X62000000Y-65500000D01*
X62500000Y-70000000D02*
X62500000Y-65500000D01*
X70000000Y-73500000D02*
X70000000Y-65500000D01*
X77500000Y-65500000D02*
X62500000Y-65500000D01*
X77500000Y-65500000D02*
X78000000Y-65500000D01*
X77500000Y-70000000D02*
X77500000Y-65500000D01*
X77500000Y-70000000D02*
X78000000Y-70000000D01*
X78000000Y-65500000D02*
X78000000Y-66000000D01*
X78000000Y-70000000D02*
X78000000Y-73500000D01*
%TO.C,J5*%
X61965000Y-113235000D02*
X61965000Y-113735000D01*
X61965000Y-117735000D02*
X61965000Y-121235000D01*
X61965000Y-117735000D02*
X62465000Y-117735000D01*
X61965000Y-121235000D02*
X77965000Y-121235000D01*
X62465000Y-113235000D02*
X61965000Y-113235000D01*
X62465000Y-117735000D02*
X62465000Y-113235000D01*
X69965000Y-121235000D02*
X69965000Y-113235000D01*
X77465000Y-113235000D02*
X62465000Y-113235000D01*
X77465000Y-113235000D02*
X77965000Y-113235000D01*
X77465000Y-117735000D02*
X77465000Y-113235000D01*
X77465000Y-117735000D02*
X77965000Y-117735000D01*
X77965000Y-113235000D02*
X77965000Y-113735000D01*
X77965000Y-117735000D02*
X77965000Y-121235000D01*
D14*
%TO.C,F2*%
X83109000Y-88018800D02*
X83109000Y-92717800D01*
X83109000Y-92717800D02*
X102667000Y-92717800D01*
X102667000Y-88018800D02*
X83109000Y-88018800D01*
X102667000Y-92717800D02*
X102667000Y-88018800D01*
D13*
%TO.C,D4*%
X106365000Y-99215000D02*
X106365000Y-103100000D01*
X108635000Y-99215000D02*
X106365000Y-99215000D01*
X108635000Y-103100000D02*
X108635000Y-99215000D01*
%TO.C,C8*%
X110765000Y-101761252D02*
X110765000Y-101238748D01*
X112235000Y-101761252D02*
X112235000Y-101238748D01*
%TO.C,R1*%
X106727500Y-90210436D02*
X106727500Y-90664564D01*
X108197500Y-90210436D02*
X108197500Y-90664564D01*
%TO.C,R7*%
X107115000Y-78885000D02*
X107115000Y-69115000D01*
X116885000Y-69115000D02*
X107115000Y-69115000D01*
X116885000Y-78885000D02*
X107115000Y-78885000D01*
X116885000Y-78885000D02*
X116885000Y-69115000D01*
%TO.C,F1*%
X83590000Y-57602064D02*
X83590000Y-56397936D01*
X85410000Y-57602064D02*
X85410000Y-56397936D01*
%TO.C,J8*%
X104750000Y-122670000D02*
X120250000Y-122670000D01*
X104750000Y-131790000D02*
X104750000Y-122670000D01*
X106050000Y-123980000D02*
X118950000Y-123980000D01*
X106050000Y-130480000D02*
X106050000Y-123980000D01*
X109460000Y-133180000D02*
X110460000Y-133180000D01*
X109960000Y-132180000D02*
X109460000Y-133180000D01*
X110450000Y-130480000D02*
X106050000Y-130480000D01*
X110450000Y-131790000D02*
X110450000Y-130480000D01*
X110460000Y-133180000D02*
X109960000Y-132180000D01*
X114550000Y-130480000D02*
X114550000Y-130480000D01*
X114550000Y-130480000D02*
X114550000Y-131790000D01*
X118950000Y-123980000D02*
X118950000Y-130480000D01*
X118950000Y-130480000D02*
X114550000Y-130480000D01*
X120250000Y-122670000D02*
X120250000Y-131790000D01*
X120250000Y-131790000D02*
X104750000Y-131790000D01*
D14*
%TO.C,J6*%
X117375800Y-87724800D02*
X117375800Y-89300000D01*
X117375800Y-96700000D02*
X117375800Y-97275200D01*
X117375800Y-97275200D02*
X119597199Y-97275200D01*
X117397199Y-92524800D02*
X117397199Y-94100000D01*
X118397199Y-87724800D02*
X117375800Y-87724800D01*
X122197199Y-97275200D02*
X123624200Y-97275200D01*
X123624200Y-87724800D02*
X121597199Y-87724800D01*
X123624200Y-88300000D02*
X123624200Y-87724800D01*
X123624200Y-97275200D02*
X123624200Y-90399947D01*
D13*
%TO.C,R5*%
X106765000Y-96227064D02*
X106765000Y-95772936D01*
X108235000Y-96227064D02*
X108235000Y-95772936D01*
D14*
%TO.C,U4*%
X84016400Y-67216800D02*
X84016400Y-67700000D01*
X84016400Y-77783200D02*
X84016400Y-71399979D01*
X84016400Y-77783200D02*
X100983600Y-77783200D01*
X100983600Y-67216800D02*
X84016400Y-67216800D01*
X100983600Y-67900000D02*
X100983600Y-67216800D01*
X100983600Y-72804800D02*
X100983600Y-72195200D01*
X100983600Y-77783200D02*
X100983600Y-77100000D01*
D13*
%TO.C,R2*%
X127765000Y-110272936D02*
X127765000Y-110727064D01*
X129235000Y-110272936D02*
X129235000Y-110727064D01*
%TO.C,C9*%
X124265000Y-80738748D02*
X124265000Y-81261252D01*
X125735000Y-80738748D02*
X125735000Y-81261252D01*
%TO.C,R11*%
X127765000Y-80772936D02*
X127765000Y-81227064D01*
X129235000Y-80772936D02*
X129235000Y-81227064D01*
%TO.C,D5*%
X126850000Y-87990000D02*
X126850000Y-93500000D01*
X130150000Y-87990000D02*
X126850000Y-87990000D01*
X130150000Y-87990000D02*
X130150000Y-93500000D01*
%TO.C,D3*%
X105875000Y-108530000D02*
X105875000Y-114040000D01*
X109175000Y-108530000D02*
X105875000Y-108530000D01*
X109175000Y-108530000D02*
X109175000Y-114040000D01*
%TO.C,D2*%
X84990000Y-80350000D02*
X84990000Y-83650000D01*
X84990000Y-80350000D02*
X90500000Y-80350000D01*
X84990000Y-83650000D02*
X90500000Y-83650000D01*
D12*
%TO.C,J4*%
X61965000Y-104135000D02*
X61965000Y-104635000D01*
X61965000Y-108635000D02*
X61965000Y-112135000D01*
X61965000Y-108635000D02*
X62465000Y-108635000D01*
X61965000Y-112135000D02*
X77965000Y-112135000D01*
X62465000Y-104135000D02*
X61965000Y-104135000D01*
X62465000Y-108635000D02*
X62465000Y-104135000D01*
X69965000Y-112135000D02*
X69965000Y-104135000D01*
X77465000Y-104135000D02*
X62465000Y-104135000D01*
X77465000Y-104135000D02*
X77965000Y-104135000D01*
X77465000Y-108635000D02*
X77465000Y-104135000D01*
X77465000Y-108635000D02*
X77965000Y-108635000D01*
X77965000Y-104135000D02*
X77965000Y-104635000D01*
X77965000Y-108635000D02*
X77965000Y-112135000D01*
D13*
%TO.C,J7*%
X112195000Y-113350000D02*
X112195000Y-108210000D01*
X112195000Y-115950000D02*
X112195000Y-114620000D01*
X113525000Y-115950000D02*
X112195000Y-115950000D01*
X114855000Y-108210000D02*
X112195000Y-108210000D01*
X114855000Y-113350000D02*
X112195000Y-113350000D01*
X114855000Y-113350000D02*
X114855000Y-108210000D01*
%TO.C,R9*%
X128727064Y-64265000D02*
X128272936Y-64265000D01*
X128727064Y-65735000D02*
X128272936Y-65735000D01*
D14*
%TO.C,F5*%
X83189000Y-115018800D02*
X83189000Y-119717800D01*
X83189000Y-119717800D02*
X102747000Y-119717800D01*
X102747000Y-115018800D02*
X83189000Y-115018800D01*
X102747000Y-119717800D02*
X102747000Y-115018800D01*
D13*
%TO.C,D1*%
X89350000Y-53490000D02*
X89350000Y-59000000D01*
X92650000Y-53490000D02*
X89350000Y-53490000D01*
X92650000Y-53490000D02*
X92650000Y-59000000D01*
D12*
%TO.C,J2*%
X61965000Y-85935000D02*
X61965000Y-86435000D01*
X61965000Y-90435000D02*
X61965000Y-93935000D01*
X61965000Y-90435000D02*
X62465000Y-90435000D01*
X61965000Y-93935000D02*
X77965000Y-93935000D01*
X62465000Y-85935000D02*
X61965000Y-85935000D01*
X62465000Y-90435000D02*
X62465000Y-85935000D01*
X69965000Y-93935000D02*
X69965000Y-85935000D01*
X77465000Y-85935000D02*
X62465000Y-85935000D01*
X77465000Y-85935000D02*
X77965000Y-85935000D01*
X77465000Y-90435000D02*
X77465000Y-85935000D01*
X77465000Y-90435000D02*
X77965000Y-90435000D01*
X77965000Y-85935000D02*
X77965000Y-86435000D01*
X77965000Y-90435000D02*
X77965000Y-93935000D01*
D13*
%TO.C,R10*%
X127765000Y-75772936D02*
X127765000Y-76227064D01*
X129235000Y-75772936D02*
X129235000Y-76227064D01*
%TO.C,C1*%
X95765000Y-55738748D02*
X95765000Y-56261252D01*
X97235000Y-55738748D02*
X97235000Y-56261252D01*
%TO.C,R8*%
X120265000Y-75772936D02*
X120265000Y-76227064D01*
X121735000Y-75772936D02*
X121735000Y-76227064D01*
%TO.C,R6*%
X124265000Y-75772936D02*
X124265000Y-76227064D01*
X125735000Y-75772936D02*
X125735000Y-76227064D01*
%TO.C,C4*%
X122238748Y-101265000D02*
X122761252Y-101265000D01*
X122238748Y-102735000D02*
X122761252Y-102735000D01*
%TO.C,R3*%
X127765000Y-115227064D02*
X127765000Y-114772936D01*
X129235000Y-115227064D02*
X129235000Y-114772936D01*
%TO.C,C6*%
X110765000Y-95738748D02*
X110765000Y-96261252D01*
X112235000Y-95738748D02*
X112235000Y-96261252D01*
%TO.C,U2*%
X125400000Y-118900000D02*
X125900000Y-118900000D01*
X125400000Y-119400000D02*
X125400000Y-118900000D01*
X125400000Y-120600000D02*
X125400000Y-120600000D01*
X125400000Y-121100000D02*
X125400000Y-120600000D01*
X125900000Y-118900000D02*
X125900000Y-118900000D01*
X125900000Y-121100000D02*
X125400000Y-121100000D01*
X127100000Y-118900000D02*
X127400000Y-118900000D01*
X127100000Y-121100000D02*
X127100000Y-121100000D01*
X127600000Y-118900000D02*
X127600000Y-118900000D01*
X127600000Y-119400000D02*
X127600000Y-119100000D01*
X127600000Y-120600000D02*
X127600000Y-121100000D01*
X127600000Y-121100000D02*
X127100000Y-121100000D01*
X127960000Y-118900000D02*
X127600000Y-118900000D01*
X127600000Y-118540000D01*
X127960000Y-118900000D01*
G36*
X127960000Y-118900000D02*
G01*
X127600000Y-118900000D01*
X127600000Y-118540000D01*
X127960000Y-118900000D01*
G37*
D12*
%TO.C,J3*%
X61965000Y-95035000D02*
X61965000Y-95535000D01*
X61965000Y-99535000D02*
X61965000Y-103035000D01*
X61965000Y-99535000D02*
X62465000Y-99535000D01*
X61965000Y-103035000D02*
X77965000Y-103035000D01*
X62465000Y-95035000D02*
X61965000Y-95035000D01*
X62465000Y-99535000D02*
X62465000Y-95035000D01*
X69965000Y-103035000D02*
X69965000Y-95035000D01*
X77465000Y-95035000D02*
X62465000Y-95035000D01*
X77465000Y-95035000D02*
X77965000Y-95035000D01*
X77465000Y-99535000D02*
X77465000Y-95035000D01*
X77465000Y-99535000D02*
X77965000Y-99535000D01*
X77965000Y-95035000D02*
X77965000Y-95535000D01*
X77965000Y-99535000D02*
X77965000Y-103035000D01*
D14*
%TO.C,F4*%
X83189000Y-106018800D02*
X83189000Y-110717800D01*
X83189000Y-110717800D02*
X102747000Y-110717800D01*
X102747000Y-106018800D02*
X83189000Y-106018800D01*
X102747000Y-110717800D02*
X102747000Y-106018800D01*
D13*
%TO.C,C7*%
X120265000Y-80688748D02*
X120265000Y-81211252D01*
X121735000Y-80688748D02*
X121735000Y-81211252D01*
%TO.C,C3*%
X112740000Y-55804437D02*
X112740000Y-59260000D01*
X112740000Y-59260000D02*
X113940000Y-59260000D01*
X113804437Y-54740000D02*
X112740000Y-55804437D01*
X113804437Y-54740000D02*
X113940000Y-54740000D01*
X116195563Y-54740000D02*
X116060000Y-54740000D01*
X116195563Y-54740000D02*
X117260000Y-55804437D01*
X116560000Y-54000000D02*
X116560000Y-54500000D01*
X116810000Y-54250000D02*
X116310000Y-54250000D01*
X117260000Y-55804437D02*
X117260000Y-59260000D01*
X117260000Y-59260000D02*
X116060000Y-59260000D01*
%TO.C,C5*%
X107265000Y-55738748D02*
X107265000Y-56261252D01*
X108735000Y-55738748D02*
X108735000Y-56261252D01*
%TD*%
M02*
