%TF.GenerationSoftware,KiCad,Pcbnew,8.0.3*%
%TF.CreationDate,2024-06-23T19:26:25-05:00*%
%TF.ProjectId,Vehicle Power Switch,56656869-636c-4652-9050-6f7765722053,rev?*%
%TF.SameCoordinates,Original*%
%TF.FileFunction,Soldermask,Top*%
%TF.FilePolarity,Negative*%
%FSLAX46Y46*%
G04 Gerber Fmt 4.6, Leading zero omitted, Abs format (unit mm)*
G04 Created by KiCad (PCBNEW 8.0.3) date 2024-06-23 19:26:25*
%MOMM*%
%LPD*%
G01*
G04 APERTURE LIST*
G04 Aperture macros list*
%AMRoundRect*
0 Rectangle with rounded corners*
0 $1 Rounding radius*
0 $2 $3 $4 $5 $6 $7 $8 $9 X,Y pos of 4 corners*
0 Add a 4 corners polygon primitive as box body*
4,1,4,$2,$3,$4,$5,$6,$7,$8,$9,$2,$3,0*
0 Add four circle primitives for the rounded corners*
1,1,$1+$1,$2,$3*
1,1,$1+$1,$4,$5*
1,1,$1+$1,$6,$7*
1,1,$1+$1,$8,$9*
0 Add four rect primitives between the rounded corners*
20,1,$1+$1,$2,$3,$4,$5,0*
20,1,$1+$1,$4,$5,$6,$7,0*
20,1,$1+$1,$6,$7,$8,$9,0*
20,1,$1+$1,$8,$9,$2,$3,0*%
G04 Aperture macros list end*
%ADD10C,5.500000*%
%ADD11RoundRect,0.162500X0.162500X-0.447500X0.162500X0.447500X-0.162500X0.447500X-0.162500X-0.447500X0*%
%ADD12RoundRect,0.150000X0.150000X-0.587500X0.150000X0.587500X-0.150000X0.587500X-0.150000X-0.587500X0*%
%ADD13C,3.098800*%
%ADD14RoundRect,0.150000X-0.825000X-0.150000X0.825000X-0.150000X0.825000X0.150000X-0.825000X0.150000X0*%
%ADD15RoundRect,0.500000X2.500000X2.500000X-2.500000X2.500000X-2.500000X-2.500000X2.500000X-2.500000X0*%
%ADD16RoundRect,0.250000X-0.625000X0.375000X-0.625000X-0.375000X0.625000X-0.375000X0.625000X0.375000X0*%
%ADD17RoundRect,0.250000X0.475000X-0.250000X0.475000X0.250000X-0.475000X0.250000X-0.475000X-0.250000X0*%
%ADD18RoundRect,0.250000X-0.450000X0.262500X-0.450000X-0.262500X0.450000X-0.262500X0.450000X0.262500X0*%
%ADD19C,1.440000*%
%ADD20RoundRect,0.250000X0.625000X-0.375000X0.625000X0.375000X-0.625000X0.375000X-0.625000X-0.375000X0*%
%ADD21RoundRect,0.250000X0.600000X-0.600000X0.600000X0.600000X-0.600000X0.600000X-0.600000X-0.600000X0*%
%ADD22C,1.700000*%
%ADD23C,2.000000*%
%ADD24RoundRect,0.250000X0.450000X-0.262500X0.450000X0.262500X-0.450000X0.262500X-0.450000X-0.262500X0*%
%ADD25C,2.870200*%
%ADD26C,3.060700*%
%ADD27RoundRect,0.250000X-0.475000X0.250000X-0.475000X-0.250000X0.475000X-0.250000X0.475000X0.250000X0*%
%ADD28RoundRect,0.250000X-0.650000X1.000000X-0.650000X-1.000000X0.650000X-1.000000X0.650000X1.000000X0*%
%ADD29RoundRect,0.250000X-1.000000X-0.650000X1.000000X-0.650000X1.000000X0.650000X-1.000000X0.650000X0*%
%ADD30R,1.700000X1.700000*%
%ADD31O,1.700000X1.700000*%
%ADD32RoundRect,0.250000X0.262500X0.450000X-0.262500X0.450000X-0.262500X-0.450000X0.262500X-0.450000X0*%
%ADD33RoundRect,0.250000X-0.250000X-0.475000X0.250000X-0.475000X0.250000X0.475000X-0.250000X0.475000X0*%
%ADD34R,0.350000X0.375000*%
%ADD35R,0.375000X0.350000*%
%ADD36RoundRect,0.250000X-0.550000X1.050000X-0.550000X-1.050000X0.550000X-1.050000X0.550000X1.050000X0*%
G04 APERTURE END LIST*
D10*
%TO.C,H4*%
X62000000Y-128500000D03*
%TD*%
%TO.C,H3*%
X62000000Y-57000000D03*
%TD*%
%TO.C,H2*%
X126500000Y-128500000D03*
%TD*%
%TO.C,H1*%
X126500000Y-57000000D03*
%TD*%
D11*
%TO.C,U1*%
X101050000Y-57310000D03*
X102950000Y-57310000D03*
X102000000Y-54690000D03*
%TD*%
D12*
%TO.C,Q1*%
X111550000Y-91437500D03*
X113450000Y-91437500D03*
X112500000Y-89562500D03*
%TD*%
%TO.C,Q3*%
X127550000Y-70937500D03*
X129450000Y-70937500D03*
X128500000Y-69062500D03*
%TD*%
%TO.C,Q2*%
X122112500Y-70875000D03*
X124012500Y-70875000D03*
X123062500Y-69000000D03*
%TD*%
D13*
%TO.C,F3*%
X85776000Y-99000000D03*
X90856000Y-99000000D03*
X94920000Y-99000000D03*
X100000000Y-99000000D03*
%TD*%
D14*
%TO.C,U3*%
X120025000Y-106190000D03*
X120025000Y-107460000D03*
X120025000Y-108730000D03*
X120025000Y-110000000D03*
X120025000Y-111270000D03*
X120025000Y-112540000D03*
X120025000Y-113810000D03*
X124975000Y-113810000D03*
X124975000Y-112540000D03*
X124975000Y-111270000D03*
X124975000Y-110000000D03*
X124975000Y-108730000D03*
X124975000Y-107460000D03*
X124975000Y-106190000D03*
%TD*%
D15*
%TO.C,J1*%
X73800000Y-69500000D03*
X66200000Y-69500000D03*
%TD*%
%TO.C,J5*%
X73765000Y-117235000D03*
X66165000Y-117235000D03*
%TD*%
D13*
%TO.C,F2*%
X85776000Y-90000000D03*
X90856000Y-90000000D03*
X94920000Y-90000000D03*
X100000000Y-90000000D03*
%TD*%
D16*
%TO.C,D4*%
X107500000Y-100100000D03*
X107500000Y-102900000D03*
%TD*%
D17*
%TO.C,C8*%
X111500000Y-102450000D03*
X111500000Y-100550000D03*
%TD*%
D18*
%TO.C,R1*%
X107462500Y-89525000D03*
X107462500Y-91350000D03*
%TD*%
D19*
%TO.C,R7*%
X111985000Y-71460000D03*
X109445000Y-74000000D03*
X111985000Y-76540000D03*
%TD*%
D20*
%TO.C,F1*%
X84500000Y-58400000D03*
X84500000Y-55600000D03*
%TD*%
D21*
%TO.C,J8*%
X109960000Y-128500000D03*
D22*
X109960000Y-125960000D03*
X112500000Y-128500000D03*
X112500000Y-125960000D03*
X115040000Y-128500000D03*
X115040000Y-125960000D03*
%TD*%
D23*
%TO.C,J6*%
X120097199Y-88500000D03*
X122617199Y-89349892D03*
X118377200Y-95649998D03*
X120897200Y-96399999D03*
X118377200Y-90950000D03*
%TD*%
D24*
%TO.C,R5*%
X107500000Y-96912500D03*
X107500000Y-95087500D03*
%TD*%
D25*
%TO.C,U4*%
X99967600Y-69706000D03*
X90518800Y-69299600D03*
D26*
X85032400Y-69502800D03*
D25*
X90518800Y-75700400D03*
X99967600Y-75294000D03*
%TD*%
D18*
%TO.C,R2*%
X128500000Y-109587500D03*
X128500000Y-111412500D03*
%TD*%
D27*
%TO.C,C9*%
X125000000Y-80050000D03*
X125000000Y-81950000D03*
%TD*%
D18*
%TO.C,R11*%
X128500000Y-80087500D03*
X128500000Y-81912500D03*
%TD*%
D28*
%TO.C,D5*%
X128500000Y-89500000D03*
X128500000Y-93500000D03*
%TD*%
%TO.C,D3*%
X107525000Y-110040000D03*
X107525000Y-114040000D03*
%TD*%
D29*
%TO.C,D2*%
X86500000Y-82000000D03*
X90500000Y-82000000D03*
%TD*%
D15*
%TO.C,J4*%
X73765000Y-108135000D03*
X66165000Y-108135000D03*
%TD*%
D30*
%TO.C,J7*%
X113525000Y-114620000D03*
D31*
X113525000Y-112080000D03*
X113525000Y-109540000D03*
%TD*%
D32*
%TO.C,R9*%
X129412500Y-65000000D03*
X127587500Y-65000000D03*
%TD*%
D13*
%TO.C,F5*%
X85856000Y-117000000D03*
X90936000Y-117000000D03*
X95000000Y-117000000D03*
X100080000Y-117000000D03*
%TD*%
D28*
%TO.C,D1*%
X91000000Y-55000000D03*
X91000000Y-59000000D03*
%TD*%
D15*
%TO.C,J2*%
X73765000Y-89935000D03*
X66165000Y-89935000D03*
%TD*%
D18*
%TO.C,R10*%
X128500000Y-75087500D03*
X128500000Y-76912500D03*
%TD*%
D27*
%TO.C,C1*%
X96500000Y-55050000D03*
X96500000Y-56950000D03*
%TD*%
D18*
%TO.C,R8*%
X121000000Y-75087500D03*
X121000000Y-76912500D03*
%TD*%
%TO.C,R6*%
X125000000Y-75087500D03*
X125000000Y-76912500D03*
%TD*%
D33*
%TO.C,C4*%
X121550000Y-102000000D03*
X123450000Y-102000000D03*
%TD*%
D24*
%TO.C,R3*%
X128500000Y-115912500D03*
X128500000Y-114087500D03*
%TD*%
D27*
%TO.C,C6*%
X111500000Y-95050000D03*
X111500000Y-96950000D03*
%TD*%
D34*
%TO.C,U2*%
X127250000Y-119237500D03*
X126750000Y-119237500D03*
X126250000Y-119237500D03*
X125750000Y-119237500D03*
D35*
X125737500Y-119750000D03*
X125737500Y-120250000D03*
D34*
X125750000Y-120762500D03*
X126250000Y-120762500D03*
X126750000Y-120762500D03*
X127250000Y-120762500D03*
D35*
X127262500Y-120250000D03*
X127262500Y-119750000D03*
%TD*%
D15*
%TO.C,J3*%
X73765000Y-99035000D03*
X66165000Y-99035000D03*
%TD*%
D13*
%TO.C,F4*%
X85856000Y-108000000D03*
X90936000Y-108000000D03*
X95000000Y-108000000D03*
X100080000Y-108000000D03*
%TD*%
D27*
%TO.C,C7*%
X121000000Y-80000000D03*
X121000000Y-81900000D03*
%TD*%
D36*
%TO.C,C3*%
X115000000Y-55200000D03*
X115000000Y-58800000D03*
%TD*%
D27*
%TO.C,C5*%
X108000000Y-55050000D03*
X108000000Y-56950000D03*
%TD*%
M02*
