M48
; DRILL file {KiCad 8.0.3} date 2024-06-23T19:26:28-0500
; FORMAT={-:-/ absolute / inch / decimal}
; #@! TF.CreationDate,2024-06-23T19:26:28-05:00
; #@! TF.GenerationSoftware,Kicad,Pcbnew,8.0.3
; #@! TF.FileFunction,Plated,1,2,PTH
FMAT,2
INCH
; #@! TA.AperFunction,Plated,PTH,ViaDrill
T1C0.0118
; #@! TA.AperFunction,Plated,PTH,ComponentDrill
T2C0.0315
; #@! TA.AperFunction,Plated,PTH,ComponentDrill
T3C0.0394
; #@! TA.AperFunction,Plated,PTH,ComponentDrill
T4C0.0472
; #@! TA.AperFunction,Plated,PTH,ComponentDrill
T5C0.0700
; #@! TA.AperFunction,Plated,PTH,ComponentDrill
T6C0.0750
; #@! TA.AperFunction,Plated,PTH,ComponentDrill
T7C0.1020
; #@! TA.AperFunction,Plated,PTH,ComponentDrill
T8C0.1024
; #@! TA.AperFunction,Plated,PTH,ComponentDrill
T9C0.1260
%
G90
G05
T1
X2.3228Y-2.1063
X2.3228Y-3.1201
X2.3228Y-4.8228
X2.3228Y-5.2067
X2.6673Y-2.1063
X2.8051Y-5.2067
X3.0118Y-2.1063
X3.1693Y-2.9429
X3.1693Y-3.3661
X3.1693Y-3.7106
X3.1693Y-4.065
X3.1693Y-4.4291
X3.2972Y-4.8228
X3.2972Y-5.2067
X3.4154Y-2.1063
X3.6614Y-3.3661
X3.6614Y-3.7402
X3.6614Y-4.0945
X3.6614Y-4.4488
X3.6713Y-5.2067
X3.7205Y-2.3819
X3.7205Y-2.5689
X3.75Y-2.7461
X3.75Y-3.1398
X4.0354Y-2.3819
X4.0354Y-2.5689
X4.0551Y-4.8228
X4.0551Y-5.2067
X4.0846Y-2.7461
X4.0846Y-3.1398
X4.0846Y-3.7402
X4.0846Y-4.4488
X4.2323Y-3.1398
X4.2333Y-4.2333
X4.2421Y-3.6713
X4.252Y-4.7835
X4.3209Y-2.3819
X4.3209Y-2.5689
X4.3504Y-4.2126
X4.3602Y-3.3661
X4.3701Y-3.6713
X4.3996Y-4.7835
X4.5177Y-3.878
X4.5768Y-3.1988
X4.5768Y-3.3661
X4.6752Y-2.3819
X4.6752Y-2.5689
X4.6752Y-4.0551
X4.7441Y-2.1654
X4.7638Y-4.5866
X4.7638Y-4.7835
X4.8031Y-4.0945
X4.8031Y-5.2067
X4.813Y-2.1063
X4.813Y-3.3661
X4.8327Y-4.2815
X4.8425Y-2.6181
X4.9409Y-2.8642
X4.9705Y-4.5866
X4.9902Y-3.0906
X4.9902Y-3.3071
X4.9902Y-4.8228
X5.0591Y-3.3858
X5.0591Y-4.2323
X5.0591Y-4.6358
X5.1083Y-2.1063
X5.1083Y-5.2067
X5.128Y-2.8839
T2
X4.3089Y-2.9134
X4.4089Y-2.8134
X4.4089Y-3.0134
T3
X4.3291Y-4.9591
X4.3291Y-5.0591
X4.4291Y-4.9591
X4.4291Y-5.0591
X4.4695Y-4.3126
X4.4695Y-4.4126
X4.4695Y-4.5126
X4.5291Y-4.9591
X4.5291Y-5.0591
T4
X4.6605Y-3.5807
X4.6605Y-3.7657
X4.7282Y-3.4843
X4.7597Y-3.7953
X4.8274Y-3.5177
T5
X3.5637Y-2.7283
X3.5637Y-2.9803
X3.9357Y-2.7443
X3.9357Y-2.9643
T6
X3.3477Y-2.7363
T7
X3.377Y-3.5433
X3.377Y-3.8976
X3.3802Y-4.252
X3.3802Y-4.6063
X3.577Y-3.5433
X3.577Y-3.8976
X3.5802Y-4.252
X3.5802Y-4.6063
X3.737Y-3.5433
X3.737Y-3.8976
X3.7402Y-4.252
X3.7402Y-4.6063
X3.937Y-3.5433
X3.937Y-3.8976
X3.9402Y-4.252
X3.9402Y-4.6063
T8
X2.6049Y-3.5407
X2.6049Y-3.899
X2.6049Y-4.2573
X2.6049Y-4.6156
X2.6063Y-2.7362
X2.9041Y-3.5407
X2.9041Y-3.899
X2.9041Y-4.2573
X2.9041Y-4.6156
X2.9055Y-2.7362
T9
X2.4409Y-2.2441
X2.4409Y-5.0591
X4.9803Y-2.2441
X4.9803Y-5.0591
M30
